<svg width="71.40800000000002" height="71.40800000000002" viewBox="0 0 71.40800000000002 71.40800000000002" fill="none" xmlns="http://www.w3.org/2000/svg"><path d="M17.74 10L32.43 10L32.43 10Q42.08 10 47.01 12.84L47.01 12.84L47.01 12.84Q51.94 15.69 51.94 22.74L51.94 22.74L51.94 22.74Q51.94 27.28 49.42 30.27L49.42 30.27L49.42 30.27Q46.90 33.26 42.15 34.12L42.15 34.12L42.15 34.48L42.15 34.48Q45.39 34.98 48.02 36.35L48.02 36.35L48.02 36.35Q50.64 37.72 52.16 40.24L52.16 40.24L52.16 40.24Q53.67 42.76 53.67 46.79L53.67 46.79L53.67 46.79Q53.67 53.78 48.88 57.59L48.88 57.59L48.88 57.59Q44.09 61.41 35.81 61.41L35.81 61.41L17.74 61.41L17.74 10ZM24.22 31.89L33.72 31.89L33.72 31.89Q40.35 31.89 42.80 29.76L42.80 29.76L42.80 29.76Q45.24 27.64 45.24 23.46L45.24 23.46L45.24 23.46Q45.24 19.22 42.26 17.38L42.26 17.38L42.26 17.38Q39.27 15.54 32.72 15.54L32.72 15.54L24.22 15.54L24.22 31.89ZM34.08 37.29L24.22 37.29L24.22 55.94L34.59 55.94L34.59 55.94Q41.43 55.94 44.09 53.27L44.09 53.27L44.09 53.27Q46.76 50.61 46.76 46.29L46.76 46.29L46.76 46.29Q46.76 42.26 43.98 39.77L43.98 39.77L43.98 39.77Q41.21 37.29 34.08 37.29L34.08 37.29Z" fill="#1A1A1C"></path></svg>