<svg width="76.59200000000001" height="76.59200000000001" viewBox="0 0 76.59200000000001 76.59200000000001" fill="none" xmlns="http://www.w3.org/2000/svg"><path d="M37.04 10L37.04 10L37.04 10Q40.85 10 43.91 11.44L43.91 11.44L43.91 11.44Q46.97 12.88 49.13 15.83L49.13 15.83L49.49 15.83L50.36 10.72L55.40 10.72L55.40 49.96L55.40 49.96Q55.40 58.24 51.18 62.42L51.18 62.42L51.18 62.42Q46.97 66.59 38.12 66.59L38.12 66.59L38.12 66.59Q29.62 66.59 24.22 64.14L24.22 64.14L24.22 58.31L24.22 58.31Q29.91 61.34 38.48 61.34L38.48 61.34L38.48 61.34Q43.44 61.34 46.29 58.42L46.29 58.42L46.29 58.42Q49.13 55.50 49.13 50.46L49.13 50.46L49.13 48.95L49.13 48.95Q49.13 48.09 49.20 46.47L49.20 46.47L49.20 46.47Q49.28 44.85 49.35 44.20L49.35 44.20L49.06 44.20L49.06 44.20Q45.17 50.03 37.11 50.03L37.11 50.03L37.11 50.03Q29.62 50.03 25.41 44.78L25.41 44.78L25.41 44.78Q21.20 39.52 21.20 30.09L21.20 30.09L21.20 30.09Q21.20 20.87 25.41 15.44L25.41 15.44L25.41 15.44Q29.62 10 37.04 10ZM37.90 15.33L37.90 15.33L37.90 15.33Q33.08 15.33 30.41 19.18L30.41 19.18L30.41 19.18Q27.75 23.03 27.75 30.16L27.75 30.16L27.75 30.16Q27.75 37.29 30.38 41.07L30.38 41.07L30.38 41.07Q33.00 44.85 38.04 44.85L38.04 44.85L38.04 44.85Q43.88 44.85 46.54 41.72L46.54 41.72L46.54 41.72Q49.20 38.58 49.20 31.60L49.20 31.60L49.20 30.09L49.20 30.09Q49.20 22.17 46.47 18.75L46.47 18.75L46.47 18.75Q43.73 15.33 37.90 15.33Z" fill="#1A1A1C"></path></svg>