<svg width="71.40800000000002" height="71.40800000000002" viewBox="0 0 71.40800000000002 71.40800000000002" fill="none" xmlns="http://www.w3.org/2000/svg"><path d="M56.30 35.20L56.30 35.20L56.30 35.20Q56.30 48.23 49.20 54.82L49.20 54.82L49.20 54.82Q42.11 61.41 29.44 61.41L29.44 61.41L15.11 61.41L15.11 10L30.95 10L30.95 10Q38.73 10 44.42 12.88L44.42 12.88L44.42 12.88Q50.10 15.76 53.20 21.34L53.20 21.34L53.20 21.34Q56.30 26.92 56.30 35.20ZM49.46 35.42L49.46 35.42L49.46 35.42Q49.46 25.12 44.38 20.33L44.38 20.33L44.38 20.33Q39.30 15.54 30.02 15.54L30.02 15.54L21.59 15.54L21.59 55.86L28.58 55.86L28.58 55.86Q49.46 55.86 49.46 35.42Z" fill="#1A1A1C"></path></svg>