<svg width="72.84800000000001" height="72.84800000000001" viewBox="0 0 72.84800000000001 72.84800000000001" fill="none" xmlns="http://www.w3.org/2000/svg"><path d="M53.34 32.68L53.34 32.68L53.34 32.68Q53.34 38.22 52.37 43.59L52.37 43.59L52.37 43.59Q51.40 48.95 48.84 53.31L48.84 53.31L48.84 53.31Q46.29 57.66 41.64 60.26L41.64 60.26L41.64 60.26Q37 62.85 29.73 62.85L29.73 62.85L29.73 62.85Q28.29 62.85 26.38 62.67L26.38 62.67L26.38 62.67Q24.47 62.49 23.25 62.13L23.25 62.13L23.25 56.73L23.25 56.73Q26.06 57.66 29.58 57.66L29.58 57.66L29.58 57.66Q34.62 57.66 37.90 56.01L37.90 56.01L37.90 56.01Q41.18 54.35 43.12 51.51L43.12 51.51L43.12 51.51Q45.06 48.66 45.93 44.88L45.93 44.88L45.93 44.88Q46.79 41.10 46.94 36.93L46.94 36.93L46.50 36.93L46.50 36.93Q44.92 39.38 41.93 41.14L41.93 41.14L41.93 41.14Q38.94 42.90 34.26 42.90L34.26 42.90L34.26 42.90Q27.64 42.90 23.57 38.84L23.57 38.84L23.57 38.84Q19.50 34.77 19.50 27.35L19.50 27.35L19.50 27.35Q19.50 21.95 21.56 18.06L21.56 18.06L21.56 18.06Q23.61 14.18 27.28 12.09L27.28 12.09L27.28 12.09Q30.95 10 35.92 10L35.92 10L35.92 10Q40.82 10 44.78 12.48L44.78 12.48L44.78 12.48Q48.74 14.97 51.04 19.97L51.04 19.97L51.04 19.97Q53.34 24.98 53.34 32.68ZM35.92 15.33L35.92 15.33L35.92 15.33Q31.46 15.33 28.61 18.28L28.61 18.28L28.61 18.28Q25.77 21.23 25.77 27.28L25.77 27.28L25.77 27.28Q25.77 32.25 28.18 35.09L28.18 35.09L28.18 35.09Q30.59 37.94 35.63 37.94L35.63 37.94L35.63 37.94Q39.09 37.94 41.61 36.53L41.61 36.53L41.61 36.53Q44.13 35.13 45.53 32.97L45.53 32.97L45.53 32.97Q46.94 30.81 46.94 28.50L46.94 28.50L46.94 28.50Q46.94 25.41 45.71 22.38L45.71 22.38L45.71 22.38Q44.49 19.36 42.04 17.34L42.04 17.34L42.04 17.34Q39.59 15.33 35.92 15.33Z" fill="#1A1A1C"></path></svg>