<svg width="72.12800000000001" height="72.12800000000001" viewBox="0 0 72.12800000000001 72.12800000000001" fill="none" xmlns="http://www.w3.org/2000/svg"><path d="M53.06 56.37L53.06 62.13L19.07 62.13L19.07 56.87L32.54 43.26L32.54 43.26Q36.42 39.38 39.09 36.35L39.09 36.35L39.09 36.35Q41.75 33.33 43.12 30.41L43.12 30.41L43.12 30.41Q44.49 27.50 44.49 24.04L44.49 24.04L44.49 24.04Q44.49 19.79 41.97 17.60L41.97 17.60L41.97 17.60Q39.45 15.40 35.42 15.40L35.42 15.40L35.42 15.40Q31.67 15.40 28.83 16.70L28.83 16.70L28.83 16.70Q25.98 17.99 23.03 20.30L23.03 20.30L19.65 16.05L19.65 16.05Q22.67 13.53 26.60 11.76L26.60 11.76L26.60 11.76Q30.52 10 35.42 10L35.42 10L35.42 10Q42.62 10 46.79 13.64L46.79 13.64L46.79 13.64Q50.97 17.27 50.97 23.68L50.97 23.68L50.97 23.68Q50.97 27.71 49.31 31.24L49.31 31.24L49.31 31.24Q47.66 34.77 44.70 38.19L44.70 38.19L44.70 38.19Q41.75 41.61 37.79 45.50L37.79 45.50L27.06 56.08L27.06 56.37L53.06 56.37Z" fill="#1A1A1C"></path></svg>