<svg width="60.032000000000004" height="60.032000000000004" viewBox="0 0 60.032000000000004 60.032000000000004" fill="none" xmlns="http://www.w3.org/2000/svg"><path d="M30.59 10L30.59 10L30.59 10Q35.56 10 39.12 12.16L39.12 12.16L39.12 12.16Q42.69 14.32 44.60 18.24L44.60 18.24L44.60 18.24Q46.50 22.17 46.50 27.42L46.50 27.42L46.50 31.24L20.08 31.24L20.08 31.24Q20.22 37.79 23.43 41.21L23.43 41.21L23.43 41.21Q26.63 44.63 32.39 44.63L32.39 44.63L32.39 44.63Q36.06 44.63 38.91 43.95L38.91 43.95L38.91 43.95Q41.75 43.26 44.78 41.97L44.78 41.97L44.78 47.51L44.78 47.51Q41.82 48.81 38.94 49.42L38.94 49.42L38.94 49.42Q36.06 50.03 32.10 50.03L32.10 50.03L32.10 50.03Q26.63 50.03 22.42 47.80L22.42 47.80L22.42 47.80Q18.21 45.57 15.87 41.14L15.87 41.14L15.87 41.14Q13.53 36.71 13.53 30.30L13.53 30.30L13.53 30.30Q13.53 23.97 15.65 19.43L15.65 19.43L15.65 19.43Q17.78 14.90 21.63 12.45L21.63 12.45L21.63 12.45Q25.48 10 30.59 10ZM30.52 15.18L30.52 15.18L30.52 15.18Q25.98 15.18 23.36 18.10L23.36 18.10L23.36 18.10Q20.73 21.02 20.22 26.20L20.22 26.20L39.88 26.20L39.88 26.20Q39.81 21.30 37.58 18.24L37.58 18.24L37.58 18.24Q35.34 15.18 30.52 15.18Z" fill="#1A1A1C"></path></svg>