<svg width="71.62400000000001" height="71.62400000000001" viewBox="0 0 71.62400000000001 71.62400000000001" fill="none" xmlns="http://www.w3.org/2000/svg"><path d="M58.78 61.62L52.08 61.62L45.89 45.71L25.52 45.71L19.40 61.62L12.84 61.62L32.93 10L38.76 10L58.78 61.62ZM43.95 39.95L38.19 24.40L38.19 24.40Q37.97 23.82 37.47 22.31L37.47 22.31L37.47 22.31Q36.96 20.80 36.50 19.18L36.50 19.18L36.50 19.18Q36.03 17.56 35.74 16.70L35.74 16.70L35.74 16.70Q35.24 18.93 34.59 21.05L34.59 21.05L34.59 21.05Q33.94 23.18 33.51 24.40L33.51 24.40L27.68 39.95L43.95 39.95Z" fill="#1A1A1C"></path></svg>