<svg width="73.28" height="73.28" viewBox="0 0 73.28 73.28" fill="none" xmlns="http://www.w3.org/2000/svg"><path d="M54.50 43.19L54.50 43.19L54.50 43.19Q54.50 52.77 49.64 58.02L49.64 58.02L49.64 58.02Q44.78 63.28 36.50 63.28L36.50 63.28L36.50 63.28Q31.38 63.28 27.39 60.94L27.39 60.94L27.39 60.94Q23.39 58.60 21.09 54.10L21.09 54.10L21.09 54.10Q18.78 49.60 18.78 43.19L18.78 43.19L18.78 43.19Q18.78 33.62 23.61 28.43L23.61 28.43L23.61 28.43Q28.43 23.25 36.71 23.25L36.71 23.25L36.71 23.25Q41.97 23.25 45.96 25.59L45.96 25.59L45.96 25.59Q49.96 27.93 52.23 32.36L52.23 32.36L52.23 32.36Q54.50 36.78 54.50 43.19ZM25.34 43.19L25.34 43.19L25.34 43.19Q25.34 50.03 28.04 54.03L28.04 54.03L28.04 54.03Q30.74 58.02 36.64 58.02L36.64 58.02L36.64 58.02Q42.47 58.02 45.21 54.03L45.21 54.03L45.21 54.03Q47.94 50.03 47.94 43.19L47.94 43.19L47.94 43.19Q47.94 36.35 45.21 32.46L45.21 32.46L45.21 32.46Q42.47 28.58 36.57 28.58L36.57 28.58L36.57 28.58Q30.66 28.58 28.00 32.46L28.00 32.46L28.00 32.46Q25.34 36.35 25.34 43.19ZM26.56 13.53L26.56 13.53L26.56 13.53Q26.56 11.66 27.57 10.83L27.57 10.83L27.57 10.83Q28.58 10 29.94 10L29.94 10L29.94 10Q31.31 10 32.32 10.83L32.32 10.83L32.32 10.83Q33.33 11.66 33.33 13.53L33.33 13.53L33.33 13.53Q33.33 15.33 32.32 16.23L32.32 16.23L32.32 16.23Q31.31 17.13 29.94 17.13L29.94 17.13L29.94 17.13Q28.58 17.13 27.57 16.23L27.57 16.23L27.57 16.23Q26.56 15.33 26.56 13.53ZM40.10 13.53L40.10 13.53L40.10 13.53Q40.10 11.66 41.07 10.83L41.07 10.83L41.07 10.83Q42.04 10 43.41 10L43.41 10L43.41 10Q44.78 10 45.78 10.83L45.78 10.83L45.78 10.83Q46.79 11.66 46.79 13.53L46.79 13.53L46.79 13.53Q46.79 15.33 45.78 16.23L45.78 16.23L45.78 16.23Q44.78 17.13 43.41 17.13L43.41 17.13L43.41 17.13Q42.04 17.13 41.07 16.23L41.07 16.23L41.07 16.23Q40.10 15.33 40.10 13.53Z" fill="#1A1A1C"></path></svg>