<svg width="71.696" height="71.696" viewBox="0 0 71.696 71.696" fill="none" xmlns="http://www.w3.org/2000/svg"><path d="M54.96 44.34L54.96 50.03L47.48 50.03L47.48 61.70L41.36 61.70L41.36 50.03L16.73 50.03L16.73 44.63L40.92 10L47.48 10L47.48 44.34L54.96 44.34ZM41.36 44.34L41.36 28.14L41.36 28.14Q41.36 24.40 41.50 21.77L41.50 21.77L41.50 21.77Q41.64 19.14 41.72 16.77L41.72 16.77L41.43 16.77L41.43 16.77Q40.85 18.14 39.99 19.72L39.99 19.72L39.99 19.72Q39.12 21.30 38.33 22.38L38.33 22.38L22.92 44.34L41.36 44.34Z" fill="#1A1A1C"></path></svg>