<svg width="72.12800000000001" height="72.12800000000001" viewBox="0 0 72.12800000000001 72.12800000000001" fill="none" xmlns="http://www.w3.org/2000/svg"><path d="M35.06 29.87L35.06 29.87L35.06 29.87Q42.98 29.87 47.66 33.83L47.66 33.83L47.66 33.83Q52.34 37.79 52.34 44.99L52.34 44.99L52.34 44.99Q52.34 52.98 47.26 57.56L47.26 57.56L47.26 57.56Q42.18 62.13 33.11 62.13L33.11 62.13L33.11 62.13Q29.15 62.13 25.66 61.41L25.66 61.41L25.66 61.41Q22.17 60.69 19.79 59.32L19.79 59.32L19.79 53.34L19.79 53.34Q22.38 54.93 26.09 55.83L26.09 55.83L26.09 55.83Q29.80 56.73 33.18 56.73L33.18 56.73L33.18 56.73Q38.87 56.73 42.36 54.03L42.36 54.03L42.36 54.03Q45.86 51.33 45.86 45.64L45.86 45.64L45.86 45.64Q45.86 40.60 42.76 37.90L42.76 37.90L42.76 37.90Q39.66 35.20 32.97 35.20L32.97 35.20L32.97 35.20Q30.95 35.20 28.36 35.56L28.36 35.56L28.36 35.56Q25.77 35.92 24.18 36.28L24.18 36.28L21.02 34.26L22.96 10L48.74 10L48.74 15.76L28.36 15.76L27.14 30.66L27.14 30.66Q28.36 30.45 30.45 30.16L30.45 30.16L30.45 30.16Q32.54 29.87 35.06 29.87Z" fill="#1A1A1C"></path></svg>