<svg width="72.92" height="72.92" viewBox="0 0 72.92 72.92" fill="none" xmlns="http://www.w3.org/2000/svg"><path d="M60.18 36.42L60.18 36.42L60.18 36.42Q60.18 44.42 57.48 50.36L57.48 50.36L57.48 50.36Q54.78 56.30 49.53 59.61L49.53 59.61L49.53 59.61Q44.27 62.92 36.50 62.92L36.50 62.92L36.50 62.92Q28.50 62.92 23.21 59.61L23.21 59.61L23.21 59.61Q17.92 56.30 15.33 50.32L15.33 50.32L15.33 50.32Q12.74 44.34 12.74 36.35L12.74 36.35L12.74 36.35Q12.74 28.43 15.33 22.53L15.33 22.53L15.33 22.53Q17.92 16.62 23.21 13.31L23.21 13.31L23.21 13.31Q28.50 10 36.57 10L36.57 10L36.57 10Q44.27 10 49.53 13.28L49.53 13.28L49.53 13.28Q54.78 16.55 57.48 22.49L57.48 22.49L57.48 22.49Q60.18 28.43 60.18 36.42ZM19.58 36.42L19.58 36.42L19.58 36.42Q19.58 46.14 23.68 51.72L23.68 51.72L23.68 51.72Q27.78 57.30 36.50 57.30L36.50 57.30L36.50 57.30Q45.28 57.30 49.31 51.72L49.31 51.72L49.31 51.72Q53.34 46.14 53.34 36.42L53.34 36.42L53.34 36.42Q53.34 26.70 49.31 21.20L49.31 21.20L49.31 21.20Q45.28 15.69 36.57 15.69L36.57 15.69L36.57 15.69Q27.86 15.69 23.72 21.20L23.72 21.20L23.72 21.20Q19.58 26.70 19.58 36.42Z" fill="#1A1A1C"></path></svg>