<svg width="72.84800000000001" height="72.84800000000001" viewBox="0 0 72.84800000000001 72.84800000000001" fill="none" xmlns="http://www.w3.org/2000/svg"><path d="M36.39 10L36.39 10L36.39 10Q43.16 10 47.48 13.17L47.48 13.17L47.48 13.17Q51.80 16.34 51.80 22.31L51.80 22.31L51.80 22.31Q51.80 25.41 50.46 27.71L50.46 27.71L50.46 27.71Q49.13 30.02 46.90 31.78L46.90 31.78L46.90 31.78Q44.67 33.54 42.00 34.91L42.00 34.91L42.00 34.91Q45.17 36.42 47.76 38.33L47.76 38.33L47.76 38.33Q50.36 40.24 51.90 42.76L51.90 42.76L51.90 42.76Q53.45 45.28 53.45 48.81L53.45 48.81L53.45 48.81Q53.45 55.29 48.88 59.07L48.88 59.07L48.88 59.07Q44.31 62.85 36.60 62.85L36.60 62.85L36.60 62.85Q28.32 62.85 23.86 59.21L23.86 59.21L23.86 59.21Q19.40 55.58 19.40 49.02L19.40 49.02L19.40 49.02Q19.40 45.50 20.87 42.90L20.87 42.90L20.87 42.90Q22.35 40.31 24.80 38.44L24.80 38.44L24.80 38.44Q27.24 36.57 30.05 35.27L30.05 35.27L30.05 35.27Q26.31 33.11 23.68 30.05L23.68 30.05L23.68 30.05Q21.05 26.99 21.05 22.24L21.05 22.24L21.05 22.24Q21.05 18.28 23.07 15.58L23.07 15.58L23.07 15.58Q25.08 12.88 28.54 11.44L28.54 11.44L28.54 11.44Q32.00 10 36.39 10ZM36.32 15.11L36.32 15.11L36.32 15.11Q32.36 15.11 29.80 17.02L29.80 17.02L29.80 17.02Q27.24 18.93 27.24 22.53L27.24 22.53L27.24 22.53Q27.24 25.19 28.50 26.99L28.50 26.99L28.50 26.99Q29.76 28.79 31.92 30.05L31.92 30.05L31.92 30.05Q34.08 31.31 36.68 32.46L36.68 32.46L36.68 32.46Q40.42 30.88 42.98 28.65L42.98 28.65L42.98 28.65Q45.53 26.42 45.53 22.53L45.53 22.53L45.53 22.53Q45.53 18.93 43.01 17.02L43.01 17.02L43.01 17.02Q40.49 15.11 36.32 15.11ZM25.59 49.10L25.59 49.10L25.59 49.10Q25.59 52.84 28.25 55.32L28.25 55.32L28.25 55.32Q30.92 57.81 36.46 57.81L36.46 57.81L36.46 57.81Q41.72 57.81 44.49 55.32L44.49 55.32L44.49 55.32Q47.26 52.84 47.26 48.88L47.26 48.88L47.26 48.88Q47.26 45.14 44.31 42.65L44.31 42.65L44.31 42.65Q41.36 40.17 36.46 38.30L36.46 38.30L35.31 37.86L35.31 37.86Q30.56 39.88 28.07 42.51L28.07 42.51L28.07 42.51Q25.59 45.14 25.59 49.10Z" fill="#1A1A1C"></path></svg>