<svg width="72.92" height="72.92" viewBox="0 0 72.92 72.92" fill="none" xmlns="http://www.w3.org/2000/svg"><path d="M53.52 36.42L53.52 36.42L53.52 36.42Q53.52 44.70 51.80 50.64L51.80 50.64L51.80 50.64Q50.07 56.58 46.32 59.75L46.32 59.75L46.32 59.75Q42.58 62.92 36.39 62.92L36.39 62.92L36.39 62.92Q27.68 62.92 23.54 55.90L23.54 55.90L23.54 55.90Q19.40 48.88 19.40 36.42L19.40 36.42L19.40 36.42Q19.40 28.07 21.09 22.17L21.09 22.17L21.09 22.17Q22.78 16.26 26.52 13.13L26.52 13.13L26.52 13.13Q30.27 10 36.39 10L36.39 10L36.39 10Q45.03 10 49.28 16.95L49.28 16.95L49.28 16.95Q53.52 23.90 53.52 36.42ZM25.73 36.42L25.73 36.42L25.73 36.42Q25.73 47.01 28.14 52.26L28.14 52.26L28.14 52.26Q30.56 57.52 36.39 57.52L36.39 57.52L36.39 57.52Q42.15 57.52 44.63 52.30L44.63 52.30L44.63 52.30Q47.12 47.08 47.12 36.42L47.12 36.42L47.12 36.42Q47.12 25.91 44.63 20.66L44.63 20.66L44.63 20.66Q42.15 15.40 36.39 15.40L36.39 15.40L36.39 15.40Q30.56 15.40 28.14 20.66L28.14 20.66L28.14 20.66Q25.73 25.91 25.73 36.42Z" fill="#1A1A1C"></path></svg>