<svg width="75.44000000000001" height="75.44" viewBox="0 0 75.44000000000001 75.44" fill="none" xmlns="http://www.w3.org/2000/svg"><path d="M24.33 36.64L24.33 36.64L24.33 36.64Q24.33 33.04 26.06 30.84L26.06 30.84L26.06 30.84Q27.78 28.65 30.02 27.57L30.02 27.57L30.02 27.57Q27.42 26.13 25.98 24.15L25.98 24.15L25.98 24.15Q24.54 22.17 24.54 19.29L24.54 19.29L24.54 19.29Q24.54 14.97 28.22 12.48L28.22 12.48L28.22 12.48Q31.89 10.00 38.73 10.00L38.73 10.00L38.73 10.00Q42.76 10.00 45.57 10.68L45.57 10.68L45.57 10.68Q48.38 11.37 51.04 12.45L51.04 12.45L49.10 17.27L49.10 17.27Q46.65 16.26 44.20 15.58L44.20 15.58L44.20 15.58Q41.75 14.90 38.30 14.90L38.30 14.90L38.30 14.90Q33.98 14.90 32.21 16.01L32.21 16.01L32.21 16.01Q30.45 17.13 30.45 19.14L30.45 19.14L30.45 19.14Q30.45 21.16 32.46 22.56L32.46 22.56L32.46 22.56Q34.48 23.97 39.95 25.98L39.95 25.98L39.95 25.98Q45.50 28.00 48.59 30.59L48.59 30.59L48.59 30.59Q51.69 33.18 51.69 37.50L51.69 37.50L51.69 37.50Q51.69 41.18 50.03 43.52L50.03 43.52L50.03 43.52Q48.38 45.86 46.29 47.08L46.29 47.08L46.29 47.08Q48.81 48.45 50.21 50.36L50.21 50.36L50.21 50.36Q51.62 52.26 51.62 55.00L51.62 55.00L51.62 55.00Q51.62 59.97 47.48 62.70L47.48 62.70L47.48 62.70Q43.34 65.44 35.92 65.44L35.92 65.44L35.92 65.44Q31.96 65.44 29.01 64.83L29.01 64.83L29.01 64.83Q26.06 64.22 23.75 63.06L23.75 63.06L23.75 57.66L23.75 57.66Q26.06 58.74 29.44 59.68L29.44 59.68L29.44 59.68Q32.82 60.62 36.21 60.62L36.21 60.62L36.21 60.62Q41.54 60.62 43.55 59.07L43.55 59.07L43.55 59.07Q45.57 57.52 45.57 55.50L45.57 55.50L45.57 55.50Q45.57 54.14 44.88 53.13L44.88 53.13L44.88 53.13Q44.20 52.12 42.22 51.00L42.22 51.00L42.22 51.00Q40.24 49.89 36.28 48.45L36.28 48.45L36.28 48.45Q32.54 47.01 29.84 45.50L29.84 45.50L29.84 45.50Q27.14 43.98 25.73 41.90L25.73 41.90L25.73 41.90Q24.33 39.81 24.33 36.64ZM29.73 35.92L29.73 35.92L29.73 35.92Q29.73 38.58 32.00 40.42L32.00 40.42L32.00 40.42Q34.26 42.26 40.02 44.42L40.02 44.42L41.61 44.99L41.61 44.99Q43.26 43.98 44.74 42.44L44.74 42.44L44.74 42.44Q46.22 40.89 46.22 38.44L46.22 38.44L46.22 38.44Q46.22 36.64 45.24 35.20L45.24 35.20L45.24 35.20Q44.27 33.76 41.82 32.43L41.82 32.43L41.82 32.43Q39.38 31.10 34.91 29.73L34.91 29.73L34.91 29.73Q32.90 30.23 31.31 31.89L31.31 31.89L31.31 31.89Q29.73 33.54 29.73 35.92Z" fill="#1A1A1C"></path></svg>