<svg width="72.84800000000001" height="72.84800000000001" viewBox="0 0 72.84800000000001 72.84800000000001" fill="none" xmlns="http://www.w3.org/2000/svg"><path d="M19.50 40.17L19.50 40.17L19.50 40.17Q19.50 34.62 20.48 29.26L20.48 29.26L20.48 29.26Q21.45 23.90 24.00 19.54L24.00 19.54L24.00 19.54Q26.56 15.18 31.17 12.59L31.17 12.59L31.17 12.59Q35.78 10 43.05 10L43.05 10L43.05 10Q44.56 10 46.40 10.14L46.40 10.14L46.40 10.14Q48.23 10.29 49.38 10.65L49.38 10.65L49.38 16.05L49.38 16.05Q48.09 15.62 46.47 15.40L46.47 15.40L46.47 15.40Q44.85 15.18 43.19 15.18L43.19 15.18L43.19 15.18Q38.22 15.18 34.91 16.84L34.91 16.84L34.91 16.84Q31.60 18.50 29.69 21.38L29.69 21.38L29.69 21.38Q27.78 24.26 26.92 28L26.92 28L26.92 28Q26.06 31.74 25.84 35.99L25.84 35.99L26.27 35.99L26.27 35.99Q27.93 33.47 30.88 31.71L30.88 31.71L30.88 31.71Q33.83 29.94 38.44 29.94L38.44 29.94L38.44 29.94Q45.14 29.94 49.24 34.01L49.24 34.01L49.24 34.01Q53.34 38.08 53.34 45.57L53.34 45.57L53.34 45.57Q53.34 53.63 48.92 58.24L48.92 58.24L48.92 58.24Q44.49 62.85 37 62.85L37 62.85L37 62.85Q32.10 62.85 28.14 60.40L28.14 60.40L28.14 60.40Q24.18 57.95 21.84 52.91L21.84 52.91L21.84 52.91Q19.50 47.87 19.50 40.17ZM36.93 57.52L36.93 57.52L36.93 57.52Q41.46 57.52 44.27 54.60L44.27 54.60L44.27 54.60Q47.08 51.69 47.08 45.57L47.08 45.57L47.08 45.57Q47.08 40.67 44.60 37.79L44.60 37.79L44.60 37.79Q42.11 34.91 37.14 34.91L37.14 34.91L37.14 34.91Q33.76 34.91 31.24 36.32L31.24 36.32L31.24 36.32Q28.72 37.72 27.32 39.88L27.32 39.88L27.32 39.88Q25.91 42.04 25.91 44.34L25.91 44.34L25.91 44.34Q25.91 47.44 27.14 50.50L27.14 50.50L27.14 50.50Q28.36 53.56 30.81 55.54L30.81 55.54L30.81 55.54Q33.26 57.52 36.93 57.52Z" fill="#1A1A1C"></path></svg>