<svg width="78.10400000000001" height="78.10400000000001" viewBox="0 0 78.10400000000001 78.10400000000001" fill="none" xmlns="http://www.w3.org/2000/svg"><path d="M33.40 12.59L33.40 12.59L33.40 12.59Q37 12.59 40.31 13.38L40.31 13.38L68.10 13.38L68.10 19.07L47.44 19.07L47.44 35.13L66.74 35.13L66.74 40.74L47.44 40.74L47.44 59.10L68.10 59.10L68.10 64.79L40.74 64.79L40.74 64.79Q39.16 65.08 37.40 65.30L37.40 65.30L37.40 65.30Q35.63 65.51 33.76 65.51L33.76 65.51L33.76 65.51Q25.77 65.51 20.48 62.20L20.48 62.20L20.48 62.20Q15.18 58.89 12.59 52.91L12.59 52.91L12.59 52.91Q10 46.94 10 38.94L10 38.94L10 38.94Q10 30.95 12.56 25.05L12.56 25.05L12.56 25.05Q15.11 19.14 20.33 15.87L20.33 15.87L20.33 15.87Q25.55 12.59 33.40 12.59ZM33.98 18.28L33.98 18.28L33.98 18.28Q25.12 18.28 20.94 23.79L20.94 23.79L20.94 23.79Q16.77 29.30 16.77 39.02L16.77 39.02L16.77 39.02Q16.77 48.74 20.94 54.32L20.94 54.32L20.94 54.32Q25.12 59.90 33.90 59.90L33.90 59.90L33.90 59.90Q38.01 59.90 41.03 58.67L41.03 58.67L41.03 19.43L41.03 19.43Q38.08 18.28 33.98 18.28Z" fill="#1A1A1C"></path></svg>