<svg width="89.69600000000001" height="89.69600000000001" viewBox="0 0 89.69600000000001 89.69600000000001" fill="none" xmlns="http://www.w3.org/2000/svg"><path d="M45.42 25.41L45.42 25.41L45.42 25.41Q47.08 25.41 48.66 25.70L48.66 25.70L54.06 10.00L58.89 10.00L52.98 27.06L52.98 27.06Q56.94 29.08 59.14 33.15L59.14 33.15L59.14 33.15Q61.34 37.22 61.34 42.83L61.34 42.83L61.34 46.65L46.22 46.65L41.90 59.10L41.90 59.10Q44.20 60.04 47.22 60.04L47.22 60.04L47.22 60.04Q50.90 60.04 53.74 59.36L53.74 59.36L53.74 59.36Q56.58 58.67 59.61 57.38L59.61 57.38L59.61 62.92L59.61 62.92Q56.66 64.22 53.78 64.83L53.78 64.83L53.78 64.83Q50.90 65.44 46.94 65.44L46.94 65.44L46.94 65.44Q43.19 65.44 40.02 64.43L40.02 64.43L34.77 79.70L29.94 79.70L35.92 62.42L35.92 62.42Q32.39 60.04 30.38 55.83L30.38 55.83L30.38 55.83Q28.36 51.62 28.36 45.71L28.36 45.71L28.36 45.71Q28.36 39.38 30.48 34.84L30.48 34.84L30.48 34.84Q32.61 30.30 36.46 27.86L36.46 27.86L36.46 27.86Q40.31 25.41 45.42 25.41ZM45.35 30.59L45.35 30.59L45.35 30.59Q40.82 30.59 38.19 33.51L38.19 33.51L38.19 33.51Q35.56 36.42 35.06 41.61L35.06 41.61L43.12 41.61L46.94 30.66L46.94 30.66Q46.14 30.59 45.35 30.59ZM47.94 41.61L54.71 41.61L54.71 41.61Q54.71 38.58 53.81 36.17L53.81 36.17L53.81 36.17Q52.91 33.76 51.11 32.39L51.11 32.39L47.94 41.61ZM41.39 46.65L34.91 46.65L34.91 46.65Q35.06 52.91 38.01 56.37L38.01 56.37L41.39 46.65Z" fill="#1A1A1C"></path></svg>