<svg width="92.36000000000001" height="92.36000000000001" viewBox="0 0 92.36000000000001 92.36000000000001" fill="none" xmlns="http://www.w3.org/2000/svg"><path d="M35.49 82.36L29.15 82.36L29.15 26.99L29.15 26.99Q29.15 20.80 31.35 17.09L31.35 17.09L31.35 17.09Q33.54 13.38 37.29 11.69L37.29 11.69L37.29 11.69Q41.03 10.00 45.64 10.00L45.64 10.00L45.64 10.00Q52.98 10.00 56.94 13.56L56.94 13.56L56.94 13.56Q60.90 17.13 60.90 23.75L60.90 23.75L60.90 23.75Q60.90 28.94 57.92 31.96L57.92 31.96L57.92 31.96Q54.93 34.98 50.68 35.85L50.68 35.85L50.68 36.14L50.68 36.14Q56.15 36.86 59.68 40.38L59.68 40.38L59.68 40.38Q63.21 43.91 63.21 50.46L63.21 50.46L63.21 50.46Q63.21 55.36 61.01 58.82L61.01 58.82L61.01 58.82Q58.82 62.27 55.04 64.04L55.04 64.04L55.04 64.04Q51.26 65.80 46.50 65.80L46.50 65.80L46.50 65.80Q42.62 65.80 40.20 65.15L40.20 65.15L40.20 65.15Q37.79 64.50 35.49 63.35L35.49 63.35L35.49 82.36ZM45.93 60.62L45.93 60.62L45.93 60.62Q50.97 60.62 53.92 57.84L53.92 57.84L53.92 57.84Q56.87 55.07 56.87 50.03L56.87 50.03L56.87 50.03Q56.87 46.22 55.40 43.73L55.40 43.73L55.40 43.73Q53.92 41.25 51.51 39.99L51.51 39.99L51.51 39.99Q49.10 38.73 46.36 38.73L46.36 38.73L40.38 38.73L40.38 33.83L45.64 33.83L45.64 33.83Q49.74 33.83 52.08 31.13L52.08 31.13L52.08 31.13Q54.42 28.43 54.42 24.04L54.42 24.04L54.42 24.04Q54.42 19.58 51.80 17.42L51.80 17.42L51.80 17.42Q49.17 15.26 45.50 15.26L45.50 15.26L45.50 15.26Q42.98 15.26 40.67 16.23L40.67 16.23L40.67 16.23Q38.37 17.20 36.93 19.79L36.93 19.79L36.93 19.79Q35.49 22.38 35.49 27.28L35.49 27.28L35.49 57.66L35.49 57.66Q38.01 58.96 40.31 59.79L40.31 59.79L40.31 59.79Q42.62 60.62 45.93 60.62Z" fill="#1A1A1C"></path></svg>