<svg width="60.032000000000004" height="60.032000000000004" viewBox="0 0 60.032000000000004 60.032000000000004" fill="none" xmlns="http://www.w3.org/2000/svg"><path d="M26.06 50.03L26.06 50.03L26.06 50.03Q19.14 50.03 14.75 45.03L14.75 45.03L14.75 45.03Q10.36 40.02 10.36 30.16L10.36 30.16L10.36 30.16Q10.36 20.37 14.64 15.18L14.64 15.18L14.64 15.18Q18.93 10 26.34 10L26.34 10L26.34 10Q30.38 10 33.40 11.66L33.40 11.66L33.40 11.66Q36.42 13.31 38.30 15.98L38.30 15.98L38.58 15.98L39.52 10.72L44.56 10.72L44.56 40.82L44.56 40.82Q44.56 43.05 45.42 43.95L45.42 43.95L45.42 43.95Q46.29 44.85 47.51 44.85L47.51 44.85L47.51 44.85Q48.09 44.85 48.74 44.70L48.74 44.70L48.74 44.70Q49.38 44.56 49.67 44.49L49.67 44.49L49.67 49.10L49.67 49.10Q49.17 49.38 48.02 49.71L48.02 49.71L48.02 49.71Q46.86 50.03 45.64 50.03L45.64 50.03L45.64 50.03Q42.98 50.03 41.21 48.74L41.21 48.74L41.21 48.74Q39.45 47.44 38.66 44.13L38.66 44.13L38.15 44.13L38.15 44.13Q36.35 46.72 33.36 48.38L33.36 48.38L33.36 48.38Q30.38 50.03 26.06 50.03ZM27.35 44.78L27.35 44.78L27.35 44.78Q33.33 44.78 35.81 41.36L35.81 41.36L35.81 41.36Q38.30 37.94 38.30 30.52L38.30 30.52L38.30 30.09L38.30 30.09Q38.30 22.89 35.88 19.07L35.88 19.07L35.88 19.07Q33.47 15.26 27.28 15.26L27.28 15.26L27.28 15.26Q22.02 15.26 19.47 19.11L19.47 19.11L19.47 19.11Q16.91 22.96 16.91 30.23L16.91 30.23L16.91 30.23Q16.91 44.78 27.35 44.78Z" fill="#1A1A1C"></path></svg>