<svg width="58.592000000000006" height="58.592000000000006" viewBox="0 0 58.592000000000006 58.592000000000006" fill="none" xmlns="http://www.w3.org/2000/svg"><path d="M18.28 10L18.28 33.54L18.28 33.54Q18.28 34.41 18.21 36.14L18.21 36.14L18.21 36.14Q18.14 37.86 18.03 39.59L18.03 39.59L18.03 39.59Q17.92 41.32 17.85 42.33L17.85 42.33L38.51 10L46.29 10L46.29 48.59L40.38 48.59L40.38 25.84L40.38 25.84Q40.38 24.69 40.42 22.82L40.42 22.82L40.42 22.82Q40.46 20.94 40.53 19.11L40.53 19.11L40.53 19.11Q40.60 17.27 40.67 16.34L40.67 16.34L20.15 48.59L12.30 48.59L12.30 10L18.28 10Z" fill="#1A1A1C"></path></svg>