<svg width="73.712" height="73.712" viewBox="0 0 73.712 73.712" fill="none" xmlns="http://www.w3.org/2000/svg"><path d="M39.59 63.71L33.26 63.71L33.26 49.10L19.36 10.00L25.91 10.00L32.90 30.81L32.90 30.81Q33.47 32.54 34.34 34.91L34.34 34.91L34.34 34.91Q35.20 37.29 35.96 39.56L35.96 39.56L35.96 39.56Q36.71 41.82 37.07 43.26L37.07 43.26L37.36 43.26L37.36 43.26Q43.48 36.50 45.78 28.47L45.78 28.47L45.78 28.47Q48.09 20.44 48.09 10.00L48.09 10.00L54.35 10.00L54.35 10.00Q54.35 17.42 53.06 23.93L53.06 23.93L53.06 23.93Q51.76 30.45 48.56 36.53L48.56 36.53L48.56 36.53Q45.35 42.62 39.59 48.88L39.59 48.88L39.59 63.71Z" fill="#1A1A1C"></path></svg>