<svg width="83.50400000000002" height="83.50400000000002" viewBox="0 0 83.50400000000002 83.50400000000002" fill="none" xmlns="http://www.w3.org/2000/svg"><path d="M27.35 16.05L68.75 16.05L68.75 20.80L54.14 38.15L54.14 38.15Q58.89 38.44 61.62 40.10L61.62 40.10L61.62 40.10Q64.36 41.75 65.91 44.63L65.91 44.63L65.91 44.63Q67.46 47.51 68.68 51.54L68.68 51.54L73.50 67.46L67.10 67.46L62.27 51.69L62.27 51.69Q61.19 48.09 59.97 46.25L59.97 46.25L59.97 46.25Q58.74 44.42 56.80 43.77L56.80 43.77L56.80 43.77Q54.86 43.12 51.33 43.12L51.33 43.12L51.33 67.46L44.78 67.46L44.78 43.12L44.78 43.12Q41.25 43.12 39.27 43.91L39.27 43.91L39.27 43.91Q37.29 44.70 36.17 46.54L36.17 46.54L36.17 46.54Q35.06 48.38 34.05 51.69L34.05 51.69L29.37 67.46L22.60 67.46L27.64 51.26L27.64 51.26Q29.44 45.42 31.60 43.48L31.60 43.48L16.48 43.48L16.48 67.46L10 67.46L10 16.05L16.48 16.05L16.48 37.79L41.46 37.79L27.35 20.80L27.35 16.05ZM48.09 37.43L60.90 21.88L35.20 21.88L48.09 37.43Z" fill="#1A1A1C"></path></svg>