<svg width="75.22400000000002" height="75.22400000000002" viewBox="0 0 75.22400000000002 75.22400000000002" fill="none" xmlns="http://www.w3.org/2000/svg"><path d="M50.10 17.60L50.10 17.60L50.10 17.60Q54.78 17.60 58.17 19.76L58.17 19.76L58.17 19.76Q61.55 21.92 63.39 25.80L63.39 25.80L63.39 25.80Q65.22 29.69 65.22 34.88L65.22 34.88L65.22 38.76L40.53 38.76L40.53 38.76Q40.67 45.68 43.52 48.95L43.52 48.95L43.52 48.95Q46.36 52.23 51.69 52.23L51.69 52.23L51.69 52.23Q55.29 52.23 58.02 51.54L58.02 51.54L58.02 51.54Q60.76 50.86 63.50 49.56L63.50 49.56L63.50 55.11L63.50 55.11Q60.62 56.40 57.84 57.02L57.84 57.02L57.84 57.02Q55.07 57.63 51.47 57.63L51.47 57.63L51.47 57.63Q41.32 57.63 36.86 49.49L36.86 49.49L36.86 49.49Q34.41 53.24 31.10 55.43L31.10 55.43L31.10 55.43Q27.78 57.63 22.24 57.63L22.24 57.63L22.24 57.63Q16.98 57.63 13.49 54.86L13.49 54.86L13.49 54.86Q10 52.08 10 46.18L10 46.18L10 46.18Q10 40.42 14.32 37.29L14.32 37.29L14.32 37.29Q18.64 34.16 27.57 33.87L27.57 33.87L34.05 33.65L34.05 31.20L34.05 31.20Q34.05 26.52 31.85 24.65L31.85 24.65L31.85 24.65Q29.66 22.78 25.98 22.78L25.98 22.78L25.98 22.78Q23.10 22.78 20.33 23.64L20.33 23.64L20.33 23.64Q17.56 24.51 15.18 25.73L15.18 25.73L13.24 20.98L13.24 20.98Q15.76 19.54 19.36 18.60L19.36 18.60L19.36 18.60Q22.96 17.67 26.49 17.67L26.49 17.67L26.49 17.67Q30.95 17.67 33.87 19.14L33.87 19.14L33.87 19.14Q36.78 20.62 38.30 23.86L38.30 23.86L38.30 23.86Q40.17 20.91 43.19 19.25L43.19 19.25L43.19 19.25Q46.22 17.60 50.10 17.60ZM50.03 22.78L50.03 22.78L50.03 22.78Q45.86 22.78 43.44 25.62L43.44 25.62L43.44 25.62Q41.03 28.47 40.67 33.80L40.67 33.80L58.53 33.80L58.53 33.80Q58.53 28.83 56.48 25.80L56.48 25.80L56.48 25.80Q54.42 22.78 50.03 22.78ZM33.90 38.04L28.50 38.26L28.50 38.26Q21.74 38.55 19.14 40.56L19.14 40.56L19.14 40.56Q16.55 42.58 16.55 46.25L16.55 46.25L16.55 46.25Q16.55 49.49 18.39 51.00L18.39 51.00L18.39 51.00Q20.22 52.52 23.25 52.52L23.25 52.52L23.25 52.52Q27.78 52.52 30.84 49.82L30.84 49.82L30.84 49.82Q33.90 47.12 33.90 41.50L33.90 41.50L33.90 38.04Z" fill="#1A1A1C"></path></svg>