<svg width="73.208" height="73.208" viewBox="0 0 73.208 73.208" fill="none" xmlns="http://www.w3.org/2000/svg"><path d="M36.64 63.03L36.64 63.03L36.64 63.03Q33.98 63.03 31.46 62.02L31.46 62.02L31.46 62.02Q28.94 61.01 26.99 59.21L26.99 59.21L26.99 59.21Q23.39 59.00 20.44 57.23L20.44 57.23L20.44 57.23Q17.49 55.47 15.69 52.55L15.69 52.55L15.69 52.55Q13.89 49.64 13.74 46.04L13.74 46.04L13.74 46.04Q12.02 44.16 11.01 41.72L11.01 41.72L11.01 41.72Q10 39.27 10 36.60L10 36.60L10 36.60Q10 34.01 10.97 31.60L10.97 31.60L10.97 31.60Q11.94 29.19 13.74 27.24L13.74 27.24L13.74 27.24Q13.89 23.72 15.62 20.80L15.62 20.80L15.62 20.80Q17.34 17.88 20.30 16.01L20.30 16.01L20.30 16.01Q23.25 14.14 27.06 13.92L27.06 13.92L27.06 13.92Q28.94 12.20 31.42 11.19L31.42 11.19L31.42 11.19Q33.90 10.18 36.64 10.18L36.64 10.18L36.64 10.18Q39.38 10.18 41.86 11.19L41.86 11.19L41.86 11.19Q44.34 12.20 46.22 14.00L46.22 14.00L46.22 14.00Q49.82 14.14 52.77 15.90L52.77 15.90L52.77 15.90Q55.72 17.67 57.52 20.58L57.52 20.58L57.52 20.58Q59.32 23.50 59.46 27.17L59.46 27.17L59.46 27.17Q61.19 29.04 62.20 31.46L62.20 31.46L62.20 31.46Q63.21 33.87 63.21 36.60L63.21 36.60L63.21 36.60Q63.21 39.27 62.24 41.64L62.24 41.64L62.24 41.64Q61.26 44.02 59.46 45.96L59.46 45.96L59.46 45.96Q59.39 49.49 57.63 52.44L57.63 52.44L57.63 52.44Q55.86 55.40 52.91 57.20L52.91 57.20L52.91 57.20Q49.96 59.00 46.22 59.28L46.22 59.28L46.22 59.28Q44.27 61.01 41.82 62.02L41.82 62.02L41.82 62.02Q39.38 63.03 36.64 63.03ZM48.81 55.90L48.81 55.90L48.81 55.90Q51.98 54.89 54.14 52.05L54.14 52.05L54.14 52.05Q56.30 49.20 56.30 45.53L56.30 45.53L56.30 45.53Q56.30 42.51 54.82 39.95L54.82 39.95L54.82 39.95Q53.34 37.40 50.86 35.88L50.86 35.88L50.86 35.88Q48.38 34.37 45.28 34.37L45.28 34.37L45.28 34.37Q43.91 34.37 42.62 34.70L42.62 34.70L42.62 34.70Q41.32 35.02 40.17 35.67L40.17 35.67L40.17 35.67Q43.19 36.46 45.57 38.40L45.57 38.40L45.57 38.40Q47.94 40.35 49.31 43.08L49.31 43.08L49.31 43.08Q50.68 45.82 50.68 49.06L50.68 49.06L50.68 49.06Q50.68 50.86 50.21 52.62L50.21 52.62L50.21 52.62Q49.74 54.39 48.81 55.90ZM36.57 60.22L36.57 60.22L36.57 60.22Q39.59 60.22 42.04 58.71L42.04 58.71L42.04 58.71Q44.49 57.20 45.93 54.68L45.93 54.68L45.93 54.68Q47.37 52.16 47.37 49.06L47.37 49.06L47.37 49.06Q47.37 45.46 45.28 42.58L45.28 42.58L45.28 42.58Q43.19 39.70 39.88 38.62L39.88 38.62L39.88 38.62Q40.89 40.20 41.36 41.93L41.36 41.93L41.36 41.93Q41.82 43.66 41.82 45.46L41.82 45.46L41.82 45.46Q41.82 48.56 40.49 51.33L40.49 51.33L40.49 51.33Q39.16 54.10 36.82 56.04L36.82 56.04L36.82 56.04Q34.48 57.99 31.38 58.78L31.38 58.78L31.38 58.78Q32.54 59.50 33.87 59.86L33.87 59.86L33.87 59.86Q35.20 60.22 36.57 60.22ZM58.82 41.43L58.82 41.43L58.82 41.43Q59.39 40.35 59.68 39.12L59.68 39.12L59.68 39.12Q59.97 37.90 59.97 36.60L59.97 36.60L59.97 36.60Q59.97 33.58 58.49 31.06L58.49 31.06L58.49 31.06Q57.02 28.54 54.57 27.06L54.57 27.06L54.57 27.06Q52.12 25.59 49.02 25.59L49.02 25.59L49.02 25.59Q45.35 25.59 42.54 27.78L42.54 27.78L42.54 27.78Q39.74 29.98 38.73 33.36L38.73 33.36L38.73 33.36Q41.82 31.56 45.50 31.56L45.50 31.56L45.50 31.56Q48.59 31.56 51.29 32.79L51.29 32.79L51.29 32.79Q53.99 34.01 55.97 36.24L55.97 36.24L55.97 36.24Q57.95 38.48 58.82 41.43ZM27.64 56.48L27.64 56.48L27.64 56.48Q30.66 56.48 33.18 55.00L33.18 55.00L33.18 55.00Q35.70 53.52 37.18 50.97L37.18 50.97L37.18 50.97Q38.66 48.41 38.66 45.24L38.66 45.24L38.66 45.24Q38.66 44.02 38.37 42.83L38.37 42.83L38.37 42.83Q38.08 41.64 37.50 40.64L37.50 40.64L37.50 40.64Q36.64 43.44 34.70 45.71L34.70 45.71L34.70 45.71Q32.75 47.98 30.05 49.28L30.05 49.28L30.05 49.28Q27.35 50.57 24.18 50.57L24.18 50.57L24.18 50.57Q22.38 50.57 20.66 50.10L20.66 50.10L20.66 50.10Q18.93 49.64 17.49 48.77L17.49 48.77L17.49 48.77Q18.50 52.08 21.27 54.28L21.27 54.28L21.27 54.28Q24.04 56.48 27.64 56.48ZM35.70 32.57L35.70 32.57L35.70 32.57Q36.57 29.69 38.51 27.46L38.51 27.46L38.51 27.46Q40.46 25.23 43.19 23.93L43.19 23.93L43.19 23.93Q45.93 22.64 49.02 22.64L49.02 22.64L49.02 22.64Q50.90 22.64 52.59 23.10L52.59 23.10L52.59 23.10Q54.28 23.57 55.72 24.44L55.72 24.44L55.72 24.44Q54.78 20.98 51.94 18.86L51.94 18.86L51.94 18.86Q49.10 16.73 45.57 16.73L45.57 16.73L45.57 16.73Q42.54 16.73 40.06 18.21L40.06 18.21L40.06 18.21Q37.58 19.68 36.06 22.24L36.06 22.24L36.06 22.24Q34.55 24.80 34.55 27.96L34.55 27.96L34.55 27.96Q34.55 29.12 34.84 30.34L34.84 30.34L34.84 30.34Q35.13 31.56 35.70 32.57ZM24.11 47.62L24.11 47.62L24.11 47.62Q27.78 47.62 30.63 45.42L30.63 45.42L30.63 45.42Q33.47 43.23 34.41 39.84L34.41 39.84L34.41 39.84Q31.31 41.64 27.64 41.64L27.64 41.64L27.64 41.64Q24.62 41.64 21.92 40.42L21.92 40.42L21.92 40.42Q19.22 39.20 17.24 36.96L17.24 36.96L17.24 36.96Q15.26 34.73 14.39 31.85L14.39 31.85L14.39 31.85Q13.82 32.86 13.49 34.08L13.49 34.08L13.49 34.08Q13.17 35.31 13.17 36.60L13.17 36.60L13.17 36.60Q13.17 39.63 14.64 42.11L14.64 42.11L14.64 42.11Q16.12 44.60 18.60 46.11L18.60 46.11L18.60 46.11Q21.09 47.62 24.11 47.62ZM33.26 34.59L33.26 34.59L33.26 34.59Q32.32 32.93 31.85 31.24L31.85 31.24L31.85 31.24Q31.38 29.55 31.38 27.75L31.38 27.75L31.38 27.75Q31.38 24.58 32.68 21.84L32.68 21.84L32.68 21.84Q33.98 19.11 36.32 17.13L36.32 17.13L36.32 17.13Q38.66 15.15 41.75 14.43L41.75 14.43L41.75 14.43Q40.60 13.71 39.30 13.35L39.30 13.35L39.30 13.35Q38.01 12.99 36.57 12.99L36.57 12.99L36.57 12.99Q33.62 12.99 31.13 14.50L31.13 14.50L31.13 14.50Q28.65 16.01 27.21 18.53L27.21 18.53L27.21 18.53Q25.77 21.05 25.77 24.15L25.77 24.15L25.77 24.15Q25.77 27.75 27.89 30.63L27.89 30.63L27.89 30.63Q30.02 33.51 33.26 34.59ZM27.93 38.84L27.93 38.84L27.93 38.84Q29.30 38.84 30.59 38.51L30.59 38.51L30.59 38.51Q31.89 38.19 33.04 37.54L33.04 37.54L33.04 37.54Q30.02 36.75 27.64 34.80L27.64 34.80L27.64 34.80Q25.26 32.86 23.90 30.09L23.90 30.09L23.90 30.09Q22.53 27.32 22.53 24.15L22.53 24.15L22.53 24.15Q22.53 22.28 23.00 20.55L23.00 20.55L23.00 20.55Q23.46 18.82 24.33 17.31L24.33 17.31L24.33 17.31Q21.09 18.39 19 21.23L19 21.23L19 21.23Q16.91 24.08 16.91 27.68L16.91 27.68L16.91 27.68Q16.91 30.70 18.39 33.26L18.39 33.26L18.39 33.26Q19.86 35.81 22.35 37.32L22.35 37.32L22.35 37.32Q24.83 38.84 27.93 38.84Z" fill="#1A1A1C"></path></svg>