<svg width="86.38400000000001" height="86.38400000000001" viewBox="0 0 86.38400000000001 86.38400000000001" fill="none" xmlns="http://www.w3.org/2000/svg"><path d="M76.38 43.26L43.26 76.38L10.00 43.12L43.12 10L76.38 43.26ZM14.46 43.05L43.19 71.85L71.99 43.05L43.19 14.32L14.46 43.05ZM66.74 66.59L19.72 66.59L19.72 19.72L66.74 19.72L66.74 66.59ZM22.82 22.74L22.82 63.42L63.50 63.42L63.50 22.74L22.82 22.74ZM43.19 49.89L43.19 49.89L43.19 49.89Q40.38 49.89 38.37 47.87L38.37 47.87L38.37 47.87Q36.35 45.86 36.35 43.05L36.35 43.05L36.35 43.05Q36.35 40.24 38.37 38.22L38.37 38.22L38.37 38.22Q40.38 36.21 43.19 36.21L43.19 36.21L43.19 36.21Q46.00 36.21 48.02 38.22L48.02 38.22L48.02 38.22Q50.03 40.24 50.03 43.05L50.03 43.05L50.03 43.05Q50.03 45.86 48.02 47.87L48.02 47.87L48.02 47.87Q46.00 49.89 43.19 49.89ZM43.19 47.30L43.19 47.30L43.19 47.30Q44.99 47.30 46.22 46.00L46.22 46.00L46.22 46.00Q47.44 44.70 47.44 43.05L47.44 43.05L47.44 43.05Q47.44 41.25 46.22 39.99L46.22 39.99L46.22 39.99Q44.99 38.73 43.19 38.73L43.19 38.73L43.19 38.73Q41.39 38.73 40.17 39.99L40.17 39.99L40.17 39.99Q38.94 41.25 38.94 43.05L38.94 43.05L38.94 43.05Q38.94 44.70 40.17 46.00L40.17 46.00L40.17 46.00Q41.39 47.30 43.19 47.30Z" fill="#1A1A1C"></path></svg>