<svg width="71.40800000000002" height="71.40800000000002" viewBox="0 0 71.40800000000002 71.40800000000002" fill="none" xmlns="http://www.w3.org/2000/svg"><path d="M52.91 61.41L18.35 61.41L18.42 55.79L18.42 55.79Q20.01 54.93 20.91 53.96L20.91 53.96L20.91 53.96Q21.81 52.98 22.20 51.36L22.20 51.36L22.20 51.36Q22.60 49.74 22.67 46.94L22.67 46.94L22.67 33.83L22.67 33.83Q19.43 32.10 18.06 30.05L18.06 30.05L18.06 30.05Q16.70 28.00 16.70 24.40L16.70 24.40L16.70 24.40Q16.70 21.38 18.42 18.96L18.42 18.96L18.42 18.96Q20.15 16.55 23.00 14.79L23.00 14.79L23.00 14.79Q25.84 13.02 29.15 11.84L29.15 11.84L29.15 11.84Q32.46 10.65 35.56 10L35.56 10L35.56 10Q39.02 10.72 42.40 11.94L42.40 11.94L42.40 11.94Q45.78 13.17 48.59 14.93L48.59 14.93L48.59 14.93Q51.40 16.70 53.06 19L53.06 19L53.06 19Q54.71 21.30 54.71 24.18L54.71 24.18L54.71 24.18Q54.71 27.78 53.42 29.91L53.42 29.91L53.42 29.91Q52.12 32.03 48.81 33.76L48.81 33.76L48.81 46.94L48.81 46.94Q48.81 49.74 49.17 51.29L49.17 51.29L49.17 51.29Q49.53 52.84 50.39 53.78L50.39 53.78L50.39 53.78Q51.26 54.71 52.84 55.58L52.84 55.58L52.91 61.41ZM24.40 56.80L24.40 56.80L46.79 56.80L46.79 56.80Q44.99 55.29 44.49 53.02L44.49 53.02L44.49 53.02Q43.98 50.75 43.98 46.58L43.98 46.58L43.98 30.88L43.98 30.88Q46.29 29.66 47.73 28.29L47.73 28.29L47.73 28.29Q49.17 26.92 49.17 24.47L49.17 24.47L49.17 24.47Q49.17 22.10 47.04 20.19L47.04 20.19L47.04 20.19Q44.92 18.28 41.79 16.95L41.79 16.95L41.79 16.95Q38.66 15.62 35.56 15.04L35.56 15.04L35.56 15.04Q32.54 15.62 29.51 16.88L29.51 16.88L29.51 16.88Q26.49 18.14 24.44 19.97L24.44 19.97L24.44 19.97Q22.38 21.81 22.38 24.26L22.38 24.26L22.38 24.26Q22.38 26.70 23.79 28.22L23.79 28.22L23.79 28.22Q25.19 29.73 27.42 30.95L27.42 30.95L27.42 46.50L27.42 46.50Q27.42 49.74 26.85 52.34L26.85 52.34L26.85 52.34Q26.27 54.93 24.40 56.80Z" fill="#1A1A1C"></path></svg>