<svg width="81.20000000000002" height="81.20000000000002" viewBox="0 0 81.20000000000002 81.20000000000002" fill="none" xmlns="http://www.w3.org/2000/svg"><path d="M26.85 68.57L26.85 68.57L26.85 68.57Q22.31 68.57 18.46 66.92L18.46 66.92L18.46 66.92Q14.61 65.26 12.30 61.66L12.30 61.66L12.30 61.66Q10 58.06 10 52.37L10 52.37L10 52.37Q10 47.55 12.20 44.06L12.20 44.06L12.20 44.06Q14.39 40.56 18.10 38.66L18.10 38.66L18.10 38.66Q21.81 36.75 26.42 36.75L26.42 36.75L26.42 36.75Q25.34 35.52 24.36 33.40L24.36 33.40L24.36 33.40Q23.39 31.28 23.39 27.75L23.39 27.75L23.39 27.75Q23.39 22.64 25.88 19.29L25.88 19.29L25.88 19.29Q28.36 15.94 32.21 14.28L32.21 14.28L32.21 14.28Q36.06 12.63 40.24 12.63L40.24 12.63L40.24 12.63Q48.52 12.63 53.02 16.77L53.02 16.77L53.02 16.77Q57.52 20.91 57.52 28.18L57.52 28.18L57.52 28.18Q57.52 30.92 56.69 33.15L56.69 33.15L56.69 33.15Q55.86 35.38 54.64 36.75L54.64 36.75L54.64 36.75Q58.89 36.75 62.67 38.37L62.67 38.37L62.67 38.37Q66.45 39.99 68.82 43.44L68.82 43.44L68.82 43.44Q71.20 46.90 71.20 52.37L71.20 52.37L71.20 52.37Q71.20 59.64 66.84 64.11L66.84 64.11L66.84 64.11Q62.49 68.57 54.57 68.57L54.57 68.57L54.57 68.57Q49.82 68.57 46.22 67.13L46.22 67.13L46.22 67.13Q42.62 65.69 40.46 62.60L40.46 62.60L40.46 62.60Q38.22 65.69 34.62 67.13L34.62 67.13L34.62 67.13Q31.02 68.57 26.85 68.57ZM26.92 63.24L26.92 63.24L26.92 63.24Q29.80 63.24 32.28 62.16L32.28 62.16L32.28 62.16Q34.77 61.08 36.28 58.64L36.28 58.64L36.28 58.64Q37.79 56.19 37.79 52.23L37.79 52.23L43.41 52.23L43.41 52.23Q43.41 56.19 44.85 58.64L44.85 58.64L44.85 58.64Q46.29 61.08 48.70 62.16L48.70 62.16L48.70 62.16Q51.11 63.24 53.99 63.24L53.99 63.24L53.99 63.24Q56.94 63.24 59.43 62.13L59.43 62.13L59.43 62.13Q61.91 61.01 63.39 58.64L63.39 58.64L63.39 58.64Q64.86 56.26 64.86 52.44L64.86 52.44L64.86 52.44Q64.86 48.56 63.39 46.25L63.39 46.25L63.39 46.25Q61.91 43.95 59.43 42.90L59.43 42.90L59.43 42.90Q56.94 41.86 53.99 41.86L53.99 41.86L53.99 41.86Q51.26 41.86 49.31 42.58L49.31 42.58L46.07 38.04L46.07 38.04Q48.81 36.39 50.00 34.05L50.00 34.05L50.00 34.05Q51.18 31.71 51.18 28.54L51.18 28.54L51.18 28.54Q51.18 24.65 49.71 22.35L49.71 22.35L49.71 22.35Q48.23 20.04 45.75 19.00L45.75 19.00L45.75 19.00Q43.26 17.96 40.31 17.96L40.31 17.96L40.31 17.96Q37.36 17.96 34.95 19.00L34.95 19.00L34.95 19.00Q32.54 20.04 31.13 22.35L31.13 22.35L31.13 22.35Q29.73 24.65 29.73 28.54L29.73 28.54L29.73 28.54Q29.73 31.78 31.06 34.26L31.06 34.26L31.06 34.26Q32.39 36.75 35.13 38.33L35.13 38.33L32.03 42.80L32.03 42.80Q30.66 42.15 29.30 42.00L29.30 42.00L29.30 42.00Q27.93 41.86 26.92 41.86L26.92 41.86L26.92 41.86Q23.97 41.86 21.56 42.90L21.56 42.90L21.56 42.90Q19.14 43.95 17.74 46.25L17.74 46.25L17.74 46.25Q16.34 48.56 16.34 52.44L16.34 52.44L16.34 52.44Q16.34 58.13 19.43 60.69L19.43 60.69L19.43 60.69Q22.53 63.24 26.92 63.24ZM40.38 33.51L40.38 33.51L40.38 33.51Q38.58 33.51 37.29 32.36L37.29 32.36L37.29 32.36Q35.99 31.20 35.99 28.61L35.99 28.61L35.99 28.61Q35.99 25.95 37.29 24.87L37.29 24.87L37.29 24.87Q38.58 23.79 40.38 23.79L40.38 23.79L40.38 23.79Q42.26 23.79 43.59 24.87L43.59 24.87L43.59 24.87Q44.92 25.95 44.92 28.61L44.92 28.61L44.92 28.61Q44.92 31.20 43.59 32.36L43.59 32.36L43.59 32.36Q42.26 33.51 40.38 33.51ZM26.99 57.41L26.99 57.41L26.99 57.41Q25.19 57.41 23.90 56.26L23.90 56.26L23.90 56.26Q22.60 55.11 22.60 52.52L22.60 52.52L22.60 52.52Q22.60 49.85 23.90 48.77L23.90 48.77L23.90 48.77Q25.19 47.69 26.99 47.69L26.99 47.69L26.99 47.69Q28.86 47.69 30.20 48.77L30.20 48.77L30.20 48.77Q31.53 49.85 31.53 52.52L31.53 52.52L31.53 52.52Q31.53 55.11 30.20 56.26L30.20 56.26L30.20 56.26Q28.86 57.41 26.99 57.41ZM54.06 57.41L54.06 57.41L54.06 57.41Q52.26 57.41 50.97 56.26L50.97 56.26L50.97 56.26Q49.67 55.11 49.67 52.52L49.67 52.52L49.67 52.52Q49.67 49.85 50.97 48.77L50.97 48.77L50.97 48.77Q52.26 47.69 54.06 47.69L54.06 47.69L54.06 47.69Q55.94 47.69 57.27 48.77L57.27 48.77L57.27 48.77Q58.60 49.85 58.60 52.52L58.60 52.52L58.60 52.52Q58.60 55.11 57.27 56.26L57.27 56.26L57.27 56.26Q55.94 57.41 54.06 57.41Z" fill="#1A1A1C"></path></svg>