<svg width="85.73600000000002" height="85.73600000000002" viewBox="0 0 85.73600000000002 85.73600000000002" fill="none" xmlns="http://www.w3.org/2000/svg"><path d="M35.92 50.68L35.92 50.68L37.79 44.78L37.79 44.78Q46.22 44.78 52.30 44.34L52.30 44.34L52.30 44.34Q58.38 43.91 62.31 42.94L62.31 42.94L62.31 42.94Q66.23 41.97 68.14 40.28L68.14 40.28L68.14 40.28Q70.05 38.58 70.05 36.14L70.05 36.14L70.05 36.14Q70.05 33.40 69.04 29.80L69.04 29.80L69.04 29.80Q68.03 26.20 66.45 22.10L66.45 22.10L71.99 20.15L71.99 20.15Q72.93 22.46 73.76 25.08L73.76 25.08L73.76 25.08Q74.58 27.71 75.16 30.27L75.16 30.27L75.16 30.27Q75.74 32.82 75.74 34.98L75.74 34.98L75.74 34.98Q75.74 39.23 73.79 42.22L73.79 42.22L73.79 42.22Q71.85 45.21 67.31 47.08L67.31 47.08L67.31 47.08Q62.78 48.95 55.11 49.82L55.11 49.82L55.11 49.82Q47.44 50.68 35.92 50.68ZM39.23 48.38L35.92 50.68L35.92 50.68Q29.51 50.68 24.65 49.85L24.65 49.85L24.65 49.85Q19.79 49.02 16.55 47.30L16.55 47.30L16.55 47.30Q13.31 45.57 11.66 42.80L11.66 42.80L11.66 42.80Q10 40.02 10 36.06L10 36.06L10 36.06Q10 34.26 10.29 32.36L10.29 32.36L10.29 32.36Q10.58 30.45 11.04 28.50L11.04 28.50L11.04 28.50Q11.51 26.56 12.02 24.76L12.02 24.76L17.42 26.13L17.42 26.13Q17.13 27.21 16.77 28.68L16.77 28.68L16.77 28.68Q16.41 30.16 16.16 31.67L16.16 31.67L16.16 31.67Q15.90 33.18 15.90 34.41L15.90 34.41L15.90 34.41Q15.90 38.15 17.81 40.42L17.81 40.42L17.81 40.42Q19.72 42.69 24.47 43.73L24.47 43.73L24.47 43.73Q29.22 44.78 37.79 44.78L37.79 44.78L39.23 48.38ZM42.76 72.57L42.76 72.57L42.76 72.57Q41.32 72.57 40.28 71.49L40.28 71.49L40.28 71.49Q39.23 70.41 39.23 68.97L39.23 68.97L39.23 68.97Q39.23 67.53 40.28 66.48L40.28 66.48L40.28 66.48Q41.32 65.44 42.76 65.44L42.76 65.44L42.76 65.44Q44.27 65.44 45.32 66.48L45.32 66.48L45.32 66.48Q46.36 67.53 46.36 68.97L46.36 68.97L46.36 68.97Q46.36 70.41 45.32 71.49L45.32 71.49L45.32 71.49Q44.27 72.57 42.76 72.57ZM47.66 64.65L47.66 64.65L47.66 64.65Q46.22 64.65 45.17 63.57L45.17 63.57L45.17 63.57Q44.13 62.49 44.13 61.05L44.13 61.05L44.13 61.05Q44.13 59.61 45.17 58.56L45.17 58.56L45.17 58.56Q46.22 57.52 47.66 57.52L47.66 57.52L47.66 57.52Q49.17 57.52 50.21 58.56L50.21 58.56L50.21 58.56Q51.26 59.61 51.26 61.05L51.26 61.05L51.26 61.05Q51.26 62.49 50.21 63.57L50.21 63.57L50.21 63.57Q49.17 64.65 47.66 64.65ZM37.86 64.65L37.86 64.65L37.86 64.65Q36.42 64.65 35.38 63.57L35.38 63.57L35.38 63.57Q34.34 62.49 34.34 61.05L34.34 61.05L34.34 61.05Q34.34 59.61 35.38 58.56L35.38 58.56L35.38 58.56Q36.42 57.52 37.86 57.52L37.86 57.52L37.86 57.52Q39.38 57.52 40.42 58.56L40.42 58.56L40.42 58.56Q41.46 59.61 41.46 61.05L41.46 61.05L41.46 61.05Q41.46 62.49 40.42 63.57L40.42 63.57L40.42 63.57Q39.38 64.65 37.86 64.65ZM47.94 20.30L47.94 20.30L47.94 20.30Q46.43 20.30 45.39 19.25L45.39 19.25L45.39 19.25Q44.34 18.21 44.34 16.77L44.34 16.77L44.34 16.77Q44.34 15.33 45.39 14.25L45.39 14.25L45.39 14.25Q46.43 13.17 47.94 13.17L47.94 13.17L47.94 13.17Q49.38 13.17 50.43 14.25L50.43 14.25L50.43 14.25Q51.47 15.33 51.47 16.77L51.47 16.77L51.47 16.77Q51.47 18.21 50.43 19.25L50.43 19.25L50.43 19.25Q49.38 20.30 47.94 20.30ZM38.08 20.30L38.08 20.30L38.08 20.30Q36.57 20.30 35.52 19.25L35.52 19.25L35.52 19.25Q34.48 18.21 34.48 16.77L34.48 16.77L34.48 16.77Q34.48 15.33 35.52 14.25L35.52 14.25L35.52 14.25Q36.57 13.17 38.08 13.17L38.08 13.17L38.08 13.17Q39.52 13.17 40.56 14.25L40.56 14.25L40.56 14.25Q41.61 15.33 41.61 16.77L41.61 16.77L41.61 16.77Q41.61 18.21 40.56 19.25L40.56 19.25L40.56 19.25Q39.52 20.30 38.08 20.30Z" fill="#1A1A1C"></path></svg>