<svg width="47.504000000000005" height="47.504000000000005" viewBox="0 0 47.504000000000005 47.504000000000005" fill="none" xmlns="http://www.w3.org/2000/svg"><path d="M23.61 18.14L23.61 18.14L23.61 18.14Q22.10 18.14 21.09 17.20L21.09 17.20L21.09 17.20Q20.08 16.26 20.08 14.10L20.08 14.10L20.08 14.10Q20.08 12.02 21.02 11.01L21.02 11.01L21.02 11.01Q21.95 10 23.61 10L23.61 10L23.61 10Q25.48 10 26.42 11.01L26.42 11.01L26.42 11.01Q27.35 12.02 27.35 14.10L27.35 14.10L27.35 14.10Q27.35 16.05 26.38 17.09L26.38 17.09L26.38 17.09Q25.41 18.14 23.61 18.14ZM33.11 27.78L33.11 27.78L33.11 27.78Q31.53 27.78 30.52 26.88L30.52 26.88L30.52 26.88Q29.51 25.98 29.51 23.75L29.51 23.75L29.51 23.75Q29.51 21.74 30.48 20.73L30.48 20.73L30.48 20.73Q31.46 19.72 33.11 19.72L33.11 19.72L33.11 19.72Q34.91 19.72 35.88 20.73L35.88 20.73L35.88 20.73Q36.86 21.74 36.86 23.75L36.86 23.75L36.86 23.75Q36.86 25.77 35.85 26.78L35.85 26.78L35.85 26.78Q34.84 27.78 33.11 27.78ZM14.25 27.78L14.25 27.78L14.25 27.78Q12.66 27.78 11.66 26.88L11.66 26.88L11.66 26.88Q10.65 25.98 10.65 23.75L10.65 23.75L10.65 23.75Q10.65 21.74 11.58 20.73L11.58 20.73L11.58 20.73Q12.52 19.72 14.25 19.72L14.25 19.72L14.25 19.72Q16.05 19.72 16.98 20.73L16.98 20.73L16.98 20.73Q17.92 21.74 17.92 23.75L17.92 23.75L17.92 23.75Q17.92 25.77 16.95 26.78L16.95 26.78L16.95 26.78Q15.98 27.78 14.25 27.78ZM23.61 37.50L23.61 37.50L23.61 37.50Q22.10 37.50 21.09 36.60L21.09 36.60L21.09 36.60Q20.08 35.70 20.08 33.47L20.08 33.47L20.08 33.47Q20.08 31.46 21.02 30.41L21.02 30.41L21.02 30.41Q21.95 29.37 23.61 29.37L23.61 29.37L23.61 29.37Q25.48 29.37 26.42 30.41L26.42 30.41L26.42 30.41Q27.35 31.46 27.35 33.47L27.35 33.47L27.35 33.47Q27.35 35.49 26.38 36.50L26.38 36.50L26.38 36.50Q25.41 37.50 23.61 37.50Z" fill="#1A1A1C"></path></svg>