<svg width="94.66400000000002" height="94.66400000000002" viewBox="0 0 94.66400000000002 94.66400000000002" fill="none" xmlns="http://www.w3.org/2000/svg"><path d="M48.16 15.40L48.16 15.40L48.16 15.40Q55.29 15.40 61.26 16.44L61.26 16.44L61.26 16.44Q67.24 17.49 72.03 19.79L72.03 19.79L72.03 19.79Q76.82 22.10 80.20 25.98L80.20 25.98L80.20 25.98Q82.29 28.36 83.48 31.28L83.48 31.28L83.48 31.28Q84.66 34.19 84.66 37.72L84.66 37.72L84.66 37.72Q84.66 40.10 84.12 42.54L84.12 42.54L84.12 42.54Q83.58 44.99 82.22 47.04L82.22 47.04L82.22 47.04Q80.85 49.10 78.51 50.32L78.51 50.32L78.51 50.32Q76.17 51.54 72.57 51.54L72.57 51.54L72.57 51.54Q69.54 51.54 66.99 50.54L66.99 50.54L66.99 50.54Q64.43 49.53 62.92 47.30L62.92 47.30L62.92 47.30Q61.41 45.06 61.41 41.54L61.41 41.54L61.41 41.54Q61.41 39.88 61.88 37.86L61.88 37.86L61.88 37.86Q62.34 35.85 63.50 34.62L63.50 34.62L64.36 34.91L64.36 34.91Q60.54 37.00 58.67 39.95L58.67 39.95L58.67 39.95Q56.80 42.90 56.80 46.50L56.80 46.50L56.80 46.50Q56.80 49.10 57.52 51.08L57.52 51.08L57.52 51.08Q58.24 53.06 59.61 54.50L59.61 54.50L59.61 54.50Q61.05 56.01 63.03 56.98L63.03 56.98L63.03 56.98Q65.01 57.95 67.85 58.38L67.85 58.38L67.85 58.38Q70.70 58.82 74.73 58.82L74.73 58.82L80.56 58.82L80.56 63.93L74.30 63.93L74.30 63.93Q70.55 63.93 68.39 63.64L68.39 63.64L68.39 63.64Q66.23 63.35 64.65 62.92L64.65 62.92L64.65 62.92Q59.54 61.48 56.55 59.07L56.55 59.07L56.55 59.07Q53.56 56.66 52.26 53.56L52.26 53.56L52.26 53.56Q50.97 50.46 50.97 47.08L50.97 47.08L50.97 47.08Q50.97 43.55 52.37 40.46L52.37 40.46L52.37 40.46Q53.78 37.36 56.40 34.77L56.40 34.77L56.40 34.77Q59.03 32.18 62.56 30.38L62.56 30.38L68.39 33.18L68.39 33.18Q67.53 34.98 67.06 36.46L67.06 36.46L67.06 36.46Q66.59 37.94 66.59 40.24L66.59 40.24L66.59 40.24Q66.59 42.76 67.82 44.60L67.82 44.60L67.82 44.60Q69.04 46.43 72.57 46.43L72.57 46.43L72.57 46.43Q74.58 46.43 75.88 45.39L75.88 45.39L75.88 45.39Q77.18 44.34 77.82 42.54L77.82 42.54L77.82 42.54Q78.47 40.74 78.47 38.51L78.47 38.51L78.47 38.51Q78.47 32.90 74.98 28.97L74.98 28.97L74.98 28.97Q71.49 25.05 64.79 23.00L64.79 23.00L64.79 23.00Q58.10 20.94 48.30 20.94L48.30 20.94L48.30 20.94Q38.73 20.94 32.43 22.28L32.43 22.28L32.43 22.28Q26.13 23.61 22.49 25.66L22.49 25.66L22.49 25.66Q18.86 27.71 17.13 29.94L17.13 29.94L17.13 29.94Q16.41 31.38 16.05 33.00L16.05 33.00L16.05 33.00Q15.69 34.62 15.69 36.93L15.69 36.93L15.69 36.93Q15.69 39.74 16.70 41.57L16.70 41.57L16.70 41.57Q17.70 43.41 19.36 44.31L19.36 44.31L19.36 44.31Q21.02 45.21 22.82 45.21L22.82 45.21L22.82 45.21Q24.76 45.21 26.13 44.45L26.13 44.45L26.13 44.45Q27.50 43.70 28.22 42.29L28.22 42.29L28.22 42.29Q28.94 40.89 28.94 38.87L28.94 38.87L28.94 38.87Q28.94 35.70 27.24 33.98L27.24 33.98L27.24 33.98Q25.55 32.25 22.82 32.25L22.82 32.25L22.82 32.25Q20.73 32.25 18.82 33.26L18.82 33.26L18.82 33.26Q16.91 34.26 15.26 35.92L15.26 35.92L15.90 30.52L15.90 30.52Q17.49 29.08 19.65 28.14L19.65 28.14L19.65 28.14Q21.81 27.21 24.69 27.21L24.69 27.21L24.69 27.21Q27.64 27.21 29.94 28.50L29.94 28.50L29.94 28.50Q32.25 29.80 33.54 32.25L33.54 32.25L33.54 32.25Q34.84 34.70 34.84 38.22L34.84 38.22L34.84 38.22Q34.84 41.90 33.40 44.56L33.40 44.56L33.40 44.56Q31.96 47.22 29.22 48.66L29.22 48.66L29.22 48.66Q26.49 50.10 22.46 50.10L22.46 50.10L22.46 50.10Q19.36 50.10 16.52 48.56L16.52 48.56L16.52 48.56Q13.67 47.01 11.84 43.95L11.84 43.95L11.84 43.95Q10 40.89 10 36.42L10 36.42L10 36.42Q10 32.25 11.76 28.94L11.76 28.94L11.76 28.94Q13.53 25.62 16.55 23.18L16.55 23.18L16.55 23.18Q20.58 19.94 25.52 18.28L25.52 18.28L25.52 18.28Q30.45 16.62 36.14 16.01L36.14 16.01L36.14 16.01Q41.82 15.40 48.16 15.40ZM12.66 65.58L12.66 65.58L12.66 65.58Q12.66 63.50 13.56 60.40L13.56 60.40L13.56 60.40Q14.46 57.30 16.41 54.64L16.41 54.64L21.38 57.16L21.38 57.16Q19.72 59.61 19.14 61.80L19.14 61.80L19.14 61.80Q18.57 64.00 18.57 65.66L18.57 65.66L18.57 65.66Q18.57 69.04 20.80 70.88L20.80 70.88L20.80 70.88Q23.03 72.71 26.99 73.40L26.99 73.40L26.99 73.40Q30.95 74.08 35.99 74.08L35.99 74.08L35.99 74.08Q41.82 74.08 45.78 73.50L45.78 73.50L45.78 73.50Q49.74 72.93 52.48 71.49L52.48 71.49L52.48 71.49Q55.22 70.05 57.23 67.56L57.23 67.56L57.23 67.56Q59.25 65.08 61.12 61.19L61.12 61.19L67.17 63.28L65.80 65.73L65.80 65.73Q63.57 69.83 60.98 72.50L60.98 72.50L60.98 72.50Q58.38 75.16 54.96 76.64L54.96 76.64L54.96 76.64Q51.54 78.11 46.90 78.69L46.90 78.69L46.90 78.69Q42.26 79.26 35.99 79.26L35.99 79.26L35.78 79.26L35.78 79.26Q24.47 79.26 18.57 76.10L18.57 76.10L18.57 76.10Q12.66 72.93 12.66 65.58ZM42.83 52.62L42.83 52.62L42.83 52.62Q44.70 52.62 46.25 53.34L46.25 53.34L46.25 53.34Q47.80 54.06 48.88 55.50L48.88 55.50L48.88 55.50Q49.96 56.87 50.50 58.49L50.50 58.49L50.50 58.49Q51.04 60.11 51.04 61.98L51.04 61.98L51.04 61.98Q51.04 64.14 50.36 65.58L50.36 65.58L50.36 65.58Q49.67 67.02 48.66 67.82L48.66 67.82L48.66 67.82Q47.51 68.75 46.00 69.15L46.00 69.15L46.00 69.15Q44.49 69.54 41.90 69.54L41.90 69.54L26.34 69.54L26.34 53.13L30.74 53.13L30.74 66.16L36.71 66.16L36.71 59.68L36.71 59.68Q36.71 57.09 37.22 55.79L37.22 55.79L37.22 55.79Q37.72 54.50 38.94 53.63L38.94 53.63L38.94 53.63Q39.74 53.13 40.67 52.88L40.67 52.88L40.67 52.88Q41.61 52.62 42.83 52.62ZM42.83 56.15L42.83 56.15L42.83 56.15Q41.97 56.15 41.50 56.69L41.50 56.69L41.50 56.69Q41.03 57.23 41.03 58.31L41.03 58.31L41.03 66.16L43.05 66.16L43.05 66.16Q45.14 66.16 45.89 65.08L45.89 65.08L45.89 65.08Q46.65 64.00 46.65 61.91L46.65 61.91L46.65 61.91Q46.65 60.18 46.18 58.89L46.18 58.89L46.18 58.89Q45.71 57.59 44.85 56.87L44.85 56.87L44.85 56.87Q43.98 56.15 42.83 56.15ZM41.54 49.38L41.54 49.38L41.54 49.38Q40.17 49.38 39.27 48.48L39.27 48.48L39.27 48.48Q38.37 47.58 38.37 46.22L38.37 46.22L38.37 46.22Q38.37 44.78 39.27 43.88L39.27 43.88L39.27 43.88Q40.17 42.98 41.54 42.98L41.54 42.98L41.54 42.98Q42.98 42.98 43.88 43.88L43.88 43.88L43.88 43.88Q44.78 44.78 44.78 46.22L44.78 46.22L44.78 46.22Q44.78 47.58 43.88 48.48L43.88 48.48L43.88 48.48Q42.98 49.38 41.54 49.38Z" fill="#1A1A1C"></path></svg>