<svg width="170.62400000000002" height="170.62400000000002" viewBox="0 0 170.62400000000002 170.62400000000002" fill="none" xmlns="http://www.w3.org/2000/svg"><path d="M73.22 48.95L73.22 48.95L73.22 48.95Q62.06 48.95 53.02 50.32L53.02 50.32L53.02 50.32Q43.98 51.69 37.11 54.46L37.11 54.46L37.11 54.46Q30.23 57.23 25.62 61.48L25.62 61.48L25.62 61.48Q21.02 65.73 18.68 71.49L18.68 71.49L18.68 71.49Q16.34 77.25 16.34 84.59L16.34 84.59L16.34 85.46L16.34 85.46Q16.34 90.57 17.56 95.25L17.56 95.25L17.56 95.25Q18.78 99.93 21.41 103.96L21.41 103.96L21.41 103.96Q24.04 107.99 28.29 111.27L28.29 111.27L28.29 111.27Q32.54 114.54 38.58 116.85L38.58 116.85L38.58 116.85Q44.63 119.15 52.62 120.41L52.62 120.41L52.62 120.41Q60.62 121.67 70.84 121.67L70.84 121.67L72.28 121.67L72.28 121.67Q80.70 121.67 87.76 120.81L87.76 120.81L87.76 120.81Q94.82 119.94 100.36 118.11L100.36 118.11L100.36 118.11Q105.90 116.27 109.76 113.36L109.76 113.36L109.76 113.36Q113.61 110.44 115.62 106.34L115.62 106.34L115.62 106.34Q117.64 102.23 117.64 96.90L117.64 96.90L117.64 96.90Q117.64 93.88 116.70 91.50L116.70 91.50L116.70 91.50Q115.77 89.13 114.04 87.72L114.04 87.72L114.04 87.72Q112.31 86.32 109.79 86.32L109.79 86.32L109.79 86.32Q108.50 86.32 107.31 86.64L107.31 86.64L107.31 86.64Q106.12 86.97 105.11 87.54L105.11 87.54L105.11 104.10L98.92 104.10L98.92 69.40L87.40 69.40L87.40 104.10L81.21 104.10L81.21 64.22L116.56 64.22L116.56 69.40L105.11 69.40L105.11 82.36L105.11 82.36Q106.34 81.78 107.74 81.46L107.74 81.46L107.74 81.46Q109.14 81.14 110.87 81.14L110.87 81.14L110.87 81.14Q114.04 81.14 116.45 82.36L116.45 82.36L116.45 82.36Q118.86 83.58 120.56 85.74L120.56 85.74L120.56 85.74Q122.25 87.90 123.11 90.68L123.11 90.68L123.11 90.68Q123.98 93.45 123.98 96.54L123.98 96.54L123.98 96.54Q123.98 102.16 122.21 106.66L122.21 106.66L122.21 106.66Q120.45 111.16 117.14 114.54L117.14 114.54L117.14 114.54Q113.82 117.93 109.22 120.34L109.22 120.34L109.22 120.34Q104.61 122.75 98.92 124.26L98.92 124.26L98.92 124.26Q93.23 125.78 86.64 126.50L86.64 126.50L86.64 126.50Q80.06 127.22 72.86 127.22L72.86 127.22L70.41 127.22L70.41 127.22Q59.61 127.22 50.93 125.85L50.93 125.85L50.93 125.85Q42.26 124.48 35.56 121.85L35.56 121.85L35.56 121.85Q28.86 119.22 24.04 115.59L24.04 115.59L24.04 115.59Q19.22 111.95 16.08 107.42L16.08 107.42L16.08 107.42Q12.95 102.88 11.48 97.55L11.48 97.55L11.48 97.55Q10 92.22 10 86.39L10 86.39L10 83.73L10 83.73Q10 77.25 11.98 71.27L11.98 71.27L11.98 71.27Q13.96 65.30 18.32 60.22L18.32 60.22L18.32 60.22Q22.67 55.14 29.87 51.36L29.87 51.36L29.87 51.36Q37.07 47.58 47.44 45.50L47.44 45.50L47.44 45.50Q57.81 43.41 71.85 43.41L71.85 43.41L75.81 43.41L75.81 43.41Q85.02 43.41 92.44 44.20L92.44 44.20L92.44 44.20Q99.86 44.99 105.69 46.43L105.69 46.43L105.69 46.43Q111.52 47.87 115.98 49.85L115.98 49.85L115.98 49.85Q120.45 51.83 123.76 54.21L123.76 54.21L123.76 54.21Q128.22 57.45 130.82 61.26L130.82 61.26L130.82 61.26Q133.41 65.08 134.63 69.18L134.63 69.18L134.63 69.18Q135.86 73.29 136.25 77.39L136.25 77.39L136.25 77.39Q136.65 81.50 136.65 85.31L136.65 85.31L136.65 85.31Q136.65 88.12 136.90 90.35L136.90 90.35L136.90 90.35Q137.15 92.58 137.80 94.28L137.80 94.28L137.80 94.28Q138.45 95.97 139.60 97.26L139.60 97.26L139.60 97.26Q140.68 98.42 142.19 99.03L142.19 99.03L142.19 99.03Q143.70 99.64 145.79 99.64L145.79 99.64L145.79 99.64Q148.17 99.64 150.11 98.49L150.11 98.49L150.11 98.49Q152.06 97.34 153.21 94.60L153.21 94.60L153.21 94.60Q154.36 91.86 154.36 87.04L154.36 87.04L154.36 87.04Q154.36 82.29 153.21 78.26L153.21 78.26L153.21 78.26Q152.06 74.22 150.00 70.88L150.00 70.88L150.00 70.88Q147.95 67.53 145.36 64.72L145.36 64.72L150.98 60.90L150.98 60.90Q155.44 66.59 158.03 72.86L158.03 72.86L158.03 72.86Q160.62 79.12 160.62 86.54L160.62 86.54L160.62 86.54Q160.62 92.66 158.86 96.76L158.86 96.76L158.86 96.76Q157.10 100.86 153.71 102.92L153.71 102.92L153.71 102.92Q150.33 104.97 145.29 104.97L145.29 104.97L145.29 104.97Q142.19 104.97 139.64 104.07L139.64 104.07L139.64 104.07Q137.08 103.17 135.21 101.37L135.21 101.37L135.21 101.37Q132.90 99.21 131.64 95.36L131.64 95.36L131.64 95.36Q130.38 91.50 130.38 86.54L130.38 86.54L130.38 86.54Q130.38 79.41 129.12 74.04L129.12 74.04L129.12 74.04Q127.86 68.68 125.16 64.61L125.16 64.61L125.16 64.61Q122.46 60.54 118.14 57.59L118.14 57.59L118.14 57.59Q114.76 55.29 110.33 53.67L110.33 53.67L110.33 53.67Q105.90 52.05 100.36 51.00L100.36 51.00L100.36 51.00Q94.82 49.96 88.05 49.46L88.05 49.46L88.05 49.46Q81.28 48.95 73.22 48.95ZM41.39 104.97L41.39 104.97L41.39 104.97Q37.58 104.97 34.41 103.06L34.41 103.06L34.41 103.06Q31.24 101.15 29.40 97.12L29.40 97.12L29.40 97.12Q27.57 93.09 27.57 86.61L27.57 86.61L27.57 86.61Q27.57 78.90 30.63 73.72L30.63 73.72L30.63 73.72Q33.69 68.54 38.73 65.94L38.73 65.94L38.73 65.94Q43.77 63.35 49.67 63.35L49.67 63.35L49.67 63.35Q55.14 63.35 59.07 64.97L59.07 64.97L59.07 64.97Q62.99 66.59 65.48 69.44L65.48 69.44L65.48 69.44Q67.96 72.28 69.15 75.99L69.15 75.99L69.15 75.99Q70.34 79.70 70.34 83.94L70.34 83.94L70.34 83.94Q70.34 88.55 69.36 92.15L69.36 92.15L69.36 92.15Q68.39 95.75 66.88 98.92L66.88 98.92L82.65 98.92L82.65 104.10L60.54 104.10L60.26 99.57L60.26 99.57Q61.91 97.05 62.96 93.34L62.96 93.34L62.96 93.34Q64 89.63 64 84.74L64 84.74L64 84.74Q64 79.62 62.20 76.02L62.20 76.02L62.20 76.02Q60.40 72.42 57.12 70.55L57.12 70.55L57.12 70.55Q53.85 68.68 49.38 68.68L49.38 68.68L49.38 68.68Q44.34 68.68 40.74 71.09L40.74 71.09L40.74 71.09Q37.14 73.50 35.20 77.64L35.20 77.64L35.20 77.64Q33.26 81.78 33.26 87.04L33.26 87.04L33.26 87.04Q33.26 91.86 34.37 94.71L34.37 94.71L34.37 94.71Q35.49 97.55 37.43 98.81L37.43 98.81L37.43 98.81Q39.38 100.07 41.68 100.07L41.68 100.07L41.68 100.07Q43.55 100.07 44.96 99.24L44.96 99.24L44.96 99.24Q46.36 98.42 47.15 96.83L47.15 96.83L47.15 96.83Q47.94 95.25 47.94 92.94L47.94 92.94L47.94 92.94Q47.94 89.34 46.07 87.44L46.07 87.44L46.07 87.44Q44.20 85.53 41.18 85.53L41.18 85.53L41.18 85.53Q38.37 85.53 35.85 87.04L35.85 87.04L35.85 87.04Q33.33 88.55 31.24 90.86L31.24 90.86L30.16 86.25L30.16 86.25Q32.32 83.73 35.52 82.11L35.52 82.11L35.52 82.11Q38.73 80.49 42.26 80.49L42.26 80.49L42.26 80.49Q47.44 80.49 50.64 83.66L50.64 83.66L50.64 83.66Q53.85 86.82 53.85 92.22L53.85 92.22L53.85 92.22Q53.85 96.18 52.34 99.06L52.34 99.06L52.34 99.06Q50.82 101.94 48.05 103.46L48.05 103.46L48.05 103.46Q45.28 104.97 41.39 104.97Z" fill="#1A1A1C"></path></svg>