<svg width="107.552" height="107.55199999999999" viewBox="0 0 107.552 107.55199999999999" fill="none" xmlns="http://www.w3.org/2000/svg"><path d="M89.85 70.23L89.85 70.23L89.85 70.23Q86.97 70.23 84.95 68.82L84.95 68.82L84.95 68.82Q82.94 67.42 81.86 65.12L81.86 65.12L81.86 65.12Q80.78 62.81 80.56 60.22L80.56 60.22L82.72 58.71L82.72 58.71Q81.86 59.64 80.42 61.05L80.42 61.05L80.42 61.05Q78.98 62.45 77.50 63.96L77.50 63.96L77.50 63.96Q76.02 65.48 74.87 66.92L74.87 66.92L71.49 65.76L71.49 65.76Q71.85 63.46 72.17 61.37L72.17 61.37L72.17 61.37Q72.50 59.28 72.89 57.27L72.89 57.27L72.89 57.27Q73.29 55.25 73.72 53.31L73.72 53.31L76.17 52.59L76.17 52.59Q75.02 53.67 73.65 55.04L73.65 55.04L73.65 55.04Q72.28 56.40 70.95 57.77L70.95 57.77L70.95 57.77Q69.62 59.14 68.46 60.36L68.46 60.36L68.46 60.36Q67.31 61.59 66.59 62.45L66.59 62.45L63.35 61.23L64.65 45.68L65.22 46.90L65.22 46.90Q64.43 47.98 63.35 49.46L63.35 49.46L63.35 49.46Q62.27 50.93 61.12 52.66L61.12 52.66L61.12 52.66Q59.97 54.39 58.85 56.19L58.85 56.19L58.85 56.19Q57.74 57.99 56.73 59.64L56.73 59.64L54.06 58.92L52.98 45.03L54.06 44.31L54.06 44.31Q53.20 46.04 52.08 48.34L52.08 48.34L52.08 48.34Q50.97 50.64 49.89 53.16L49.89 53.16L49.89 53.16Q48.81 55.68 47.84 58.06L47.84 58.06L47.84 58.06Q46.86 60.44 46.29 62.16L46.29 62.16L42.90 61.16L42.90 61.16Q42.18 57.77 41.50 54.82L41.50 54.82L41.50 54.82Q40.82 51.87 40.17 49.28L40.17 49.28L41.68 48.56L41.68 48.56Q40.17 51.65 38.76 54.82L38.76 54.82L38.76 54.82Q37.36 57.99 36.21 60.83L36.21 60.83L36.21 60.83Q35.06 63.68 34.26 65.76L34.26 65.76L31.24 65.04L31.24 65.04Q31.17 64.40 30.95 63.42L30.95 63.42L30.95 63.42Q30.74 62.45 30.48 61.23L30.48 61.23L30.48 61.23Q30.23 60.00 29.94 58.71L29.94 58.71L30.52 57.70L30.52 57.70Q28.86 61.88 26.99 64.58L26.99 64.58L26.99 64.58Q25.12 67.28 23.07 68.57L23.07 68.57L23.07 68.57Q21.02 69.87 18.57 69.87L18.57 69.87L18.57 69.87Q16.05 69.87 14.36 68.93L14.36 68.93L14.36 68.93Q12.66 68.00 11.62 66.34L11.62 66.34L11.62 66.34Q10.58 64.68 10 62.67L10 62.67L14.97 61.23L14.97 61.23Q15.40 63.46 16.52 64.22L16.52 64.22L16.52 64.22Q17.63 64.97 18.57 64.97L18.57 64.97L18.57 64.97Q19.72 64.97 20.87 64.43L20.87 64.43L20.87 64.43Q22.02 63.89 23.25 62.38L23.25 62.38L23.25 62.38Q24.47 60.87 25.77 58.02L25.77 58.02L25.77 58.02Q27.06 55.18 28.58 50.64L28.58 50.64L31.74 51.00L31.74 51.00Q31.96 52.23 32.32 53.85L32.32 53.85L32.32 53.85Q32.68 55.47 33.08 57.05L33.08 57.05L33.08 57.05Q33.47 58.64 33.90 59.86L33.90 59.86L32.68 59.36L32.68 59.36Q33.76 56.48 35.09 53.13L35.09 53.13L35.09 53.13Q36.42 49.78 37.72 46.65L37.72 46.65L37.72 46.65Q39.02 43.52 39.95 41.43L39.95 41.43L43.26 42.22L43.26 42.22Q43.41 43.37 43.66 45.03L43.66 45.03L43.66 45.03Q43.91 46.68 44.27 48.45L44.27 48.45L44.27 48.45Q44.63 50.21 44.99 51.94L44.99 51.94L44.99 51.94Q45.35 53.67 45.64 55.04L45.64 55.04L44.42 55.18L44.42 55.18Q45.28 52.95 46.50 50.39L46.50 50.39L46.50 50.39Q47.73 47.84 48.99 45.39L48.99 45.39L48.99 45.39Q50.25 42.94 51.44 40.82L51.44 40.82L51.44 40.82Q52.62 38.69 53.49 37.32L53.49 37.32L56.87 38.12L56.87 38.12Q56.94 40.28 57.12 43.26L57.12 43.26L57.12 43.26Q57.30 46.25 57.52 49.13L57.52 49.13L57.52 49.13Q57.74 52.01 57.88 54.10L57.88 54.10L56.58 53.02L56.58 53.02Q58.46 50.21 60.36 47.55L60.36 47.55L60.36 47.55Q62.27 44.88 63.96 42.72L63.96 42.72L63.96 42.72Q65.66 40.56 66.81 39.34L66.81 39.34L70.05 40.28L70.05 40.28Q69.76 42.44 69.36 45.57L69.36 45.57L69.36 45.57Q68.97 48.70 68.64 51.90L68.64 51.90L68.64 51.90Q68.32 55.11 68.18 57.70L68.18 57.70L66.59 56.91L66.59 56.91Q67.17 56.26 68.32 55.04L68.32 55.04L68.32 55.04Q69.47 53.81 70.88 52.37L70.88 52.37L70.88 52.37Q72.28 50.93 73.72 49.53L73.72 49.53L73.72 49.53Q75.16 48.12 76.31 47.04L76.31 47.04L79.26 48.05L79.26 48.05Q78.83 49.71 78.40 51.62L78.40 51.62L78.40 51.62Q77.97 53.52 77.57 55.54L77.57 55.54L77.57 55.54Q77.18 57.56 76.89 59.43L76.89 59.43L76.89 59.43Q76.60 61.30 76.38 62.96L76.38 62.96L75.59 61.44L75.59 61.44Q76.38 60.36 77.54 59.14L77.54 59.14L77.54 59.14Q78.69 57.92 79.91 56.73L79.91 56.73L79.91 56.73Q81.14 55.54 82.00 54.82L82.00 54.82L84.88 55.90L84.88 55.90Q84.95 60.29 85.82 62.88L85.82 62.88L85.82 62.88Q86.68 65.48 89.42 65.48L89.42 65.48L89.42 65.48Q90.86 65.48 91.68 64.76L91.68 64.76L91.68 64.76Q92.51 64.04 92.51 62.31L92.51 62.31L92.51 62.31Q92.51 61.88 92.51 61.37L92.51 61.37L92.51 61.37Q92.51 60.87 92.37 60.44L92.37 60.44L97.19 59.64L97.19 59.64Q97.41 60.51 97.48 61.34L97.48 61.34L97.48 61.34Q97.55 62.16 97.55 62.81L97.55 62.81L97.55 62.81Q97.55 66.77 95.18 68.50L95.18 68.50L95.18 68.50Q92.80 70.23 89.85 70.23Z" fill="#1A1A1C"></path></svg>