<svg width="70.4" height="70.4" viewBox="0 0 70.4 70.4" fill="none" xmlns="http://www.w3.org/2000/svg"><path d="M35.20 60.40L35.20 60.40L35.20 60.40Q30.02 60.40 25.44 58.46L25.44 58.46L25.44 58.46Q20.87 56.51 17.38 53.02L17.38 53.02L17.38 53.02Q13.89 49.53 11.94 44.96L11.94 44.96L11.94 44.96Q10 40.38 10 35.20L10 35.20L10 35.20Q10 30.02 11.94 25.44L11.94 25.44L11.94 25.44Q13.89 20.87 17.38 17.38L17.38 17.38L17.38 17.38Q20.87 13.89 25.44 11.94L25.44 11.94L25.44 11.94Q30.02 10 35.20 10L35.20 10L35.20 10Q40.38 10 44.96 11.94L44.96 11.94L44.96 11.94Q49.53 13.89 53.02 17.38L53.02 17.38L53.02 17.38Q56.51 20.87 58.46 25.44L58.46 25.44L58.46 25.44Q60.40 30.02 60.40 35.20L60.40 35.20L60.40 35.20Q60.40 40.38 58.46 44.96L58.46 44.96L58.46 44.96Q56.51 49.53 53.02 53.02L53.02 53.02L53.02 53.02Q49.53 56.51 44.96 58.46L44.96 58.46L44.96 58.46Q40.38 60.40 35.20 60.40ZM35.20 56.80L35.20 56.80L35.20 56.80Q39.66 56.80 43.59 55.11L43.59 55.11L43.59 55.11Q47.51 53.42 50.46 50.46L50.46 50.46L50.46 50.46Q53.42 47.51 55.11 43.59L55.11 43.59L55.11 43.59Q56.80 39.66 56.80 35.20L56.80 35.20L56.80 35.20Q56.80 30.74 55.11 26.81L55.11 26.81L55.11 26.81Q53.42 22.89 50.46 19.94L50.46 19.94L50.46 19.94Q47.51 16.98 43.59 15.29L43.59 15.29L43.59 15.29Q39.66 13.60 35.20 13.60L35.20 13.60L35.20 13.60Q30.74 13.60 26.81 15.29L26.81 15.29L26.81 15.29Q22.89 16.98 19.94 19.94L19.94 19.94L19.94 19.94Q16.98 22.89 15.29 26.81L15.29 26.81L15.29 26.81Q13.60 30.74 13.60 35.20L13.60 35.20L13.60 35.20Q13.60 39.66 15.29 43.59L15.29 43.59L15.29 43.59Q16.98 47.51 19.94 50.46L19.94 50.46L19.94 50.46Q22.89 53.42 26.81 55.11L26.81 55.11L26.81 55.11Q30.74 56.80 35.20 56.80ZM56.80 35.20L58.96 35.20L58.96 35.20Q58.46 40.96 55.58 44.16L55.58 44.16L55.58 44.16Q52.70 47.37 47.94 47.37L47.94 47.37L47.94 47.37Q42.69 47.37 39.23 44.56L39.23 44.56L39.23 44.56Q35.78 41.75 33.54 35.85L33.54 35.85L33.54 35.85Q31.74 30.88 29.15 28.76L29.15 28.76L29.15 28.76Q26.56 26.63 22.46 26.63L22.46 26.63L22.46 26.63Q18.50 26.63 16.05 29.04L16.05 29.04L16.05 29.04Q13.60 31.46 13.60 35.20L13.60 35.20L11.44 35.20L11.44 35.20Q12.02 29.44 14.86 26.24L14.86 26.24L14.86 26.24Q17.70 23.03 22.46 23.03L22.46 23.03L22.46 23.03Q27.71 23.03 31.17 25.80L31.17 25.80L31.17 25.80Q34.62 28.58 36.86 34.55L36.86 34.55L36.86 34.55Q38.73 39.52 41.28 41.64L41.28 41.64L41.28 41.64Q43.84 43.77 47.94 43.77L47.94 43.77L47.94 43.77Q51.90 43.77 54.35 41.36L54.35 41.36L54.35 41.36Q56.80 38.94 56.80 35.20L56.80 35.20ZM44.78 36.64L44.78 36.64L44.78 36.64Q44.78 35.13 45.82 34.08L45.82 34.08L45.82 34.08Q46.86 33.04 48.38 33.04L48.38 33.04L48.38 33.04Q49.89 33.04 50.93 34.08L50.93 34.08L50.93 34.08Q51.98 35.13 51.98 36.64L51.98 36.64L51.98 36.64Q51.98 38.15 50.93 39.20L50.93 39.20L50.93 39.20Q49.89 40.24 48.38 40.24L48.38 40.24L48.38 40.24Q46.86 40.24 45.82 39.20L45.82 39.20L45.82 39.20Q44.78 38.15 44.78 36.64ZM18.42 33.76L18.42 33.76L18.42 33.76Q18.42 32.25 19.47 31.20L19.47 31.20L19.47 31.20Q20.51 30.16 22.02 30.16L22.02 30.16L22.02 30.16Q23.54 30.16 24.58 31.20L24.58 31.20L24.58 31.20Q25.62 32.25 25.62 33.76L25.62 33.76L25.62 33.76Q25.62 35.27 24.58 36.32L24.58 36.32L24.58 36.32Q23.54 37.36 22.02 37.36L22.02 37.36L22.02 37.36Q20.51 37.36 19.47 36.32L19.47 36.32L19.47 36.32Q18.42 35.27 18.42 33.76ZM35.20 56.80L35.20 58.96L35.20 58.96Q29.44 58.38 26.24 55.54L26.24 55.54L26.24 55.54Q23.03 52.70 23.03 47.94L23.03 47.94L23.03 47.94Q23.03 42.69 25.84 39.23L25.84 39.23L25.84 39.23Q28.65 35.78 34.55 33.54L34.55 33.54L34.55 33.54Q39.52 31.67 41.64 29.12L41.64 29.12L41.64 29.12Q43.77 26.56 43.77 22.46L43.77 22.46L43.77 22.46Q43.77 18.50 41.36 16.05L41.36 16.05L41.36 16.05Q38.94 13.60 35.20 13.60L35.20 13.60L35.20 11.44L35.20 11.44Q40.96 11.94 44.16 14.82L44.16 14.82L44.16 14.82Q47.37 17.70 47.37 22.46L47.37 22.46L47.37 22.46Q47.37 27.71 44.60 31.17L44.60 31.17L44.60 31.17Q41.82 34.62 35.85 36.86L35.85 36.86L35.85 36.86Q30.88 38.66 28.76 41.25L28.76 41.25L28.76 41.25Q26.63 43.84 26.63 47.94L26.63 47.94L26.63 47.94Q26.63 51.90 29.04 54.35L29.04 54.35L29.04 54.35Q31.46 56.80 35.20 56.80L35.20 56.80ZM33.76 44.78L33.76 44.78L33.76 44.78Q35.27 44.78 36.32 45.82L36.32 45.82L36.32 45.82Q37.36 46.86 37.36 48.38L37.36 48.38L37.36 48.38Q37.36 49.89 36.32 50.93L36.32 50.93L36.32 50.93Q35.27 51.98 33.76 51.98L33.76 51.98L33.76 51.98Q32.25 51.98 31.20 50.93L31.20 50.93L31.20 50.93Q30.16 49.89 30.16 48.38L30.16 48.38L30.16 48.38Q30.16 46.86 31.20 45.82L31.20 45.82L31.20 45.82Q32.25 44.78 33.76 44.78ZM36.64 18.42L36.64 18.42L36.64 18.42Q38.15 18.42 39.20 19.47L39.20 19.47L39.20 19.47Q40.24 20.51 40.24 22.02L40.24 22.02L40.24 22.02Q40.24 23.54 39.20 24.58L39.20 24.58L39.20 24.58Q38.15 25.62 36.64 25.62L36.64 25.62L36.64 25.62Q35.13 25.62 34.08 24.58L34.08 24.58L34.08 24.58Q33.04 23.54 33.04 22.02L33.04 22.02L33.04 22.02Q33.04 20.51 34.08 19.47L34.08 19.47L34.08 19.47Q35.13 18.42 36.64 18.42Z" fill="#1A1A1C"></path></svg>