<svg width="76.952" height="76.952" viewBox="0 0 76.952 76.952" fill="none" xmlns="http://www.w3.org/2000/svg"><path d="M53.63 42.58L47.30 50.72L42.98 48.05L49.02 39.99L40.24 34.66L43.05 30.70L50.90 35.45L50.90 26.24L56.30 26.24L56.30 35.45L64.14 30.70L66.95 34.66L58.17 39.99L64.22 48.05L59.90 50.72L53.63 42.58ZM23.39 42.58L17.06 50.72L12.74 48.05L18.78 39.99L10 34.66L12.81 30.70L20.66 35.45L20.66 26.24L26.06 26.24L26.06 35.45L33.90 30.70L36.71 34.66L28.00 39.99L34.05 48.05L29.66 50.72L23.39 42.58Z" fill="#1A1A1C"></path></svg>