<svg width="71.40800000000002" height="71.40800000000002" viewBox="0 0 71.40800000000002 71.40800000000002" fill="none" xmlns="http://www.w3.org/2000/svg"><path d="M21.70 61.41L15.22 61.41L15.22 10L21.70 10L21.70 23.97L21.70 23.97Q25.30 23.97 27.93 22.10L27.93 22.10L27.93 22.10Q30.56 20.22 32.00 17.20L32.00 17.20L32.00 17.20Q33.44 14.18 33.44 10.72L33.44 10.72L33.44 10L40.28 10L40.28 10.79L40.28 10.79Q40.28 14.75 38.80 18.17L38.80 18.17L38.80 18.17Q37.32 21.59 34.73 24.18L34.73 24.18L34.73 24.18Q32.14 26.78 28.79 28.25L28.79 28.25L28.79 28.25Q25.44 29.73 21.70 29.73L21.70 29.73L21.70 37.72L21.70 37.72Q27.46 37.72 32.46 35.85L32.46 35.85L32.46 35.85Q37.47 33.98 41.25 30.45L41.25 30.45L41.25 30.45Q45.03 26.92 47.19 21.95L47.19 21.95L47.19 21.95Q49.35 16.98 49.35 10.72L49.35 10.72L49.35 10L56.19 10L56.19 10.79L56.19 10.79Q56.19 18.42 53.60 24.47L53.60 24.47L53.60 24.47Q51.00 30.52 46.32 34.77L46.32 34.77L46.32 34.77Q41.64 39.02 35.34 41.25L35.34 41.25L35.34 41.25Q29.04 43.48 21.70 43.48L21.70 43.48L21.70 61.41Z" fill="#1A1A1C"></path></svg>