<svg width="78.82400000000001" height="78.82400000000001" viewBox="0 0 78.82400000000001 78.82400000000001" fill="none" xmlns="http://www.w3.org/2000/svg"><path d="M37.68 68.82L39.05 62.27L39.05 62.27Q35.96 61.84 33.44 60.76L33.44 60.76L31.78 68.82L27.24 68.82L29.33 58.53L29.33 58.53Q25.37 55.58 23.36 50.61L23.36 50.61L23.36 50.61Q21.34 45.64 21.34 39.16L21.34 39.16L21.34 39.16Q21.34 30.45 25.59 24.40L25.59 24.40L25.59 24.40Q29.84 18.35 37.83 16.55L37.83 16.55L39.20 10.00L43.73 10.00L42.51 15.98L42.51 15.98Q44.09 15.98 45.60 16.05L45.60 16.05L45.60 16.05Q47.12 16.12 48.34 16.26L48.34 16.26L49.64 10.00L54.17 10.00L52.73 17.06L52.73 17.06Q53.96 17.42 55.14 17.88L55.14 17.88L55.14 17.88Q56.33 18.35 57.48 18.93L57.48 18.93L54.96 24.11L54.96 24.11Q54.17 23.75 53.34 23.36L53.34 23.36L53.34 23.36Q52.52 22.96 51.58 22.67L51.58 22.67L44.60 57.09L44.60 57.09Q47.55 57.09 50.21 56.51L50.21 56.51L50.21 56.51Q52.88 55.94 55.47 55.07L55.47 55.07L55.47 60.40L55.47 60.40Q52.88 61.48 50.10 61.98L50.10 61.98L50.10 61.98Q47.33 62.49 43.52 62.49L43.52 62.49L42.22 68.82L37.68 68.82ZM40.13 56.73L47.26 21.52L47.26 21.52Q45.89 21.30 44.31 21.30L44.31 21.30L44.31 21.30Q43.59 21.30 42.83 21.38L42.83 21.38L42.83 21.38Q42.08 21.45 41.36 21.59L41.36 21.59L34.66 54.64L34.66 54.64Q37.11 56.22 40.13 56.73L40.13 56.73ZM30.84 50.97L36.53 22.96L36.53 22.96Q32.36 24.98 30.02 29.15L30.02 29.15L30.02 29.15Q27.68 33.33 27.68 39.23L27.68 39.23L27.68 39.23Q27.68 46.36 30.84 50.97L30.84 50.97Z" fill="#1A1A1C"></path></svg>