<svg width="72.12800000000001" height="72.12800000000001" viewBox="0 0 72.12800000000001 72.12800000000001" fill="none" xmlns="http://www.w3.org/2000/svg"><path d="M33.33 10L33.33 10L33.33 10Q35.92 10 38.48 10.50L38.48 10.50L38.48 10.50Q41.03 11.01 43.34 12.23L43.34 12.23L41.03 16.84L41.03 16.84Q39.38 15.98 37.47 15.40L37.47 15.40L37.47 15.40Q35.56 14.82 33.54 14.82L33.54 14.82L33.54 14.82Q29.30 14.82 26.85 18.42L26.85 18.42L26.85 18.42Q24.40 22.02 24.40 28.36L24.40 28.36L24.40 28.36Q24.40 34.84 26.92 37.97L26.92 37.97L26.92 37.97Q29.44 41.10 35.13 41.10L35.13 41.10L35.13 26.34L53.99 26.34L53.99 31.10L41.03 31.10L41.03 41.10L53.06 41.10L53.06 45.86L41.03 45.86L41.03 57.30L53.99 57.30L53.99 62.13L35.13 62.13L35.13 45.86L35.13 45.86Q26.49 45.86 22.31 41.64L22.31 41.64L22.31 41.64Q18.14 37.43 18.14 28.29L18.14 28.29L18.14 28.29Q18.14 22.89 19.90 18.75L19.90 18.75L19.90 18.75Q21.66 14.61 25.08 12.30L25.08 12.30L25.08 12.30Q28.50 10 33.33 10Z" fill="#1A1A1C"></path></svg>