<svg width="73.13600000000001" height="73.13600000000001" viewBox="0 0 73.13600000000001 73.13600000000001" fill="none" xmlns="http://www.w3.org/2000/svg"><path d="M23.90 10.72L22.10 47.66L17.99 47.66L16.19 10.72L23.90 10.72ZM15.54 58.24L15.54 58.24L15.54 58.24Q15.54 55.58 16.84 54.50L16.84 54.50L16.84 54.50Q18.14 53.42 20.01 53.42L20.01 53.42L20.01 53.42Q21.81 53.42 23.14 54.50L23.14 54.50L23.14 54.50Q24.47 55.58 24.47 58.24L24.47 58.24L24.47 58.24Q24.47 60.83 23.14 61.98L23.14 61.98L23.14 61.98Q21.81 63.14 20.01 63.14L20.01 63.14L20.01 63.14Q18.14 63.14 16.84 61.98L16.84 61.98L16.84 61.98Q15.54 60.83 15.54 58.24ZM38.30 47.66L38.30 45.71L38.30 45.71Q38.30 42.98 38.84 41.00L38.84 41.00L38.84 41.00Q39.38 39.02 40.71 37.22L40.71 37.22L40.71 37.22Q42.04 35.42 44.34 33.47L44.34 33.47L44.34 33.47Q47.15 31.10 48.70 29.51L48.70 29.51L48.70 29.51Q50.25 27.93 50.90 26.42L50.90 26.42L50.90 26.42Q51.54 24.90 51.54 22.74L51.54 22.74L51.54 22.74Q51.54 19.29 49.31 17.42L49.31 17.42L49.31 17.42Q47.08 15.54 42.83 15.54L42.83 15.54L42.83 15.54Q39.30 15.54 36.57 16.44L36.57 16.44L36.57 16.44Q33.83 17.34 31.31 18.57L31.31 18.57L29.08 13.53L29.08 13.53Q31.96 12.02 35.45 11.01L35.45 11.01L35.45 11.01Q38.94 10 43.26 10L43.26 10L43.26 10Q50.10 10 53.85 13.38L53.85 13.38L53.85 13.38Q57.59 16.77 57.59 22.60L57.59 22.60L57.59 22.60Q57.59 25.84 56.55 28.11L56.55 28.11L56.55 28.11Q55.50 30.38 53.60 32.28L53.60 32.28L53.60 32.28Q51.69 34.19 49.10 36.35L49.10 36.35L49.10 36.35Q46.72 38.37 45.46 39.88L45.46 39.88L45.46 39.88Q44.20 41.39 43.77 42.87L43.77 42.87L43.77 42.87Q43.34 44.34 43.34 46.43L43.34 46.43L43.34 47.66L38.30 47.66ZM36.64 58.24L36.64 58.24L36.64 58.24Q36.64 55.58 37.90 54.50L37.90 54.50L37.90 54.50Q39.16 53.42 41.10 53.42L41.10 53.42L41.10 53.42Q42.90 53.42 44.20 54.50L44.20 54.50L44.20 54.50Q45.50 55.58 45.50 58.24L45.50 58.24L45.50 58.24Q45.50 60.83 44.20 61.98L44.20 61.98L44.20 61.98Q42.90 63.14 41.10 63.14L41.10 63.14L41.10 63.14Q39.16 63.14 37.90 61.98L37.90 61.98L37.90 61.98Q36.64 60.83 36.64 58.24Z" fill="#1A1A1C"></path></svg>