<svg width="124.61600000000001" height="124.61600000000001" viewBox="0 0 124.61600000000001 124.61600000000001" fill="none" xmlns="http://www.w3.org/2000/svg"><path d="M20.80 35.88L20.80 35.88L20.80 35.88Q24.69 35.88 27.14 37.97L27.14 37.97L27.14 37.97Q29.58 40.06 30.74 43.66L30.74 43.66L30.74 43.66Q31.89 47.26 31.89 51.94L31.89 51.94L31.89 51.94Q31.89 59.79 29.12 63.96L29.12 63.96L29.12 63.96Q26.34 68.14 20.80 68.14L20.80 68.14L20.80 68.14Q15.62 68.14 12.81 63.86L12.81 63.86L12.81 63.86Q10 59.57 10 51.94L10 51.94L10 51.94Q10 44.24 12.66 40.06L12.66 40.06L12.66 40.06Q15.33 35.88 20.80 35.88ZM48.66 36.60L54.06 36.60L25.55 88.01L20.15 88.01L48.66 36.60ZM20.87 40.64L20.87 40.64L20.87 40.64Q18.14 40.64 16.88 43.44L16.88 43.44L16.88 43.44Q15.62 46.25 15.62 51.94L15.62 51.94L15.62 51.94Q15.62 57.63 16.88 60.51L16.88 60.51L16.88 60.51Q18.14 63.39 20.87 63.39L20.87 63.39L20.87 63.39Q26.34 63.39 26.34 51.94L26.34 51.94L26.34 51.94Q26.34 40.64 20.87 40.64ZM103.60 56.48L103.60 56.48L103.60 56.48Q107.42 56.48 109.86 58.56L109.86 58.56L109.86 58.56Q112.31 60.65 113.46 64.29L113.46 64.29L113.46 64.29Q114.62 67.92 114.62 72.53L114.62 72.53L114.62 72.53Q114.62 80.38 111.88 84.56L111.88 84.56L111.88 84.56Q109.14 88.73 103.60 88.73L103.60 88.73L103.60 88.73Q99.78 88.73 97.37 86.61L97.37 86.61L97.37 86.61Q94.96 84.48 93.84 80.81L93.84 80.81L93.84 80.81Q92.73 77.14 92.73 72.53L92.73 72.53L92.73 72.53Q92.73 64.76 95.43 60.62L95.43 60.62L95.43 60.62Q98.13 56.48 103.60 56.48ZM53.20 56.48L53.20 56.48L53.20 56.48Q57.09 56.48 59.54 58.56L59.54 58.56L59.54 58.56Q61.98 60.65 63.14 64.29L63.14 64.29L63.14 64.29Q64.29 67.92 64.29 72.53L64.29 72.53L64.29 72.53Q64.29 80.38 61.52 84.56L61.52 84.56L61.52 84.56Q58.74 88.73 53.20 88.73L53.20 88.73L53.20 88.73Q49.46 88.73 47.04 86.61L47.04 86.61L47.04 86.61Q44.63 84.48 43.52 80.81L43.52 80.81L43.52 80.81Q42.40 77.14 42.40 72.53L42.40 72.53L42.40 72.53Q42.40 64.76 45.10 60.62L45.10 60.62L45.10 60.62Q47.80 56.48 53.20 56.48ZM78.40 56.48L78.40 56.48L78.40 56.48Q82.29 56.48 84.74 58.56L84.74 58.56L84.74 58.56Q87.18 60.65 88.34 64.29L88.34 64.29L88.34 64.29Q89.49 67.92 89.49 72.53L89.49 72.53L89.49 72.53Q89.49 80.38 86.72 84.56L86.72 84.56L86.72 84.56Q83.94 88.73 78.40 88.73L78.40 88.73L78.40 88.73Q74.66 88.73 72.24 86.61L72.24 86.61L72.24 86.61Q69.83 84.48 68.72 80.81L68.72 80.81L68.72 80.81Q67.60 77.14 67.60 72.53L67.60 72.53L67.60 72.53Q67.60 64.76 70.30 60.62L70.30 60.62L70.30 60.62Q73.00 56.48 78.40 56.48ZM103.60 61.30L103.60 61.30L103.60 61.30Q100.86 61.30 99.60 64.07L99.60 64.07L99.60 64.07Q98.34 66.84 98.34 72.60L98.34 72.60L98.34 72.60Q98.34 78.29 99.60 81.14L99.60 81.14L99.60 81.14Q100.86 83.98 103.60 83.98L103.60 83.98L103.60 83.98Q109.07 83.98 109.07 72.60L109.07 72.60L109.07 72.60Q109.07 61.30 103.60 61.30ZM53.20 61.30L53.20 61.30L53.20 61.30Q50.46 61.30 49.20 64.07L49.20 64.07L49.20 64.07Q47.94 66.84 47.94 72.60L47.94 72.60L47.94 72.60Q47.94 78.29 49.20 81.14L49.20 81.14L49.20 81.14Q50.46 83.98 53.20 83.98L53.20 83.98L53.20 83.98Q58.67 83.98 58.67 72.60L58.67 72.60L58.67 72.60Q58.67 61.30 53.20 61.30ZM78.40 61.30L78.40 61.30L78.40 61.30Q75.66 61.30 74.40 64.07L74.40 64.07L74.40 64.07Q73.14 66.84 73.14 72.60L73.14 72.60L73.14 72.60Q73.14 78.29 74.40 81.14L74.40 81.14L74.40 81.14Q75.66 83.98 78.40 83.98L78.40 83.98L78.40 83.98Q83.87 83.98 83.87 72.60L83.87 72.60L83.87 72.60Q83.87 61.30 78.40 61.30Z" fill="#1A1A1C"></path></svg>