<svg width="71.40800000000002" height="71.40800000000002" viewBox="0 0 71.40800000000002 71.40800000000002" fill="none" xmlns="http://www.w3.org/2000/svg"><path d="M18.75 61.41L12.92 61.41L12.92 10L29.55 10L29.55 10Q37.47 10 41.21 14.46L41.21 14.46L41.21 14.46Q44.96 18.93 44.96 26.20L44.96 26.20L44.96 48.30L39.12 48.30L39.12 26.27L39.12 26.27Q39.12 20.66 36.42 17.81L36.42 17.81L36.42 17.81Q33.72 14.97 28.83 14.97L28.83 14.97L18.75 14.97L18.75 61.41ZM26.02 61.41L26.02 23.10L31.85 23.10L31.85 56.44L41.64 56.44L41.64 56.44Q47.12 56.44 49.89 53.52L49.89 53.52L49.89 53.52Q52.66 50.61 52.66 45.06L52.66 45.06L52.66 10L58.49 10L58.49 45.06L58.49 45.06Q58.49 49.74 56.84 53.45L56.84 53.45L56.84 53.45Q55.18 57.16 51.58 59.28L51.58 59.28L51.58 59.28Q47.98 61.41 42.15 61.41L42.15 61.41L26.02 61.41Z" fill="#1A1A1C"></path></svg>