<svg width="77.24000000000001" height="77.24000000000001" viewBox="0 0 77.24000000000001 77.24000000000001" fill="none" xmlns="http://www.w3.org/2000/svg"><path d="M19.36 65.04L19.36 65.04L19.36 65.04Q16.91 65.04 14.79 64.36L14.79 64.36L14.79 64.36Q12.66 63.68 11.33 62.34L11.33 62.34L11.33 62.34Q10 61.01 10 59.14L10 59.14L10 59.14Q10 56.62 12.20 55.47L12.20 55.47L12.20 55.47Q14.39 54.32 17.06 54.32L17.06 54.32L17.06 54.32Q19.79 54.32 22.82 55.47L22.82 55.47L22.82 55.47Q25.84 56.62 28.79 58.13L28.79 58.13L28.79 58.13Q30.02 56.26 31.13 53.67L31.13 53.67L31.13 53.67Q32.25 51.08 33.62 47.98L33.62 47.98L33.62 47.98Q33.90 47.26 34.23 46.58L34.23 46.58L34.23 46.58Q34.55 45.89 34.84 45.17L34.84 45.17L34.84 45.17Q30.09 44.96 27.14 43.44L27.14 43.44L27.14 43.44Q24.18 41.93 22.64 39.81L22.64 39.81L22.64 39.81Q21.09 37.68 20.55 35.45L20.55 35.45L20.55 35.45Q20.01 33.22 20.01 31.42L20.01 31.42L20.01 31.42Q20.01 27.60 21.88 24.15L21.88 24.15L21.88 24.15Q23.75 20.69 27.03 17.99L27.03 17.99L27.03 17.99Q30.30 15.29 34.52 13.74L34.52 13.74L34.52 13.74Q38.73 12.20 43.34 12.20L43.34 12.20L43.34 12.20Q46.58 12.20 49.82 12.84L49.82 12.84L49.53 14.14L49.53 14.14Q46.29 13.49 43.34 13.49L43.34 13.49L43.34 13.49Q39.16 13.49 35.60 15.15L35.60 15.15L35.60 15.15Q32.03 16.80 29.40 19.61L29.40 19.61L29.40 19.61Q26.78 22.42 25.34 25.95L25.34 25.95L25.34 25.95Q23.90 29.48 23.90 33.29L23.90 33.29L23.90 33.29Q23.90 36.46 25.05 38.48L25.05 38.48L25.05 38.48Q26.20 40.49 28 41.64L28 41.64L28 41.64Q29.80 42.80 31.78 43.26L31.78 43.26L31.78 43.26Q33.76 43.73 35.42 43.88L35.42 43.88L35.42 43.88Q37.36 39.56 39.56 35.06L39.56 35.06L39.56 35.06Q41.75 30.56 44.20 26.49L44.20 26.49L44.20 26.49Q46.65 22.42 49.38 19.18L49.38 19.18L49.38 19.18Q52.12 15.94 55.14 14.07L55.14 14.07L55.14 14.07Q58.17 12.20 61.41 12.20L61.41 12.20L61.41 12.20Q64.50 12.20 65.87 13.71L65.87 13.71L65.87 13.71Q67.24 15.22 67.24 17.45L67.24 17.45L67.24 17.45Q67.24 20.04 65.55 23.75L65.55 23.75L65.55 23.75Q63.86 27.46 60.80 31.35L60.80 31.35L60.80 31.35Q57.74 35.24 53.67 38.55L53.67 38.55L53.67 38.55Q49.60 41.86 44.78 43.66L44.78 43.66L43.41 47.33L43.41 47.33Q41.61 52.16 39.05 55.36L39.05 55.36L39.05 55.36Q36.50 58.56 33.62 60.65L33.62 60.65L33.62 60.65Q35.99 61.88 38.15 62.74L38.15 62.74L38.15 62.74Q40.31 63.60 42.04 63.60L42.04 63.60L42.04 63.60Q44.42 63.60 47.01 62.24L47.01 62.24L47.01 62.24Q49.60 60.87 51.98 58.42L51.98 58.42L51.98 58.42Q54.35 55.97 56.08 52.73L56.08 52.73L57.30 53.24L57.30 53.24Q56.01 55.76 53.67 58.53L53.67 58.53L53.67 58.53Q51.33 61.30 48.27 63.17L48.27 63.17L48.27 63.17Q45.21 65.04 41.61 65.04L41.61 65.04L41.61 65.04Q38.87 65.04 36.39 64.14L36.39 64.14L36.39 64.14Q33.90 63.24 31.60 61.95L31.60 61.95L31.60 61.95Q28.50 63.68 25.37 64.36L25.37 64.36L25.37 64.36Q22.24 65.04 19.36 65.04ZM45.42 41.86L45.42 41.86L45.42 41.86Q50.18 39.84 54.50 36.03L54.50 36.03L54.50 36.03Q56.73 34.08 59.00 30.95L59.00 30.95L59.00 30.95Q61.26 27.82 62.85 24.18L62.85 24.18L62.85 24.18Q64.43 20.55 64.43 17.09L64.43 17.09L64.43 17.09Q64.43 15.44 63.53 14.46L63.53 14.46L63.53 14.46Q62.63 13.49 61.26 13.49L61.26 13.49L61.26 13.49Q58.60 13.49 56.44 15.94L56.44 15.94L56.44 15.94Q54.28 18.39 52.48 22.46L52.48 22.46L52.48 22.46Q50.68 26.52 48.95 31.60L48.95 31.60L48.95 31.60Q47.22 36.68 45.42 41.86ZM19 63.75L19 63.75L19 63.75Q22.17 63.75 24.22 62.70L24.22 62.70L24.22 62.70Q26.27 61.66 27.78 59.64L27.78 59.64L27.78 59.64Q25.19 58.06 22.56 56.84L22.56 56.84L22.56 56.84Q19.94 55.61 16.98 55.61L16.98 55.61L16.98 55.61Q15.04 55.61 13.17 56.40L13.17 56.40L13.17 56.40Q11.30 57.20 11.30 59.14L11.30 59.14L11.30 59.14Q11.30 60.72 12.59 61.73L12.59 61.73L12.59 61.73Q13.89 62.74 15.72 63.24L15.72 63.24L15.72 63.24Q17.56 63.75 19 63.75Z" fill="#1A1A1C"></path></svg>