<svg width="96.75200000000001" height="96.75200000000001" viewBox="0 0 96.75200000000001 96.75200000000001" fill="none" xmlns="http://www.w3.org/2000/svg"><path d="M59.75 74.26L37 74.26L37 74.26Q28.50 74.26 22.46 71.31L22.46 71.31L22.46 71.31Q16.41 68.36 13.20 62.45L13.20 62.45L13.20 62.45Q10 56.55 10 47.84L10 47.84L10 47.84Q10 39.56 13.13 33.90L13.13 33.90L13.13 33.90Q16.26 28.25 21.99 25.37L21.99 25.37L21.99 25.37Q27.71 22.49 35.49 22.49L35.49 22.49L61.26 22.49L61.26 22.49Q69.04 22.49 74.76 25.37L74.76 25.37L74.76 25.37Q80.49 28.25 83.62 33.90L83.62 33.90L83.62 33.90Q86.75 39.56 86.75 47.84L86.75 47.84L86.75 47.84Q86.75 56.55 83.55 62.45L83.55 62.45L83.55 62.45Q80.34 68.36 74.30 71.31L74.30 71.31L74.30 71.31Q68.25 74.26 59.75 74.26L59.75 74.26ZM37.58 68.00L37.58 68.00L44.85 68.00L44.85 65.98L39.52 65.98L39.52 65.98Q30.81 65.98 25.98 61.44L25.98 61.44L25.98 61.44Q21.16 56.91 21.16 47.98L21.16 47.98L21.16 47.98Q21.16 39.56 25.84 35.16L25.84 35.16L25.84 35.16Q30.52 30.77 38.51 30.77L38.51 30.77L44.85 30.77L44.85 28.76L36.21 28.76L36.21 28.76Q27.21 28.76 22.24 33.44L22.24 33.44L22.24 33.44Q17.27 38.12 17.27 48.05L17.27 48.05L17.27 48.05Q17.27 57.92 22.38 62.96L22.38 62.96L22.38 62.96Q27.50 68.00 37.58 68.00ZM40.24 61.73L40.24 61.73L44.85 61.73L44.85 59.50L41.46 59.50L41.46 59.50Q35.99 59.50 32.93 56.66L32.93 56.66L32.93 56.66Q29.87 53.81 29.87 48.12L29.87 48.12L29.87 48.12Q29.87 42.80 32.86 40.02L32.86 40.02L32.86 40.02Q35.85 37.25 40.89 37.25L40.89 37.25L44.85 37.25L44.85 35.02L39.30 35.02L39.30 35.02Q33.18 35.02 29.80 38.19L29.80 38.19L29.80 38.19Q26.42 41.36 26.42 48.12L26.42 48.12L26.42 48.12Q26.42 54.89 29.91 58.31L29.91 58.31L29.91 58.31Q33.40 61.73 40.24 61.73ZM43.12 56.76L43.12 56.76L44.85 56.76L44.85 39.92L42.54 39.92L42.54 39.92Q38.66 39.92 36.53 41.93L36.53 41.93L36.53 41.93Q34.41 43.95 34.41 48.27L34.41 48.27L34.41 48.27Q34.41 52.44 36.60 54.60L36.60 54.60L36.60 54.60Q38.80 56.76 43.12 56.76ZM51.90 39.92L51.90 56.76L53.63 56.76L53.63 56.76Q57.95 56.76 60.15 54.60L60.15 54.60L60.15 54.60Q62.34 52.44 62.34 48.27L62.34 48.27L62.34 48.27Q62.34 43.95 60.22 41.93L60.22 41.93L60.22 41.93Q58.10 39.92 54.21 39.92L54.21 39.92L51.90 39.92ZM51.90 59.50L51.90 61.73L56.51 61.73L56.51 61.73Q63.35 61.73 66.84 58.31L66.84 58.31L66.84 58.31Q70.34 54.89 70.34 48.12L70.34 48.12L70.34 48.12Q70.34 41.36 66.99 38.19L66.99 38.19L66.99 38.19Q63.64 35.02 57.45 35.02L57.45 35.02L51.90 35.02L51.90 37.25L55.94 37.25L55.94 37.25Q60.98 37.25 63.93 40.02L63.93 40.02L63.93 40.02Q66.88 42.80 66.88 48.12L66.88 48.12L66.88 48.12Q66.88 53.81 63.82 56.66L63.82 56.66L63.82 56.66Q60.76 59.50 55.29 59.50L55.29 59.50L51.90 59.50ZM51.90 65.98L51.90 68.00L59.18 68.00L59.18 68.00Q69.26 68.00 74.37 62.96L74.37 62.96L74.37 62.96Q79.48 57.92 79.48 48.05L79.48 48.05L79.48 48.05Q79.48 38.12 74.51 33.44L74.51 33.44L74.51 33.44Q69.54 28.76 60.54 28.76L60.54 28.76L51.90 28.76L51.90 30.77L58.24 30.77L58.24 30.77Q66.23 30.77 70.91 35.16L70.91 35.16L70.91 35.16Q75.59 39.56 75.59 47.98L75.59 47.98L75.59 47.98Q75.59 56.91 70.77 61.44L70.77 61.44L70.77 61.44Q65.94 65.98 57.23 65.98L57.23 65.98L51.90 65.98Z" fill="#1A1A1C"></path></svg>