<svg width="76.23200000000001" height="76.23200000000001" viewBox="0 0 76.23200000000001 76.23200000000001" fill="none" xmlns="http://www.w3.org/2000/svg"><path d="M21.81 50.79L17.27 50.79L17.27 29.33L10 29.33L10 25.44L29.15 25.44L29.15 29.33L21.81 29.33L21.81 50.79ZM46.65 50.79L31.46 50.79L31.46 25.44L46.65 25.44L46.65 29.33L35.99 29.33L35.99 35.81L45.78 35.81L45.78 39.70L35.99 39.70L35.99 46.90L46.65 46.90L46.65 50.79ZM66.23 50.79L51.40 50.79L51.40 25.44L55.94 25.44L55.94 46.90L66.23 46.90L66.23 50.79Z" fill="#1A1A1C"></path></svg>