<svg width="112.23200000000001" height="112.23200000000001" viewBox="0 0 112.23200000000001 112.23200000000001" fill="none" xmlns="http://www.w3.org/2000/svg"><path d="M68.97 81.93L61.84 81.93L57.95 67.24L43.19 67.24L39.30 81.93L32.39 81.93L47.66 30.30L53.99 30.30L68.97 81.93ZM89.78 55.22L102.23 81.93L94.82 81.93L85.82 61.19L76.67 81.93L69.69 81.93L81.86 55.29L70.84 30.52L78.04 30.52L86.25 49.89L94.53 30.52L101.51 30.52L89.78 55.22ZM16.41 60.04L16.41 81.93L10 81.93L10 30.52L33.83 30.52L33.83 36.06L16.41 36.06L16.41 54.50L31.89 54.50L31.89 60.04L16.41 60.04ZM56.51 61.70L52.55 46.58L52.55 46.58Q52.26 45.21 51.72 42.80L51.72 42.80L51.72 42.80Q51.18 40.38 50.61 38.15L50.61 38.15L50.61 38.15Q50.10 40.24 49.60 42.65L49.60 42.65L49.60 42.65Q49.10 45.06 48.66 46.72L48.66 46.72L44.70 61.70L56.51 61.70Z" fill="#1A1A1C"></path></svg>