<svg width="73.64" height="73.64" viewBox="0 0 73.64 73.64" fill="none" xmlns="http://www.w3.org/2000/svg"><path d="M19.43 42.54L19.43 42.54L19.43 42.54Q16.77 42.54 14.46 42.08L14.46 42.08L14.46 42.08Q12.16 41.61 10 40.53L10 40.53L10 35.99L10 35.99Q15.04 38.44 19.50 38.44L19.50 38.44L19.50 38.44Q23.25 38.44 24.98 36.96L24.98 36.96L24.98 36.96Q26.70 35.49 26.70 32.97L26.70 32.97L26.70 32.97Q26.70 30.38 24.62 29.19L24.62 29.19L24.62 29.19Q22.53 28 18.78 28L18.78 28L14.68 28L14.68 24.04L18.78 24.04L18.78 24.04Q22.38 24.04 24.08 22.64L24.08 22.64L24.08 22.64Q25.77 21.23 25.77 19L25.77 19L25.77 19Q25.77 16.70 24.29 15.65L24.29 15.65L24.29 15.65Q22.82 14.61 20.73 14.61L20.73 14.61L20.73 14.61Q18.50 14.61 16.59 15.36L16.59 15.36L16.59 15.36Q14.68 16.12 12.74 17.34L12.74 17.34L10.14 14.03L10.14 14.03Q12.38 12.38 14.86 11.44L14.86 11.44L14.86 11.44Q17.34 10.50 20.66 10.50L20.66 10.50L20.66 10.50Q25.77 10.50 28.36 12.74L28.36 12.74L28.36 12.74Q30.95 14.97 30.95 18.42L30.95 18.42L30.95 18.42Q30.95 21.30 29.40 23.18L29.40 23.18L29.40 23.18Q27.86 25.05 25.70 25.77L25.70 25.77L25.70 25.98L25.70 25.98Q28.50 26.49 30.20 28.32L30.20 28.32L30.20 28.32Q31.89 30.16 31.89 33.11L31.89 33.11L31.89 33.11Q31.89 37.29 28.86 39.92L28.86 39.92L28.86 39.92Q25.84 42.54 19.43 42.54ZM24.47 62.56L19.07 62.56L50.46 11.15L55.86 11.15L24.47 62.56ZM52.91 63.14L52.91 63.14L52.91 63.14Q47.66 63.14 44.85 60.83L44.85 60.83L44.85 60.83Q42.04 58.53 42.04 54.50L42.04 54.50L42.04 54.50Q42.04 51.54 43.66 49.60L43.66 49.60L43.66 49.60Q45.28 47.66 47.58 46.43L47.58 46.43L47.58 46.43Q45.35 44.99 44.16 43.44L44.16 43.44L44.16 43.44Q42.98 41.90 42.98 39.16L42.98 39.16L42.98 39.16Q42.98 36.57 44.34 34.77L44.34 34.77L44.34 34.77Q45.71 32.97 47.98 32.07L47.98 32.07L47.98 32.07Q50.25 31.17 52.91 31.17L52.91 31.17L52.91 31.17Q56.87 31.17 59.75 33.08L59.75 33.08L59.75 33.08Q62.63 34.98 62.63 38.94L62.63 38.94L62.63 38.94Q62.63 41.61 61.12 43.34L61.12 43.34L61.12 43.34Q59.61 45.06 57.45 46.22L57.45 46.22L57.45 46.22Q60.26 47.37 61.95 49.35L61.95 49.35L61.95 49.35Q63.64 51.33 63.64 54.28L63.64 54.28L63.64 54.28Q63.64 58.31 60.65 60.72L60.65 60.72L60.65 60.72Q57.66 63.14 52.91 63.14ZM52.98 44.27L52.98 44.27L52.98 44.27Q55.07 43.48 56.40 42.29L56.40 42.29L56.40 42.29Q57.74 41.10 57.74 39.09L57.74 39.09L57.74 39.09Q57.74 37.22 56.44 36.17L56.44 36.17L56.44 36.17Q55.14 35.13 52.84 35.13L52.84 35.13L52.84 35.13Q50.54 35.13 49.24 36.17L49.24 36.17L49.24 36.17Q47.94 37.22 47.94 39.09L47.94 39.09L47.94 39.09Q47.94 40.96 49.38 42.18L49.38 42.18L49.38 42.18Q50.82 43.41 52.98 44.27ZM52.77 59.10L52.77 59.10L52.77 59.10Q55.79 59.10 57.23 57.81L57.23 57.81L57.23 57.81Q58.67 56.51 58.67 54.50L58.67 54.50L58.67 54.50Q58.67 52.41 57.05 51.04L57.05 51.04L57.05 51.04Q55.43 49.67 52.70 48.74L52.70 48.74L51.76 48.38L51.76 48.38Q49.38 49.53 48.16 50.97L48.16 50.97L48.16 50.97Q46.94 52.41 46.94 54.50L46.94 54.50L46.94 54.50Q46.94 56.51 48.38 57.81L48.38 57.81L48.38 57.81Q49.82 59.10 52.77 59.10Z" fill="#1A1A1C"></path></svg>