<svg width="69.82400000000001" height="69.82400000000001" viewBox="0 0 69.82400000000001 69.82400000000001" fill="none" xmlns="http://www.w3.org/2000/svg"><path d="M59.82 59.82L10 59.82L10 55.94L55.94 55.94L55.94 10.00L59.82 10.00L59.82 59.82ZM49.74 48.45L48.66 49.53L48.66 49.53Q41.97 47.37 33.18 48.02L33.18 48.02L30.95 45.78L30.95 45.78Q37.07 43.55 40.82 43.34L40.82 43.34L12.59 15.11L15.33 12.38L43.55 40.60L43.55 40.60Q43.77 36.78 46 30.74L46 30.74L48.23 32.97L48.23 32.97Q47.58 41.75 49.74 48.45L49.74 48.45Z" fill="#1A1A1C"></path></svg>