<svg width="79.68800000000002" height="79.68800000000002" viewBox="0 0 79.68800000000002 79.68800000000002" fill="none" xmlns="http://www.w3.org/2000/svg"><path d="M33.65 60.33L22.92 64.22L22.92 58.96L35.09 54.93L37.32 46.29L22.92 41.46L22.92 36.21L38.48 41.82L40.06 35.85L22.92 29.66L22.92 26.06L44.67 18.21L46.83 10.00L51.29 11.30L50.00 16.26L56.76 13.82L56.76 19.07L48.56 21.88L45.68 32.82L56.76 36.57L56.76 41.82L44.45 37.43L42.87 43.41L56.76 48.45L56.76 52.05L38.98 58.46L36.03 69.69L31.56 68.39L33.65 60.33ZM43.30 23.61L30.70 27.86L41.21 31.38L43.30 23.61ZM40.35 53.13L48.99 50.25L41.72 47.80L40.35 53.13Z" fill="#1A1A1C"></path></svg>