<svg width="101" height="101" viewBox="0 0 101 101" fill="none" xmlns="http://www.w3.org/2000/svg"><path d="M23.18 91L23.18 91L23.18 91Q20.37 91 18.28 90.28L18.28 90.28L18.28 85.10L18.28 85.10Q20.44 85.96 22.60 85.96L22.60 85.96L22.60 85.96Q28.79 85.96 28.79 77.75L28.79 77.75L28.79 63.14L28.79 63.14Q14.18 59.75 14.18 50.54L14.18 50.54L14.18 50.54Q14.18 41.03 28.79 37.79L28.79 37.79L28.79 22.82L28.79 22.82Q28.79 10.00 40.38 10.00L40.38 10.00L40.38 10.00Q43.34 10.00 44.92 10.65L44.92 10.65L44.92 15.90L44.92 15.90Q42.90 15.04 40.89 15.04L40.89 15.04L40.89 15.04Q34.91 15.04 34.91 23.25L34.91 23.25L34.91 36.78L34.91 36.78Q40.31 35.99 47.44 35.92L47.44 35.92L47.44 22.82L47.44 22.82Q47.44 10.00 59.03 10.00L59.03 10.00L59.03 10.00Q61.98 10.00 63.57 10.65L63.57 10.65L63.57 15.90L63.57 15.90Q61.62 15.04 59.54 15.04L59.54 15.04L59.54 15.04Q53.56 15.04 53.56 23.25L53.56 23.25L53.56 35.92L53.56 35.92Q60.69 35.99 66.09 36.78L66.09 36.78L66.09 22.82L66.09 22.82Q66.09 10.00 77.68 10.00L77.68 10.00L77.68 10.00Q80.63 10.00 82.22 10.65L82.22 10.65L82.22 15.90L82.22 15.90Q80.20 15.04 78.18 15.04L78.18 15.04L78.18 15.04Q72.21 15.04 72.21 23.25L72.21 23.25L72.21 37.86L72.21 37.86Q86.82 41.25 86.82 50.54L86.82 50.54L86.82 50.54Q86.82 59.75 72.21 63.14L72.21 63.14L72.21 78.18L72.21 78.18Q72.21 91 60.47 91L60.47 91L60.47 91Q57.66 91 55.58 90.28L55.58 90.28L55.58 85.10L55.58 85.10Q57.74 85.96 59.90 85.96L59.90 85.96L59.90 85.96Q66.09 85.96 66.09 77.75L66.09 77.75L66.09 64.22L66.09 64.22Q60.69 64.94 53.56 65.08L53.56 65.08L53.56 78.18L53.56 78.18Q53.56 91 41.82 91L41.82 91L41.82 91Q39.02 91 36.93 90.28L36.93 90.28L36.93 85.10L36.93 85.10Q39.09 85.96 41.25 85.96L41.25 85.96L41.25 85.96Q47.44 85.96 47.44 77.75L47.44 77.75L47.44 65.08L47.44 65.08Q40.31 64.94 34.91 64.22L34.91 64.22L34.91 78.18L34.91 78.18Q34.91 91 23.18 91ZM53.56 40.60L53.56 60.40L53.56 60.40Q60.83 60.26 66.09 59.54L66.09 59.54L66.09 41.46L66.09 41.46Q60.83 40.67 53.56 40.60L53.56 40.60ZM47.44 60.40L47.44 60.40L47.44 40.67L47.44 40.67Q39.88 40.89 34.91 41.54L34.91 41.54L34.91 59.54L34.91 59.54Q40.10 60.26 47.44 60.40ZM28.79 58.38L28.79 58.38L28.79 42.69L28.79 42.69Q19.29 45.28 19.29 50.54L19.29 50.54L19.29 50.54Q19.29 53.42 21.77 55.29L21.77 55.29L21.77 55.29Q24.26 57.16 28.79 58.38ZM72.21 42.69L72.21 58.38L72.21 58.38Q81.71 55.86 81.71 50.54L81.71 50.54L81.71 50.54Q81.71 47.80 79.19 45.82L79.19 45.82L79.19 45.82Q76.67 43.84 72.21 42.69L72.21 42.69Z" fill="#1A1A1C"></path></svg>