<svg width="72.848" height="72.848" viewBox="0 0 72.848 72.848" fill="none" xmlns="http://www.w3.org/2000/svg"><path d="M14.32 18.86L14.32 18.86L14.32 18.86Q12.52 18.86 11.26 17.56L11.26 17.56L11.26 17.56Q10 16.26 10 14.54L10 14.54L10 14.54Q10 12.74 11.26 11.48L11.26 11.48L11.26 11.48Q12.52 10.22 14.32 10.22L14.32 10.22L14.32 10.22Q16.12 10.22 17.38 11.44L17.38 11.44L17.38 11.44Q18.64 12.66 18.64 14.54L18.64 14.54L18.64 14.54Q18.64 16.34 17.38 17.60L17.38 17.60L17.38 17.60Q16.12 18.86 14.32 18.86ZM36.42 40.89L36.42 40.89L36.42 40.89Q34.62 40.89 33.36 39.63L33.36 39.63L33.36 39.63Q32.10 38.37 32.10 36.57L32.10 36.57L32.10 36.57Q32.10 34.70 33.40 33.47L33.40 33.47L33.40 33.47Q34.70 32.25 36.42 32.25L36.42 32.25L36.42 32.25Q38.08 32.25 39.41 33.47L39.41 33.47L39.41 33.47Q40.74 34.70 40.74 36.57L40.74 36.57L40.74 36.57Q40.74 38.37 39.48 39.63L39.48 39.63L39.48 39.63Q38.22 40.89 36.42 40.89ZM58.53 62.63L58.53 62.63L58.53 62.63Q56.73 62.63 55.47 61.37L55.47 61.37L55.47 61.37Q54.21 60.11 54.21 58.31L54.21 58.31L54.21 58.31Q54.21 56.51 55.47 55.25L55.47 55.25L55.47 55.25Q56.73 53.99 58.53 53.99L58.53 53.99L58.53 53.99Q60.40 53.99 61.62 55.32L61.62 55.32L61.62 55.32Q62.85 56.66 62.85 58.31L62.85 58.31L62.85 58.31Q62.85 60.11 61.59 61.37L61.59 61.37L61.59 61.37Q60.33 62.63 58.53 62.63Z" fill="#1A1A1C"></path></svg>