<svg width="65.072" height="65.072" viewBox="0 0 65.072 65.072" fill="none" xmlns="http://www.w3.org/2000/svg"><path d="M24.98 17.20L24.98 17.20L24.98 17.20Q23.46 17.20 22.42 16.19L22.42 16.19L22.42 16.19Q21.38 15.18 21.38 13.60L21.38 13.60L21.38 13.60Q21.38 12.09 22.42 11.04L22.42 11.04L22.42 11.04Q23.46 10 24.98 10L24.98 10L24.98 10Q26.56 10 27.57 11.04L27.57 11.04L27.57 11.04Q28.58 12.09 28.58 13.60L28.58 13.60L28.58 13.60Q28.58 15.18 27.57 16.19L27.57 16.19L27.57 16.19Q26.56 17.20 24.98 17.20ZM40.10 17.20L40.10 17.20L40.10 17.20Q38.51 17.20 37.50 16.19L37.50 16.19L37.50 16.19Q36.50 15.18 36.50 13.60L36.50 13.60L36.50 13.60Q36.50 12.09 37.50 11.04L37.50 11.04L37.50 11.04Q38.51 10 40.10 10L40.10 10L40.10 10Q41.61 10 42.65 11.04L42.65 11.04L42.65 11.04Q43.70 12.09 43.70 13.60L43.70 13.60L43.70 13.60Q43.70 15.18 42.65 16.19L42.65 16.19L42.65 16.19Q41.61 17.20 40.10 17.20ZM49.46 39.16L15.62 55.07L15.62 49.46L41.97 37.36L15.62 25.26L15.62 19.65L49.46 35.56L49.46 39.16Z" fill="#1A1A1C"></path></svg>