<svg width="78.464" height="78.464" viewBox="0 0 78.464 78.464" fill="none" xmlns="http://www.w3.org/2000/svg"><path d="M31.74 17.20L31.74 17.20L31.74 17.20Q30.23 17.20 29.19 16.16L29.19 16.16L29.19 16.16Q28.14 15.11 28.14 13.60L28.14 13.60L28.14 13.60Q28.14 12.02 29.19 11.01L29.19 11.01L29.19 11.01Q30.23 10.00 31.74 10.00L31.74 10.00L31.74 10.00Q33.26 10.00 34.30 11.01L34.30 11.01L34.30 11.01Q35.34 12.02 35.34 13.60L35.34 13.60L35.34 13.60Q35.34 15.18 34.26 16.19L34.26 16.19L34.26 16.19Q33.18 17.20 31.74 17.20ZM46.79 17.20L46.79 17.20L46.79 17.20Q45.28 17.20 44.24 16.16L44.24 16.16L44.24 16.16Q43.19 15.11 43.19 13.60L43.19 13.60L43.19 13.60Q43.19 12.02 44.24 11.01L44.24 11.01L44.24 11.01Q45.28 10.00 46.79 10.00L46.79 10.00L46.79 10.00Q48.30 10.00 49.35 11.01L49.35 11.01L49.35 11.01Q50.39 12.02 50.39 13.60L50.39 13.60L50.39 13.60Q50.39 15.18 49.31 16.19L49.31 16.19L49.31 16.19Q48.23 17.20 46.79 17.20ZM42.26 68.46L36.21 68.46L21.30 24.98L21.30 21.38L57.16 21.38L57.16 24.98L42.26 68.46ZM39.23 63.21L39.23 63.21L39.23 63.21Q39.74 60.98 40.56 58.13L40.56 58.13L40.56 58.13Q41.39 55.29 42.54 51.98L42.54 51.98L51.11 26.49L27.35 26.49L35.92 51.98L35.92 51.98Q37.07 55.29 37.90 58.13L37.90 58.13L37.90 58.13Q38.73 60.98 39.23 63.21Z" fill="#1A1A1C"></path></svg>