<svg width="95.096" height="95.096" viewBox="0 0 95.096 95.096" fill="none" xmlns="http://www.w3.org/2000/svg"><path d="M39.77 56.73L25.88 85.10L23.28 83.87L37.54 54.86L37.54 54.86Q36.39 53.49 35.81 51.94L35.81 51.94L35.81 51.94Q35.24 50.39 35.24 48.59L35.24 48.59L35.24 48.59Q35.24 46.43 36.06 44.63L36.06 44.63L36.06 44.63Q36.89 42.83 38.55 41.39L38.55 41.39L30.77 10.72L33.51 10.00L41.07 39.88L41.07 39.88Q41.93 39.45 42.87 39.27L42.87 39.27L42.87 39.27Q43.80 39.09 44.74 39.09L44.74 39.09L44.74 39.09Q46.40 39.09 47.84 39.56L47.84 39.56L47.84 39.56Q49.28 40.02 50.50 41.03L50.50 41.03L73.18 23.18L74.91 25.41L52.44 43.05L52.44 43.05Q53.38 44.27 53.81 45.68L53.81 45.68L53.81 45.68Q54.24 47.08 54.24 48.59L54.24 48.59L54.24 48.59Q54.24 52.05 52.01 54.71L52.01 54.71L66.41 83.87L63.82 85.10L49.78 56.66L49.78 56.66Q47.48 58.10 44.74 58.10L44.74 58.10L44.74 58.10Q42.00 58.10 39.77 56.73L39.77 56.73ZM33.00 35.34L29.04 42.90L21.92 38.15L26.16 37.79L20.19 13.74L22.92 13.02L28.90 37.07L33.00 35.34Z" fill="#1A1A1C"></path></svg>