<svg width="75.152" height="75.152" viewBox="0 0 75.152 75.152" fill="none" xmlns="http://www.w3.org/2000/svg"><path d="M30.02 17.20L30.02 17.20L30.02 17.20Q28.50 17.20 27.46 16.16L27.46 16.16L27.46 16.16Q26.42 15.11 26.42 13.60L26.42 13.60L26.42 13.60Q26.42 12.02 27.46 11.01L27.46 11.01L27.46 11.01Q28.50 10.00 30.02 10.00L30.02 10.00L30.02 10.00Q31.53 10.00 32.57 11.01L32.57 11.01L32.57 11.01Q33.62 12.02 33.62 13.60L33.62 13.60L33.62 13.60Q33.62 15.18 32.54 16.19L32.54 16.19L32.54 16.19Q31.46 17.20 30.02 17.20ZM45.06 17.20L45.06 17.20L45.06 17.20Q43.55 17.20 42.51 16.16L42.51 16.16L42.51 16.16Q41.46 15.11 41.46 13.60L41.46 13.60L41.46 13.60Q41.46 12.02 42.51 11.01L42.51 11.01L42.51 11.01Q43.55 10.00 45.06 10.00L45.06 10.00L45.06 10.00Q46.58 10.00 47.62 11.01L47.62 11.01L47.62 11.01Q48.66 12.02 48.66 13.60L48.66 13.60L48.66 13.60Q48.66 15.18 47.58 16.19L47.58 16.19L47.58 16.19Q46.50 17.20 45.06 17.20ZM37.58 65.15L37.58 65.15L37.58 65.15Q33.33 65.15 29.62 63.57L29.62 63.57L29.62 63.57Q25.91 61.98 23.07 59.14L23.07 59.14L23.07 59.14Q20.22 56.30 18.64 52.59L18.64 52.59L18.64 52.59Q17.06 48.88 17.06 44.63L17.06 44.63L17.06 44.63Q17.06 40.38 18.64 36.68L18.64 36.68L18.64 36.68Q20.22 32.97 23.07 30.12L23.07 30.12L23.07 30.12Q25.91 27.28 29.62 25.70L29.62 25.70L29.62 25.70Q33.33 24.11 37.58 24.11L37.58 24.11L37.58 24.11Q41.82 24.11 45.53 25.70L45.53 25.70L45.53 25.70Q49.24 27.28 52.08 30.12L52.08 30.12L52.08 30.12Q54.93 32.97 56.51 36.68L56.51 36.68L56.51 36.68Q58.10 40.38 58.10 44.63L58.10 44.63L58.10 44.63Q58.10 48.88 56.51 52.59L56.51 52.59L56.51 52.59Q54.93 56.30 52.08 59.14L52.08 59.14L52.08 59.14Q49.24 61.98 45.53 63.57L45.53 63.57L45.53 63.57Q41.82 65.15 37.58 65.15ZM37.58 60.04L37.58 60.04L37.58 60.04Q41.82 60.04 45.32 57.95L45.32 57.95L45.32 57.95Q48.81 55.86 50.90 52.34L50.90 52.34L50.90 52.34Q52.98 48.81 52.98 44.63L52.98 44.63L52.98 44.63Q52.98 40.38 50.90 36.89L50.90 36.89L50.90 36.89Q48.81 33.40 45.32 31.31L45.32 31.31L45.32 31.31Q41.82 29.22 37.58 29.22L37.58 29.22L37.58 29.22Q33.33 29.22 29.84 31.31L29.84 31.31L29.84 31.31Q26.34 33.40 24.26 36.89L24.26 36.89L24.26 36.89Q22.17 40.38 22.17 44.63L22.17 44.63L22.17 44.63Q22.17 48.88 24.26 52.37L24.26 52.37L24.26 52.37Q26.34 55.86 29.84 57.95L29.84 57.95L29.84 57.95Q33.33 60.04 37.58 60.04Z" fill="#1A1A1C"></path></svg>