<svg width="86.096" height="86.096" viewBox="0 0 86.096 86.096" fill="none" xmlns="http://www.w3.org/2000/svg"><path d="M63.57 76.10L22.53 76.10L22.53 10L63.57 10L63.57 76.10ZM27.64 15.11L27.64 70.98L58.46 70.98L58.46 15.11L27.64 15.11ZM43.19 50.97L39.02 50.97L39.02 49.60L39.02 49.60Q39.02 46.86 39.95 44.99L39.95 44.99L39.95 44.99Q40.89 43.12 42.40 41.75L42.40 41.75L42.40 41.75Q43.91 40.38 45.57 39.09L45.57 39.09L45.57 39.09Q48.16 37.14 48.16 33.83L48.16 33.83L48.16 33.83Q48.16 31.74 46.58 30.52L46.58 30.52L46.58 30.52Q44.99 29.30 42.11 29.30L42.11 29.30L42.11 29.30Q39.66 29.30 37.79 29.91L37.79 29.91L37.79 29.91Q35.92 30.52 34.26 31.31L34.26 31.31L32.68 27.50L32.68 27.50Q37.14 25.05 42.47 25.05L42.47 25.05L42.47 25.05Q47.22 25.05 50.10 27.42L50.10 27.42L50.10 27.42Q52.98 29.80 52.98 33.69L52.98 33.69L52.98 33.69Q52.98 36.21 51.98 38.15L51.98 38.15L51.98 38.15Q50.97 40.10 48.16 42.40L48.16 42.40L48.16 42.40Q46.29 43.98 45.17 45.10L45.17 45.10L45.17 45.10Q44.06 46.22 43.62 47.33L43.62 47.33L43.62 47.33Q43.19 48.45 43.19 50.10L43.19 50.10L43.19 50.97ZM41.54 61.62L41.54 61.62L41.54 61.62Q40.17 61.62 39.30 60.87L39.30 60.87L39.30 60.87Q38.44 60.11 38.44 58.31L38.44 58.31L38.44 58.31Q38.44 54.93 41.54 54.93L41.54 54.93L41.54 54.93Q44.49 54.93 44.49 58.31L44.49 58.31L44.49 58.31Q44.49 60.11 43.62 60.87L43.62 60.87L43.62 60.87Q42.76 61.62 41.54 61.62Z" fill="#1A1A1C"></path></svg>