<svg width="68.24000000000001" height="68.24000000000001" viewBox="0 0 68.24000000000001 68.24000000000001" fill="none" xmlns="http://www.w3.org/2000/svg"><path d="M34.12 58.24L34.12 58.24L34.12 58.24Q29.15 58.24 24.80 56.37L24.80 56.37L24.80 56.37Q20.44 54.50 17.09 51.18L17.09 51.18L17.09 51.18Q13.74 47.87 11.87 43.48L11.87 43.48L11.87 43.48Q10 39.09 10 34.12L10 34.12L10 34.12Q10 29.15 11.87 24.80L11.87 24.80L11.87 24.80Q13.74 20.44 17.09 17.09L17.09 17.09L17.09 17.09Q20.44 13.74 24.80 11.87L24.80 11.87L24.80 11.87Q29.15 10.00 34.12 10.00L34.12 10.00L34.12 10.00Q39.09 10.00 43.48 11.87L43.48 11.87L43.48 11.87Q47.87 13.74 51.18 17.06L51.18 17.06L51.18 17.06Q54.50 20.37 56.37 24.76L56.37 24.76L56.37 24.76Q58.24 29.15 58.24 34.12L58.24 34.12L58.24 34.12Q58.24 39.09 56.37 43.48L56.37 43.48L56.37 43.48Q54.50 47.87 51.18 51.18L51.18 51.18L51.18 51.18Q47.87 54.50 43.52 56.37L43.52 56.37L43.52 56.37Q39.16 58.24 34.12 58.24ZM34.12 53.13L34.12 53.13L34.12 53.13Q39.45 53.13 43.73 50.57L43.73 50.57L43.73 50.57Q48.02 48.02 50.57 43.70L50.57 43.70L50.57 43.70Q53.13 39.38 53.13 34.12L53.13 34.12L53.13 34.12Q53.13 28.79 50.61 24.51L50.61 24.51L50.61 24.51Q48.09 20.22 43.77 17.67L43.77 17.67L43.77 17.67Q39.45 15.11 34.12 15.11L34.12 15.11L34.12 15.11Q28.86 15.11 24.54 17.70L24.54 17.70L24.54 17.70Q20.22 20.30 17.67 24.58L17.67 24.58L17.67 24.58Q15.11 28.86 15.11 34.12L15.11 34.12L15.11 34.12Q15.11 39.38 17.67 43.70L17.67 43.70L17.67 43.70Q20.22 48.02 24.54 50.57L24.54 50.57L24.54 50.57Q28.86 53.13 34.12 53.13ZM34.12 38.80L27.64 48.16L22.96 44.78L29.80 35.70L18.93 32.32L20.73 26.85L31.46 30.59L31.24 19.22L37 19.22L36.78 30.59L47.51 26.85L49.31 32.32L38.44 35.70L45.28 44.78L40.60 48.16L34.12 38.80Z" fill="#1A1A1C"></path></svg>