<svg width="87.10400000000001" height="87.10400000000001" viewBox="0 0 87.10400000000001 87.10400000000001" fill="none" xmlns="http://www.w3.org/2000/svg"><path d="M43.55 77.10L43.55 77.10L43.55 77.10Q36.64 77.10 30.56 74.51L30.56 74.51L30.56 74.51Q24.47 71.92 19.83 67.28L19.83 67.28L19.83 67.28Q15.18 62.63 12.59 56.55L12.59 56.55L12.59 56.55Q10 50.46 10 43.55L10 43.55L10 43.55Q10 36.64 12.59 30.56L12.59 30.56L12.59 30.56Q15.18 24.47 19.83 19.83L19.83 19.83L19.83 19.83Q24.47 15.18 30.56 12.59L30.56 12.59L30.56 12.59Q36.64 10 43.55 10L43.55 10L43.55 10Q50.46 10 56.55 12.59L56.55 12.59L56.55 12.59Q62.63 15.18 67.28 19.83L67.28 19.83L67.28 19.83Q71.92 24.47 74.51 30.56L74.51 30.56L74.51 30.56Q77.10 36.64 77.10 43.55L77.10 43.55L77.10 43.55Q77.10 50.54 74.48 56.62L74.48 56.62L74.48 56.62Q71.85 62.70 67.20 67.31L67.20 67.31L67.20 67.31Q62.56 71.92 56.51 74.51L56.51 74.51L56.51 74.51Q50.46 77.10 43.55 77.10ZM43.55 74.80L43.55 74.80L43.55 74.80Q50.03 74.80 55.68 72.39L55.68 72.39L55.68 72.39Q61.34 69.98 65.66 65.66L65.66 65.66L65.66 65.66Q69.98 61.34 72.39 55.68L72.39 55.68L72.39 55.68Q74.80 50.03 74.80 43.55L74.80 43.55L74.80 43.55Q74.80 37.07 72.39 31.42L72.39 31.42L72.39 31.42Q69.98 25.77 65.66 21.45L65.66 21.45L65.66 21.45Q61.34 17.13 55.68 14.72L55.68 14.72L55.68 14.72Q50.03 12.30 43.55 12.30L43.55 12.30L43.55 12.30Q37 12.30 31.35 14.75L31.35 14.75L31.35 14.75Q25.70 17.20 21.41 21.52L21.41 21.52L21.41 21.52Q17.13 25.84 14.72 31.49L14.72 31.49L14.72 31.49Q12.30 37.14 12.30 43.55L12.30 43.55L12.30 43.55Q12.30 50.03 14.72 55.68L14.72 55.68L14.72 55.68Q17.13 61.34 21.45 65.66L21.45 65.66L21.45 65.66Q25.77 69.98 31.42 72.39L31.42 72.39L31.42 72.39Q37.07 74.80 43.55 74.80ZM36.06 61.77L29.01 61.77L21.02 24.54L26.99 24.54L30.74 43.91L30.74 43.91Q31.31 46.86 31.85 49.89L31.85 49.89L31.85 49.89Q32.39 52.91 32.97 55.86L32.97 55.86L33.18 55.86L33.18 55.86Q33.90 52.91 34.66 49.89L34.66 49.89L34.66 49.89Q35.42 46.86 36.06 43.91L36.06 43.91L41.18 24.54L46.36 24.54L51.40 43.91L51.40 43.91Q52.12 46.79 52.88 49.82L52.88 49.82L52.88 49.82Q53.63 52.84 54.28 55.86L54.28 55.86L54.57 55.86L54.57 55.86Q55.14 52.84 55.65 49.85L55.65 49.85L55.65 49.85Q56.15 46.86 56.66 43.91L56.66 43.91L60.40 24.54L66.09 24.54L58.17 61.77L51.18 61.77L45.57 40.96L45.57 40.96Q45.06 38.73 44.60 36.64L44.60 36.64L44.60 36.64Q44.13 34.55 43.70 32.39L43.70 32.39L43.41 32.39L43.41 32.39Q42.98 34.55 42.51 36.64L42.51 36.64L42.51 36.64Q42.04 38.73 41.46 40.96L41.46 40.96L36.06 61.77Z" fill="#1A1A1C"></path></svg>