<svg width="87.10400000000001" height="87.10400000000001" viewBox="0 0 87.10400000000001 87.10400000000001" fill="none" xmlns="http://www.w3.org/2000/svg"><path d="M43.55 77.10L43.55 77.10L43.55 77.10Q36.64 77.10 30.56 74.51L30.56 74.51L30.56 74.51Q24.47 71.92 19.83 67.28L19.83 67.28L19.83 67.28Q15.18 62.63 12.59 56.55L12.59 56.55L12.59 56.55Q10 50.46 10 43.55L10 43.55L10 43.55Q10 36.57 12.63 30.48L12.63 30.48L12.63 30.48Q15.26 24.40 19.90 19.79L19.90 19.79L19.90 19.79Q24.54 15.18 30.63 12.59L30.63 12.59L30.63 12.59Q36.71 10 43.55 10L43.55 10L43.55 10Q50.46 10 56.55 12.59L56.55 12.59L56.55 12.59Q62.63 15.18 67.28 19.83L67.28 19.83L67.28 19.83Q71.92 24.47 74.51 30.56L74.51 30.56L74.51 30.56Q77.10 36.64 77.10 43.55L77.10 43.55L77.10 43.55Q77.10 50.46 74.51 56.55L74.51 56.55L74.51 56.55Q71.92 62.63 67.28 67.28L67.28 67.28L67.28 67.28Q62.63 71.92 56.55 74.51L56.55 74.51L56.55 74.51Q50.46 77.10 43.55 77.10ZM43.55 75.30L43.55 75.30L43.55 75.30Q50.18 75.30 55.90 72.86L55.90 72.86L55.90 72.86Q61.62 70.41 66.02 66.02L66.02 66.02L66.02 66.02Q70.41 61.62 72.86 55.90L72.86 55.90L72.86 55.90Q75.30 50.18 75.30 43.55L75.30 43.55L75.30 43.55Q75.30 36.93 72.86 31.20L72.86 31.20L72.86 31.20Q70.41 25.48 66.02 21.09L66.02 21.09L66.02 21.09Q61.62 16.70 55.90 14.25L55.90 14.25L55.90 14.25Q50.18 11.80 43.55 11.80L43.55 11.80L43.55 11.80Q36.93 11.80 31.20 14.25L31.20 14.25L31.20 14.25Q25.48 16.70 21.09 21.09L21.09 21.09L21.09 21.09Q16.70 25.48 14.25 31.20L14.25 31.20L14.25 31.20Q11.80 36.93 11.80 43.55L11.80 43.55L11.80 43.55Q11.80 50.18 14.28 55.94L14.28 55.94L14.28 55.94Q16.77 61.70 21.16 66.05L21.16 66.05L21.16 66.05Q25.55 70.41 31.28 72.86L31.28 72.86L31.28 72.86Q37 75.30 43.55 75.30ZM43.55 71.49L43.55 71.49L43.55 71.49Q37.79 71.49 32.72 69.33L32.72 69.33L32.72 69.33Q27.64 67.17 23.79 63.32L23.79 63.32L23.79 63.32Q19.94 59.46 17.78 54.39L17.78 54.39L17.78 54.39Q15.62 49.31 15.62 43.55L15.62 43.55L15.62 43.55Q15.62 37.72 17.81 32.64L17.81 32.64L17.81 32.64Q20.01 27.57 23.82 23.72L23.82 23.72L23.82 23.72Q27.64 19.86 32.72 17.74L32.72 17.74L32.72 17.74Q37.79 15.62 43.55 15.62L43.55 15.62L43.55 15.62Q49.31 15.62 54.39 17.78L54.39 17.78L54.39 17.78Q59.46 19.94 63.32 23.79L63.32 23.79L63.32 23.79Q67.17 27.64 69.33 32.72L69.33 32.72L69.33 32.72Q71.49 37.79 71.49 43.55L71.49 43.55L71.49 43.55Q71.49 49.31 69.33 54.39L69.33 54.39L69.33 54.39Q67.17 59.46 63.32 63.32L63.32 63.32L63.32 63.32Q59.46 67.17 54.39 69.33L54.39 69.33L54.39 69.33Q49.31 71.49 43.55 71.49ZM43.55 69.76L43.55 69.76L43.55 69.76Q48.95 69.76 53.70 67.71L53.70 67.71L53.70 67.71Q58.46 65.66 62.06 62.06L62.06 62.06L62.06 62.06Q65.66 58.46 67.71 53.70L67.71 53.70L67.71 53.70Q69.76 48.95 69.76 43.55L69.76 43.55L69.76 43.55Q69.76 38.15 67.71 33.40L67.71 33.40L67.71 33.40Q65.66 28.65 62.06 25.05L62.06 25.05L62.06 25.05Q58.46 21.45 53.70 19.40L53.70 19.40L53.70 19.40Q48.95 17.34 43.55 17.34L43.55 17.34L43.55 17.34Q38.15 17.34 33.40 19.40L33.40 19.40L33.40 19.40Q28.65 21.45 25.05 25.05L25.05 25.05L25.05 25.05Q21.45 28.65 19.40 33.40L19.40 33.40L19.40 33.40Q17.34 38.15 17.34 43.55L17.34 43.55L17.34 43.55Q17.34 49.02 19.40 53.78L19.40 53.78L19.40 53.78Q21.45 58.53 25.08 62.13L25.08 62.13L25.08 62.13Q28.72 65.73 33.47 67.74L33.47 67.74L33.47 67.74Q38.22 69.76 43.55 69.76ZM44.42 61.77L38.30 61.77L38.30 61.77Q38.73 54.93 39.92 49.56L39.92 49.56L39.92 49.56Q41.10 44.20 43.52 39.38L43.52 39.38L43.52 39.38Q45.93 34.55 49.96 29.51L49.96 29.51L30.52 29.51L30.52 24.47L56.73 24.47L56.73 28.07L56.73 28.07Q53.06 32.18 50.79 35.96L50.79 35.96L50.79 35.96Q48.52 39.74 47.22 43.59L47.22 43.59L47.22 43.59Q45.93 47.44 45.32 51.90L45.32 51.90L45.32 51.90Q44.70 56.37 44.42 61.77L44.42 61.77Z" fill="#1A1A1C"></path></svg>