<svg width="83.64800000000001" height="83.64800000000001" viewBox="0 0 83.64800000000001 83.64800000000001" fill="none" xmlns="http://www.w3.org/2000/svg"><path d="M24.62 67.06L18.57 67.06L18.57 23.64L10 23.64L10 19.40L10 19.40Q13.31 18.82 15.76 17.88L15.76 17.88L15.76 17.88Q18.21 16.95 20.22 15.65L20.22 15.65L24.62 15.65L24.62 67.06ZM50.03 67.06L43.91 67.06L43.91 67.06Q44.20 59.72 44.99 53.67L44.99 53.67L44.99 53.67Q45.78 47.62 47.19 42.26L47.19 42.26L47.19 42.26Q48.59 36.89 50.82 31.78L50.82 31.78L50.82 31.78Q53.06 26.67 56.15 21.20L56.15 21.20L35.20 21.20L35.20 15.65L62.99 15.65L62.99 19.68L62.99 19.68Q59.25 25.52 56.84 30.84L56.84 30.84L56.84 30.84Q54.42 36.17 53.02 41.64L53.02 41.64L53.02 41.64Q51.62 47.12 50.97 53.31L50.97 53.31L50.97 53.31Q50.32 59.50 50.03 67.06L50.03 67.06ZM68.68 68.00L68.68 68.00L68.68 68.00Q66.66 68.00 65.30 66.59L65.30 66.59L65.30 66.59Q63.93 65.19 63.93 62.96L63.93 62.96L63.93 62.96Q63.93 60.58 65.30 59.18L65.30 59.18L65.30 59.18Q66.66 57.77 68.68 57.77L68.68 57.77L68.68 57.77Q70.77 57.77 72.21 59.18L72.21 59.18L72.21 59.18Q73.65 60.58 73.65 62.96L73.65 62.96L73.65 62.96Q73.65 65.19 72.21 66.59L72.21 66.59L72.21 66.59Q70.77 68.00 68.68 68.00Z" fill="#1A1A1C"></path></svg>