<svg width="88.4" height="88.4" viewBox="0 0 88.4 88.4" fill="none" xmlns="http://www.w3.org/2000/svg"><path d="M73.76 10.00L73.76 56.94L73.76 56.94Q73.76 60.69 71.88 63.42L71.88 63.42L71.88 63.42Q70.01 66.16 67.02 67.67L67.02 67.67L67.02 67.67Q64.04 69.18 60.58 69.18L60.58 69.18L60.58 69.18Q58.13 69.18 56.01 67.85L56.01 67.85L56.01 67.85Q53.88 66.52 53.88 63.86L53.88 63.86L53.88 63.86Q53.88 61.26 55.76 59.00L55.76 59.00L55.76 59.00Q57.63 56.73 60.51 55.32L60.51 55.32L60.51 55.32Q63.39 53.92 66.34 53.92L66.34 53.92L66.34 53.92Q69.15 53.92 70.88 54.86L70.88 54.86L70.88 30.23L34.52 38.15L34.52 66.16L34.52 66.16Q34.52 69.90 32.64 72.64L32.64 72.64L32.64 72.64Q30.77 75.38 27.78 76.89L27.78 76.89L27.78 76.89Q24.80 78.40 21.34 78.40L21.34 78.40L21.34 78.40Q18.89 78.40 16.77 77.07L16.77 77.07L16.77 77.07Q14.64 75.74 14.64 73.07L14.64 73.07L14.64 73.07Q14.64 70.48 16.52 68.21L16.52 68.21L16.52 68.21Q18.39 65.94 21.27 64.54L21.27 64.54L21.27 64.54Q24.15 63.14 27.10 63.14L27.10 63.14L27.10 63.14Q29.91 63.14 31.64 64.07L31.64 64.07L31.64 19.22L73.76 10.00ZM70.88 23.03L70.88 17.85L34.52 25.77L34.52 30.95L70.88 23.03Z" fill="#1A1A1C"></path></svg>