<svg width="89.4870056037903" height="89.4870056037903" viewBox="0 0 89.4870056037903 89.4870056037903" fill="none" xmlns="http://www.w3.org/2000/svg"><path d="M44.74 15.04L44.74 15.04L44.74 15.04Q45.89 14.18 47.73 13.39L47.73 13.39L47.73 13.39Q49.56 12.59 51.33 12.09L51.33 12.09L51.33 12.09Q53.09 11.59 54.03 11.59L54.03 11.59L54.03 11.59Q54.60 11.59 55.32 12.02L55.32 12.02L55.32 12.02Q56.04 12.45 56.04 14.54L56.04 14.54L56.04 14.54Q56.04 18.50 54.75 23.36L54.75 23.36L54.75 23.36Q53.45 28.22 50.93 32.90L50.93 32.90L50.93 32.90Q48.41 37.58 44.81 41.11L44.81 41.11L44.67 41.11L44.67 41.11Q41.07 37.58 38.55 32.90L38.55 32.90L38.55 32.90Q36.03 28.22 34.73 23.36L34.73 23.36L34.73 23.36Q33.43 18.50 33.43 14.54L33.43 14.54L33.43 14.54Q33.43 12.45 34.15 12.02L34.15 12.02L34.15 12.02Q34.87 11.59 35.81 11.59L35.81 11.59L35.81 11.59Q36.75 11.59 38.40 12.09L38.40 12.09L38.40 12.09Q40.06 12.59 41.82 13.39L41.82 13.39L41.82 13.39Q43.59 14.18 44.74 15.04ZM44.74 17.56L44.74 17.56L44.74 17.56Q43.23 16.41 41.46 15.55L41.46 15.55L41.46 15.55Q39.70 14.68 38.19 14.21L38.19 14.21L38.19 14.21Q36.67 13.75 36.10 13.75L36.10 13.75L36.10 13.75Q35.74 13.75 35.63 13.89L35.63 13.89L35.63 13.89Q35.52 14.03 35.52 14.68L35.52 14.68L35.52 14.68Q35.52 18.43 36.71 22.71L36.71 22.71L36.71 22.71Q37.90 26.99 39.99 31.03L39.99 31.03L39.99 31.03Q42.07 35.06 44.67 38.08L44.67 38.08L44.81 38.08L44.81 38.08Q47.47 35.06 49.53 31.03L49.53 31.03L49.53 31.03Q51.58 26.99 52.77 22.71L52.77 22.71L52.77 22.71Q53.95 18.43 53.95 14.68L53.95 14.68L53.95 14.68Q53.95 14.03 53.88 13.89L53.88 13.89L53.88 13.89Q53.81 13.75 53.38 13.75L53.38 13.75L53.38 13.75Q52.80 13.75 51.29 14.21L51.29 14.21L51.29 14.21Q49.78 14.68 48.01 15.55L48.01 15.55L48.01 15.55Q46.25 16.41 44.74 17.56ZM16.23 35.71L16.23 35.71L16.23 35.71Q15.79 34.34 15.61 32.36L15.61 32.36L15.61 32.36Q15.43 30.38 15.51 28.54L15.51 28.54L15.51 28.54Q15.58 26.71 15.87 25.84L15.87 25.84L15.87 25.84Q16.01 25.27 16.62 24.73L16.62 24.73L16.62 24.73Q17.23 24.19 19.25 24.83L19.25 24.83L19.25 24.83Q23.07 26.06 27.28 28.79L27.28 28.79L27.28 28.79Q31.49 31.53 35.16 35.35L35.16 35.35L35.16 35.35Q38.83 39.16 41.07 43.70L41.07 43.70L40.99 43.84L40.99 43.84Q36.53 46.15 31.31 47.12L31.31 47.12L31.31 47.12Q26.09 48.09 21.09 47.84L21.09 47.84L21.09 47.84Q16.08 47.59 12.27 46.36L12.27 46.36L12.27 46.36Q10.25 45.71 10.07 44.92L10.07 44.92L10.07 44.92Q9.89 44.13 10.18 43.19L10.18 43.19L10.18 43.19Q10.47 42.33 11.47 40.89L11.47 40.89L11.47 40.89Q12.48 39.45 13.78 37.97L13.78 37.97L13.78 37.97Q15.07 36.50 16.23 35.71ZM73.25 35.71L73.25 35.71L73.25 35.71Q74.40 36.50 75.70 38.05L75.70 38.05L75.70 38.05Q76.99 39.59 78.04 41.11L78.04 41.11L78.04 41.11Q79.08 42.62 79.37 43.48L79.37 43.48L79.37 43.48Q79.59 44.06 79.41 44.89L79.41 44.89L79.41 44.89Q79.23 45.71 77.21 46.36L77.21 46.36L77.21 46.36Q73.39 47.59 68.39 47.84L68.39 47.84L68.39 47.84Q63.39 48.09 58.17 47.12L58.17 47.12L58.17 47.12Q52.95 46.15 48.48 43.84L48.48 43.84L48.41 43.70L48.41 43.70Q50.64 39.16 54.31 35.35L54.31 35.35L54.31 35.35Q57.99 31.53 62.20 28.79L62.20 28.79L62.20 28.79Q66.41 26.06 70.23 24.83L70.23 24.83L70.23 24.83Q72.24 24.19 72.85 24.73L72.85 24.73L72.85 24.73Q73.47 25.27 73.75 26.20L73.75 26.20L73.75 26.20Q74.04 26.99 74.08 28.76L74.08 28.76L74.08 28.76Q74.11 30.52 73.93 32.43L73.93 32.43L73.93 32.43Q73.75 34.34 73.25 35.71ZM18.67 36.50L18.67 36.50L18.67 36.50Q17.09 37.58 15.72 39.02L15.72 39.02L15.72 39.02Q14.35 40.46 13.45 41.72L13.45 41.72L13.45 41.72Q12.55 42.98 12.34 43.55L12.34 43.55L12.34 43.55Q12.19 43.91 12.34 44.06L12.34 44.06L12.34 44.06Q12.48 44.20 13.06 44.42L13.06 44.42L13.06 44.42Q16.66 45.50 21.12 45.71L21.12 45.71L21.12 45.71Q25.59 45.93 30.05 45.21L30.05 45.21L30.05 45.21Q34.51 44.49 38.11 42.91L38.11 42.91L38.19 42.76L38.19 42.76Q36.17 39.31 33.00 36.10L33.00 36.10L33.00 36.10Q29.83 32.90 26.09 30.45L26.09 30.45L26.09 30.45Q22.35 28.00 18.75 26.92L18.75 26.92L18.75 26.92Q18.17 26.71 17.99 26.71L17.99 26.71L17.99 26.71Q17.81 26.71 17.67 27.14L17.67 27.14L17.67 27.14Q17.52 27.71 17.49 29.26L17.49 29.26L17.49 29.26Q17.45 30.81 17.74 32.75L17.74 32.75L17.74 32.75Q18.03 34.70 18.67 36.50ZM70.80 36.50L70.80 36.50L70.80 36.50Q71.45 34.70 71.74 32.75L71.74 32.75L71.74 32.75Q72.03 30.81 72.03 29.26L72.03 29.26L72.03 29.26Q72.03 27.71 71.81 27.14L71.81 27.14L71.81 27.14Q71.74 26.71 71.52 26.71L71.52 26.71L71.52 26.71Q71.31 26.71 70.73 26.92L70.73 26.92L70.73 26.92Q67.13 28.00 63.42 30.49L63.42 30.49L63.42 30.49Q59.71 32.97 56.51 36.14L56.51 36.14L56.51 36.14Q53.31 39.31 51.29 42.76L51.29 42.76L51.36 42.91L51.36 42.91Q55.03 44.49 59.50 45.21L59.50 45.21L59.50 45.21Q63.96 45.93 68.39 45.71L68.39 45.71L68.39 45.71Q72.82 45.50 76.42 44.42L76.42 44.42L76.42 44.42Q76.99 44.20 77.14 44.06L77.14 44.06L77.14 44.06Q77.28 43.91 77.14 43.55L77.14 43.55L77.14 43.55Q76.99 42.98 76.06 41.72L76.06 41.72L76.06 41.72Q75.12 40.46 73.75 39.02L73.75 39.02L73.75 39.02Q72.39 37.58 70.80 36.50ZM27.10 69.26L27.10 69.26L27.10 69.26Q25.66 69.26 23.71 68.83L23.71 68.83L23.71 68.83Q21.77 68.39 20.08 67.75L20.08 67.75L20.08 67.75Q18.39 67.10 17.59 66.59L17.59 66.59L17.59 66.59Q17.09 66.23 16.77 65.44L16.77 65.44L16.77 65.44Q16.44 64.65 17.67 62.99L17.67 62.99L17.67 62.99Q20.04 59.75 23.97 56.62L23.97 56.62L23.97 56.62Q27.89 53.49 32.64 51.15L32.64 51.15L32.64 51.15Q37.39 48.81 42.36 48.09L42.36 48.09L42.51 48.16L42.51 48.16Q43.37 53.13 42.65 58.39L42.65 58.39L42.65 58.39Q41.93 63.64 40.13 68.32L40.13 68.32L40.13 68.32Q38.33 73.00 35.95 76.24L35.95 76.24L35.95 76.24Q34.73 77.97 33.94 77.90L33.94 77.90L33.94 77.90Q33.15 77.83 32.35 77.25L32.35 77.25L32.35 77.25Q31.63 76.75 30.55 75.34L30.55 75.34L30.55 75.34Q29.47 73.94 28.50 72.28L28.50 72.28L28.50 72.28Q27.53 70.63 27.10 69.26ZM62.38 69.26L62.38 69.26L62.38 69.26Q61.95 70.63 60.90 72.35L60.90 72.35L60.90 72.35Q59.86 74.08 58.74 75.49L58.74 75.49L58.74 75.49Q57.63 76.89 56.83 77.47L56.83 77.47L56.83 77.47Q56.33 77.83 55.54 77.90L55.54 77.90L55.54 77.90Q54.75 77.97 53.52 76.24L53.52 76.24L53.52 76.24Q51.15 73.00 49.35 68.32L49.35 68.32L49.35 68.32Q47.55 63.64 46.86 58.39L46.86 58.39L46.86 58.39Q46.18 53.13 46.97 48.16L46.97 48.16L47.11 48.09L47.11 48.09Q52.08 48.81 56.87 51.15L56.87 51.15L56.87 51.15Q61.66 53.49 65.55 56.62L65.55 56.62L65.55 56.62Q69.43 59.75 71.81 62.99L71.81 62.99L71.81 62.99Q73.03 64.65 72.71 65.41L72.71 65.41L72.71 65.41Q72.39 66.16 71.59 66.74L71.59 66.74L71.59 66.74Q70.87 67.24 69.22 67.85L69.22 67.85L69.22 67.85Q67.56 68.47 65.69 68.86L65.69 68.86L65.69 68.86Q63.82 69.26 62.38 69.26ZM28.61 67.17L28.61 67.17L28.61 67.17Q29.19 68.97 30.09 70.73L30.09 70.73L30.09 70.73Q30.99 72.50 31.92 73.76L31.92 73.76L31.92 73.76Q32.86 75.02 33.36 75.38L33.36 75.38L33.36 75.38Q33.72 75.59 33.87 75.52L33.87 75.52L33.87 75.52Q34.01 75.45 34.37 74.87L34.37 74.87L34.37 74.87Q36.60 71.85 38.15 67.67L38.15 67.67L38.15 67.67Q39.70 63.50 40.42 59.03L40.42 59.03L40.42 59.03Q41.14 54.57 40.71 50.61L40.71 50.61L40.63 50.54L40.63 50.54Q36.67 51.40 32.64 53.45L32.64 53.45L32.64 53.45Q28.61 55.51 25.15 58.28L25.15 58.28L25.15 58.28Q21.70 61.05 19.47 64.07L19.47 64.07L19.47 64.07Q19.11 64.58 19.07 64.76L19.07 64.76L19.07 64.76Q19.03 64.94 19.32 65.23L19.32 65.23L19.32 65.23Q19.83 65.51 21.34 66.02L21.34 66.02L21.34 66.02Q22.85 66.52 24.79 66.88L24.79 66.88L24.79 66.88Q26.74 67.24 28.61 67.17ZM60.87 67.17L60.87 67.17L60.87 67.17Q62.74 67.24 64.68 66.88L64.68 66.88L64.68 66.88Q66.63 66.52 68.14 66.02L68.14 66.02L68.14 66.02Q69.65 65.51 70.15 65.23L70.15 65.23L70.15 65.23Q70.44 64.94 70.41 64.76L70.41 64.76L70.41 64.76Q70.37 64.58 70.01 64.07L70.01 64.07L70.01 64.07Q67.78 61.05 64.32 58.28L64.32 58.28L64.32 58.28Q60.87 55.51 56.83 53.45L56.83 53.45L56.83 53.45Q52.80 51.40 48.84 50.54L48.84 50.54L48.77 50.61L48.77 50.61Q48.34 54.64 49.06 59.11L49.06 59.11L49.06 59.11Q49.78 63.57 51.36 67.71L51.36 67.71L51.36 67.71Q52.95 71.85 55.11 74.87L55.11 74.87L55.11 74.87Q55.47 75.45 55.61 75.52L55.61 75.52L55.61 75.52Q55.75 75.59 56.11 75.38L56.11 75.38L56.11 75.38Q56.62 75.02 57.55 73.76L57.55 73.76L57.55 73.76Q58.49 72.50 59.43 70.73L59.43 70.73L59.43 70.73Q60.36 68.97 60.87 67.17Z" fill="#1A1A1C"></path></svg>