<svg width="84.584" height="84.584" viewBox="0 0 84.584 84.584" fill="none" xmlns="http://www.w3.org/2000/svg"><path d="M60.94 14.82L23.64 14.82L23.64 10.00L60.94 10.00L60.94 14.82ZM25.30 68.32L19.04 74.58L15.80 71.34L22.06 65.08L22.06 65.08Q19.18 61.62 17.52 57.30L17.52 57.30L17.52 57.30Q15.87 52.98 15.87 48.09L15.87 48.09L15.87 48.09Q15.87 42.62 17.92 37.83L17.92 37.83L17.92 37.83Q19.97 33.04 23.61 29.40L23.61 29.40L23.61 29.40Q27.24 25.77 32.03 23.72L32.03 23.72L32.03 23.72Q36.82 21.66 42.29 21.66L42.29 21.66L42.29 21.66Q47.19 21.66 51.51 23.32L51.51 23.32L51.51 23.32Q55.83 24.98 59.28 27.86L59.28 27.86L65.55 21.59L68.79 24.83L62.52 31.10L62.52 31.10Q65.40 34.55 67.06 38.87L67.06 38.87L67.06 38.87Q68.72 43.19 68.72 48.09L68.72 48.09L68.72 48.09Q68.72 53.56 66.66 58.35L66.66 58.35L66.66 58.35Q64.61 63.14 60.94 66.77L60.94 66.77L60.94 66.77Q57.27 70.41 52.48 72.46L52.48 72.46L52.48 72.46Q47.69 74.51 42.29 74.51L42.29 74.51L42.29 74.51Q37.40 74.51 33.08 72.86L33.08 72.86L33.08 72.86Q28.76 71.20 25.30 68.32L25.30 68.32ZM21.05 48.09L21.05 48.09L21.05 48.09Q21.05 51.90 22.31 55.29L22.31 55.29L22.31 55.29Q23.57 58.67 25.73 61.41L25.73 61.41L55.61 31.53L55.61 31.53Q52.88 29.37 49.49 28.11L49.49 28.11L49.49 28.11Q46.11 26.85 42.29 26.85L42.29 26.85L42.29 26.85Q37.90 26.85 34.05 28.50L34.05 28.50L34.05 28.50Q30.20 30.16 27.28 33.08L27.28 33.08L27.28 33.08Q24.36 35.99 22.71 39.84L22.71 39.84L22.71 39.84Q21.05 43.70 21.05 48.09ZM42.29 69.33L42.29 69.33L42.29 69.33Q46.68 69.33 50.54 67.67L50.54 67.67L50.54 67.67Q54.39 66.02 57.30 63.10L57.30 63.10L57.30 63.10Q60.22 60.18 61.88 56.33L61.88 56.33L61.88 56.33Q63.53 52.48 63.53 48.09L63.53 48.09L63.53 48.09Q63.53 44.27 62.27 40.89L62.27 40.89L62.27 40.89Q61.01 37.50 58.85 34.77L58.85 34.77L28.97 64.65L28.97 64.65Q31.71 66.81 35.09 68.07L35.09 68.07L35.09 68.07Q38.48 69.33 42.29 69.33Z" fill="#1A1A1C"></path></svg>