<svg width="72.992" height="72.992" viewBox="0 0 72.992 72.992" fill="none" xmlns="http://www.w3.org/2000/svg"><path d="M19.50 56.73L13.24 62.99L10 59.75L16.26 53.49L16.26 53.49Q13.38 50.03 11.73 45.71L11.73 45.71L11.73 45.71Q10.07 41.39 10.07 36.50L10.07 36.50L10.07 36.50Q10.07 31.60 11.73 27.28L11.73 27.28L11.73 27.28Q13.38 22.96 16.26 19.50L16.26 19.50L10 13.24L13.24 10L19.50 16.26L19.50 16.26Q22.96 13.38 27.28 11.73L27.28 11.73L27.28 11.73Q31.60 10.07 36.50 10.07L36.50 10.07L36.50 10.07Q41.39 10.07 45.71 11.73L45.71 11.73L45.71 11.73Q50.03 13.38 53.49 16.26L53.49 16.26L59.75 10L62.99 13.24L56.73 19.50L56.73 19.50Q59.61 22.96 61.26 27.28L61.26 27.28L61.26 27.28Q62.92 31.60 62.92 36.50L62.92 36.50L62.92 36.50Q62.92 41.32 61.26 45.68L61.26 45.68L61.26 45.68Q59.61 50.03 56.73 53.49L56.73 53.49L62.99 59.75L59.75 62.99L53.49 56.73L53.49 56.73Q50.03 59.61 45.68 61.26L45.68 61.26L45.68 61.26Q41.32 62.92 36.50 62.92L36.50 62.92L36.50 62.92Q31.60 62.92 27.28 61.26L27.28 61.26L27.28 61.26Q22.96 59.61 19.50 56.73L19.50 56.73ZM36.50 15.26L36.50 15.26L36.50 15.26Q32.68 15.26 29.30 16.52L29.30 16.52L29.30 16.52Q25.91 17.78 23.18 19.94L23.18 19.94L36.50 33.26L49.82 19.94L49.82 19.94Q47.08 17.78 43.70 16.52L43.70 16.52L43.70 16.52Q40.31 15.26 36.50 15.26ZM57.74 36.50L57.74 36.50L57.74 36.50Q57.74 32.68 56.48 29.30L56.48 29.30L56.48 29.30Q55.22 25.91 53.06 23.18L53.06 23.18L39.74 36.50L53.06 49.82L53.06 49.82Q55.22 47.08 56.48 43.70L56.48 43.70L56.48 43.70Q57.74 40.31 57.74 36.50ZM15.26 36.50L15.26 36.50L15.26 36.50Q15.26 40.31 16.52 43.70L16.52 43.70L16.52 43.70Q17.78 47.08 19.94 49.82L19.94 49.82L33.26 36.50L19.94 23.18L19.94 23.18Q17.78 25.91 16.52 29.30L16.52 29.30L16.52 29.30Q15.26 32.68 15.26 36.50ZM36.50 57.74L36.50 57.74L36.50 57.74Q40.31 57.74 43.70 56.48L43.70 56.48L43.70 56.48Q47.08 55.22 49.82 53.06L49.82 53.06L36.50 39.74L23.18 53.06L23.18 53.06Q25.91 55.22 29.30 56.48L29.30 56.48L29.30 56.48Q32.68 57.74 36.50 57.74Z" fill="#1A1A1C"></path></svg>