<svg width="75.656" height="75.656" viewBox="0 0 75.656 75.656" fill="none" xmlns="http://www.w3.org/2000/svg"><path d="M37.83 65.66L37.83 65.66L37.83 65.66Q32.93 65.66 28.68 63.82L28.68 63.82L28.68 63.82Q24.44 61.98 21.20 58.74L21.20 58.74L21.20 58.74Q17.96 55.50 16.12 51.26L16.12 51.26L16.12 51.26Q14.28 47.01 14.28 42.11L14.28 42.11L14.28 42.11Q14.28 37.50 15.90 33.47L15.90 33.47L15.90 33.47Q17.52 29.44 20.44 26.24L20.44 26.24L20.44 26.24Q23.36 23.03 27.21 21.09L27.21 21.09L27.21 21.09Q31.06 19.14 35.52 18.71L35.52 18.71L35.52 18.71Q33.00 15.83 30.27 10.00L30.27 10.00L33.44 10.00L33.44 10.00Q39.20 16.70 45.24 19.72L45.24 19.72L45.24 19.72Q49.92 21.30 53.56 24.58L53.56 24.58L53.56 24.58Q57.20 27.86 59.28 32.39L59.28 32.39L59.28 32.39Q61.37 36.93 61.37 42.11L61.37 42.11L61.37 42.11Q61.37 47.01 59.54 51.26L59.54 51.26L59.54 51.26Q57.70 55.50 54.46 58.74L54.46 58.74L54.46 58.74Q51.22 61.98 46.97 63.82L46.97 63.82L46.97 63.82Q42.72 65.66 37.83 65.66ZM37.83 61.77L37.83 61.77L37.83 61.77Q41.93 61.77 45.50 60.26L45.50 60.26L45.50 60.26Q49.06 58.74 51.76 56.04L51.76 56.04L51.76 56.04Q54.46 53.34 55.97 49.78L55.97 49.78L55.97 49.78Q57.48 46.22 57.48 42.11L57.48 42.11L57.48 42.11Q57.48 37.50 55.54 33.58L55.54 33.58L55.54 33.58Q53.60 29.66 50.25 26.88L50.25 26.88L50.25 26.88Q46.90 24.11 42.65 23.03L42.65 23.03L42.65 23.03Q37.90 26.13 33.44 31.31L33.44 31.31L30.27 31.31L30.27 31.31Q33.00 25.41 35.60 22.60L35.60 22.60L35.60 22.60Q30.63 23.18 26.70 25.88L26.70 25.88L26.70 25.88Q22.78 28.58 20.48 32.82L20.48 32.82L20.48 32.82Q18.17 37.07 18.17 42.11L18.17 42.11L18.17 42.11Q18.17 46.22 19.68 49.78L19.68 49.78L19.68 49.78Q21.20 53.34 23.90 56.04L23.90 56.04L23.90 56.04Q26.60 58.74 30.16 60.26L30.16 60.26L30.16 60.26Q33.72 61.77 37.83 61.77Z" fill="#1A1A1C"></path></svg>