<svg width="79.47200000000001" height="79.47200000000001" viewBox="0 0 79.47200000000001 79.47200000000001" fill="none" xmlns="http://www.w3.org/2000/svg"><path d="M39.74 69.47L39.74 69.47L39.74 69.47Q33.62 69.47 28.22 67.17L28.22 67.17L28.22 67.17Q22.82 64.86 18.71 60.76L18.71 60.76L18.71 60.76Q14.61 56.66 12.30 51.26L12.30 51.26L12.30 51.26Q10 45.86 10 39.74L10 39.74L10 39.74Q10 33.54 12.30 28.18L12.30 28.18L12.30 28.18Q14.61 22.82 18.71 18.71L18.71 18.71L18.71 18.71Q22.82 14.61 28.22 12.30L28.22 12.30L28.22 12.30Q33.62 10 39.74 10L39.74 10L39.74 10Q45.93 10 51.29 12.30L51.29 12.30L51.29 12.30Q56.66 14.61 60.76 18.71L60.76 18.71L60.76 18.71Q64.86 22.82 67.17 28.18L67.17 28.18L67.17 28.18Q69.47 33.54 69.47 39.74L69.47 39.74L69.47 39.74Q69.47 45.86 67.17 51.26L67.17 51.26L67.17 51.26Q64.86 56.66 60.76 60.76L60.76 60.76L60.76 60.76Q56.66 64.86 51.29 67.17L51.29 67.17L51.29 67.17Q45.93 69.47 39.74 69.47ZM39.74 65.80L39.74 65.80L39.74 65.80Q45.14 65.80 49.85 63.78L49.85 63.78L49.85 63.78Q54.57 61.77 58.17 58.17L58.17 58.17L58.17 58.17Q61.77 54.57 63.78 49.85L63.78 49.85L63.78 49.85Q65.80 45.14 65.80 39.74L65.80 39.74L65.80 39.74Q65.80 34.34 63.78 29.62L63.78 29.62L63.78 29.62Q61.77 24.90 58.17 21.30L58.17 21.30L58.17 21.30Q54.57 17.70 49.85 15.69L49.85 15.69L49.85 15.69Q45.14 13.67 39.74 13.67L39.74 13.67L39.74 13.67Q34.34 13.67 29.62 15.69L29.62 15.69L29.62 15.69Q24.90 17.70 21.30 21.30L21.30 21.30L21.30 21.30Q17.70 24.90 15.69 29.62L15.69 29.62L15.69 29.62Q13.67 34.34 13.67 39.74L13.67 39.74L13.67 39.74Q13.67 45.14 15.69 49.85L15.69 49.85L15.69 49.85Q17.70 54.57 21.30 58.17L21.30 58.17L21.30 58.17Q24.90 61.77 29.62 63.78L29.62 63.78L29.62 63.78Q34.34 65.80 39.74 65.80ZM39.74 59.97L39.74 59.97L39.74 59.97Q35.56 59.97 31.89 58.38L31.89 58.38L31.89 58.38Q28.22 56.80 25.44 54.03L25.44 54.03L25.44 54.03Q22.67 51.26 21.09 47.58L21.09 47.58L21.09 47.58Q19.50 43.91 19.50 39.74L19.50 39.74L19.50 39.74Q19.50 35.56 21.09 31.89L21.09 31.89L21.09 31.89Q22.67 28.22 25.44 25.44L25.44 25.44L25.44 25.44Q28.22 22.67 31.89 21.09L31.89 21.09L31.89 21.09Q35.56 19.50 39.74 19.50L39.74 19.50L39.74 19.50Q43.91 19.50 47.58 21.09L47.58 21.09L47.58 21.09Q51.26 22.67 54.03 25.44L54.03 25.44L54.03 25.44Q56.80 28.22 58.38 31.89L58.38 31.89L58.38 31.89Q59.97 35.56 59.97 39.74L59.97 39.74L59.97 39.74Q59.97 43.91 58.38 47.58L58.38 47.58L58.38 47.58Q56.80 51.26 54.03 54.03L54.03 54.03L54.03 54.03Q51.26 56.80 47.58 58.38L47.58 58.38L47.58 58.38Q43.91 59.97 39.74 59.97ZM39.74 56.30L39.74 56.30L39.74 56.30Q44.34 56.30 48.09 54.06L48.09 54.06L48.09 54.06Q51.83 51.83 54.06 48.05L54.06 48.05L54.06 48.05Q56.30 44.27 56.30 39.74L56.30 39.74L56.30 39.74Q56.30 35.13 54.06 31.38L54.06 31.38L54.06 31.38Q51.83 27.64 48.09 25.41L48.09 25.41L48.09 25.41Q44.34 23.18 39.74 23.18L39.74 23.18L39.74 23.18Q35.20 23.18 31.42 25.41L31.42 25.41L31.42 25.41Q27.64 27.64 25.41 31.38L25.41 31.38L25.41 31.38Q23.18 35.13 23.18 39.74L23.18 39.74L23.18 39.74Q23.18 44.27 25.41 48.05L25.41 48.05L25.41 48.05Q27.64 51.83 31.42 54.06L31.42 54.06L31.42 54.06Q35.20 56.30 39.74 56.30ZM39.74 43.19L32.32 50.61L28.86 47.15L36.28 39.74L28.86 32.32L32.32 28.86L39.74 36.28L47.15 28.86L50.61 32.32L43.19 39.74L50.61 47.15L47.15 50.61L39.74 43.19Z" fill="#1A1A1C"></path></svg>