<svg width="88.68800000000002" height="88.68800000000002" viewBox="0 0 88.68800000000002 88.68800000000002" fill="none" xmlns="http://www.w3.org/2000/svg"><path d="M25.98 10.00L40.17 10.00L40.17 10.00Q49.74 10.00 54.32 13.64L54.32 13.64L54.32 13.64Q58.89 17.27 58.89 24.62L58.89 24.62L58.89 24.62Q58.89 28.72 57.38 31.46L57.38 31.46L57.38 31.46Q55.86 34.19 53.52 35.81L53.52 35.81L53.52 35.81Q51.18 37.43 48.59 38.37L48.59 38.37L62.70 61.41L55.14 61.41L42.69 40.17L32.46 40.17L32.46 67.10L32.46 67.10Q32.46 70.48 33.62 71.74L33.62 71.74L33.62 71.74Q34.77 73.00 37.00 73.00L37.00 73.00L37.00 73.00Q37.94 73.00 38.73 72.78L38.73 72.78L38.73 72.78Q39.52 72.57 40.24 72.28L40.24 72.28L40.24 77.75L40.24 77.75Q39.52 78.18 38.51 78.44L38.51 78.44L38.51 78.44Q37.50 78.69 36.21 78.69L36.21 78.69L36.21 78.69Q31.38 78.69 28.68 75.99L28.68 75.99L28.68 75.99Q25.98 73.29 25.98 67.38L25.98 67.38L25.98 10.00ZM39.81 15.62L39.81 15.62L32.46 15.62L32.46 34.70L40.17 34.70L40.17 34.70Q46.43 34.70 49.31 32.21L49.31 32.21L49.31 32.21Q52.19 29.73 52.19 24.90L52.19 24.90L52.19 24.90Q52.19 19.86 49.17 17.74L49.17 17.74L49.17 17.74Q46.14 15.62 39.81 15.62Z" fill="#1A1A1C"></path></svg>