<svg width="71.40800000000002" height="71.40800000000002" viewBox="0 0 71.40800000000002 71.40800000000002" fill="none" xmlns="http://www.w3.org/2000/svg"><path d="M28.86 61.41L22.38 61.41L22.38 29.22L16.12 29.22L16.12 23.61L22.38 23.61L22.38 10L35.99 10L35.99 10Q46.07 10 50.68 14.07L50.68 14.07L50.68 14.07Q55.29 18.14 55.29 25.84L55.29 25.84L55.29 25.84Q55.29 30.45 53.38 34.30L53.38 34.30L53.38 34.30Q51.47 38.15 46.97 40.49L46.97 40.49L46.97 40.49Q42.47 42.83 34.77 42.83L34.77 42.83L28.86 42.83L28.86 61.41ZM28.86 37.29L34.05 37.29L34.05 37.29Q41.39 37.29 44.99 34.80L44.99 34.80L44.99 34.80Q48.59 32.32 48.59 26.13L48.59 26.13L48.59 26.13Q48.59 20.58 45.42 18.06L45.42 18.06L45.42 18.06Q42.26 15.54 35.42 15.54L35.42 15.54L28.86 15.54L28.86 23.61L39.38 23.61L39.38 29.22L28.86 29.22L28.86 37.29Z" fill="#1A1A1C"></path></svg>