<svg width="71.62400000000001" height="71.62400000000001" viewBox="0 0 71.62400000000001 71.62400000000001" fill="none" xmlns="http://www.w3.org/2000/svg"><path d="M12.84 10L19.54 10L25.73 25.91L46.11 25.91L52.23 10L58.78 10L38.69 61.62L32.86 61.62L12.84 10ZM27.68 31.67L33.44 47.22L33.44 47.22Q33.65 47.80 34.16 49.31L34.16 49.31L34.16 49.31Q34.66 50.82 35.16 52.41L35.16 52.41L35.16 52.41Q35.67 53.99 35.88 54.93L35.88 54.93L35.88 54.93Q36.46 52.70 37.07 50.57L37.07 50.57L37.07 50.57Q37.68 48.45 38.12 47.22L38.12 47.22L43.95 31.67L27.68 31.67Z" fill="#1A1A1C"></path></svg>