<svg width="79.832" height="79.832" viewBox="0 0 79.832 79.832" fill="none" xmlns="http://www.w3.org/2000/svg"><path d="M50.28 42.47L50.28 42.47L50.28 42.47Q50.28 39.38 48.74 37.07L48.74 37.07L48.74 37.07Q47.19 34.77 44.45 33.40L44.45 33.40L44.45 33.40Q41.72 32.03 37.97 32.03L37.97 32.03L37.97 32.03Q33.87 32.03 30.16 32.68L30.16 32.68L30.16 32.68Q26.45 33.33 23.46 34.19L23.46 34.19L23.46 34.19Q20.48 35.06 18.39 35.70L18.39 35.70L18.39 35.70Q16.66 36.14 15.11 36.75L15.11 36.75L15.11 36.75Q13.56 37.36 12.27 37.86L12.27 37.86L10.47 31.24L10.47 31.24Q11.91 31.10 13.67 30.77L13.67 30.77L13.67 30.77Q15.44 30.45 17.02 30.16L17.02 30.16L17.02 30.16Q19.61 29.51 23.03 28.72L23.03 28.72L23.03 28.72Q26.45 27.93 30.45 27.28L30.45 27.28L30.45 27.28Q34.44 26.63 38.55 26.63L38.55 26.63L38.55 26.63Q43.66 26.63 47.73 28.50L47.73 28.50L47.73 28.50Q51.80 30.38 54.10 33.94L54.10 33.94L54.10 33.94Q56.40 37.50 56.40 42.69L56.40 42.69L56.40 42.69Q56.40 48.52 53.96 53.09L53.96 53.09L53.96 53.09Q51.51 57.66 47.08 61.05L47.08 61.05L47.08 61.05Q42.65 64.43 36.71 66.63L36.71 66.63L36.71 66.63Q30.77 68.82 23.79 69.83L23.79 69.83L20.48 64.43L20.48 64.43Q27.03 63.57 32.46 61.84L32.46 61.84L32.46 61.84Q37.90 60.11 41.90 57.41L41.90 57.41L41.90 57.41Q45.89 54.71 48.09 50.97L48.09 50.97L48.09 50.97Q50.28 47.22 50.28 42.47ZM19.11 15.47L20.04 10.00L20.04 10.00Q23.07 10.65 27.17 11.26L27.17 11.26L27.17 11.26Q31.28 11.87 35.70 12.30L35.70 12.30L35.70 12.30Q40.13 12.74 44.09 13.02L44.09 13.02L44.09 13.02Q48.05 13.31 50.64 13.31L50.64 13.31L49.78 18.86L49.78 18.86Q46.83 18.64 42.83 18.32L42.83 18.32L42.83 18.32Q38.84 17.99 34.52 17.52L34.52 17.52L34.52 17.52Q30.20 17.06 26.20 16.52L26.20 16.52L26.20 16.52Q22.20 15.98 19.11 15.47L19.11 15.47ZM51.51 18.50L55.32 16.84L55.32 16.84Q56.26 18.06 57.38 19.83L57.38 19.83L57.38 19.83Q58.49 21.59 59.50 23.43L59.50 23.43L59.50 23.43Q60.51 25.26 61.30 26.70L61.30 26.70L57.41 28.50L57.41 28.50Q56.33 26.27 54.64 23.39L54.64 23.39L54.64 23.39Q52.95 20.51 51.51 18.50L51.51 18.50ZM59.50 15.62L63.32 13.96L63.32 13.96Q64.25 15.26 65.40 17.06L65.40 17.06L65.40 17.06Q66.56 18.86 67.64 20.66L67.64 20.66L67.64 20.66Q68.72 22.46 69.36 23.75L69.36 23.75L65.48 25.55L65.48 25.55Q64.32 23.18 62.67 20.40L62.67 20.40L62.67 20.40Q61.01 17.63 59.50 15.62L59.50 15.62Z" fill="#1A1A1C"></path></svg>