<svg width="65.936" height="65.936" viewBox="0 0 65.936 65.936" fill="none" xmlns="http://www.w3.org/2000/svg"><path d="M51.90 10.61L55.94 13.28L55.94 13.28Q55.79 13.49 55.61 14.07L55.61 14.07L55.61 14.07Q55.43 14.64 55.29 15.22L55.29 15.22L55.29 15.22Q55.14 15.80 55.07 16.16L55.07 16.16L55.07 16.16Q54.50 20.12 53.56 24.40L53.56 24.40L53.56 24.40Q52.62 28.68 51.08 32.61L51.08 32.61L51.08 32.61Q49.53 36.53 47.22 39.63L47.22 39.63L47.22 39.63Q43.26 44.88 37.83 48.84L37.83 48.84L37.83 48.84Q32.39 52.80 25.12 55.32L25.12 55.32L20.37 50.50L20.37 50.50Q26.78 48.92 32.28 45.50L32.28 45.50L32.28 45.50Q37.79 42.08 41.68 37.11L41.68 37.11L41.68 37.11Q44.63 33.36 46.36 28.22L46.36 28.22L46.36 28.22Q48.09 23.07 48.74 16.30L48.74 16.30L48.74 16.30Q47.94 16.30 45.53 16.30L45.53 16.30L45.53 16.30Q43.12 16.30 39.77 16.30L39.77 16.30L39.77 16.30Q36.42 16.30 32.72 16.30L32.72 16.30L32.72 16.30Q29.01 16.30 25.55 16.30L25.55 16.30L25.55 16.30Q22.10 16.30 19.54 16.30L19.54 16.30L19.54 16.30Q16.98 16.30 15.98 16.30L15.98 16.30L15.98 16.30Q15.98 16.95 15.98 18.46L15.98 18.46L15.98 18.46Q15.98 19.97 15.98 21.77L15.98 21.77L15.98 21.77Q15.98 23.57 15.98 25.12L15.98 25.12L15.98 25.12Q15.98 26.67 15.98 27.39L15.98 27.39L15.98 27.39Q15.98 27.96 16.01 29.12L16.01 29.12L16.01 29.12Q16.05 30.27 16.05 31.42L16.05 31.42L10 31.42L10 31.42Q10.14 30.34 10.18 29.26L10.18 29.26L10.18 29.26Q10.22 28.18 10.22 27.39L10.22 27.39L10.22 27.39Q10.22 26.67 10.22 25.01L10.22 25.01L10.22 25.01Q10.22 23.36 10.22 21.38L10.22 21.38L10.22 21.38Q10.22 19.40 10.22 17.63L10.22 17.63L10.22 17.63Q10.22 15.87 10.22 15.00L10.22 15.00L10.22 15.00Q10.22 14.00 10.14 12.88L10.14 12.88L10.14 12.88Q10.07 11.76 10 10.90L10 10.90L10 10.90Q11.22 10.97 12.92 11.01L12.92 11.01L12.92 11.01Q14.61 11.04 16.48 11.04L16.48 11.04L16.48 11.04Q16.91 11.04 19.22 11.04L19.22 11.04L19.22 11.04Q21.52 11.04 24.83 11.04L24.83 11.04L24.83 11.04Q28.14 11.04 31.82 11.04L31.82 11.04L31.82 11.04Q35.49 11.04 38.91 11.04L38.91 11.04L38.91 11.04Q42.33 11.04 44.85 11.04L44.85 11.04L44.85 11.04Q47.37 11.04 48.16 11.04L48.16 11.04L48.16 11.04Q49.10 11.04 50.07 10.97L50.07 10.97L50.07 10.97Q51.04 10.90 51.90 10.61L51.90 10.61Z" fill="#1A1A1C"></path></svg>