<svg width="79.04" height="79.04" viewBox="0 0 79.04 79.04" fill="none" xmlns="http://www.w3.org/2000/svg"><path d="M38.22 15.00L44.27 15.08L44.27 15.08Q43.55 20.69 42.44 26.81L42.44 26.81L42.44 26.81Q41.32 32.93 39.59 38.69L39.59 38.69L39.59 38.69Q37.43 46.11 34.80 51.08L34.80 51.08L34.80 51.08Q32.18 56.04 29.15 58.56L29.15 58.56L29.15 58.56Q26.13 61.08 22.82 61.08L22.82 61.08L22.82 61.08Q19.65 61.08 16.70 58.78L16.70 58.78L16.70 58.78Q13.74 56.48 11.87 52.12L11.87 52.12L11.87 52.12Q10 47.76 10 41.86L10 41.86L10 41.86Q10 35.96 12.41 30.70L12.41 30.70L12.41 30.70Q14.82 25.44 19.11 21.38L19.11 21.38L19.11 21.38Q23.39 17.31 29.15 14.93L29.15 14.93L29.15 14.93Q34.91 12.56 41.46 12.56L41.46 12.56L41.46 12.56Q47.80 12.56 52.88 14.64L52.88 14.64L52.88 14.64Q57.95 16.73 61.55 20.37L61.55 20.37L61.55 20.37Q65.15 24.00 67.10 28.79L67.10 28.79L67.10 28.79Q69.04 33.58 69.04 39.05L69.04 39.05L69.04 39.05Q69.04 46.61 65.84 52.37L65.84 52.37L65.84 52.37Q62.63 58.13 56.62 61.73L56.62 61.73L56.62 61.73Q50.61 65.33 42.04 66.48L42.04 66.48L38.66 61.16L38.66 61.16Q40.38 60.94 41.97 60.72L41.97 60.72L41.97 60.72Q43.55 60.51 44.85 60.22L44.85 60.22L44.85 60.22Q48.30 59.43 51.58 57.74L51.58 57.74L51.58 57.74Q54.86 56.04 57.45 53.42L57.45 53.42L57.45 53.42Q60.04 50.79 61.59 47.15L61.59 47.15L61.59 47.15Q63.14 43.52 63.14 38.84L63.14 38.84L63.14 38.84Q63.14 34.44 61.70 30.66L61.70 30.66L61.70 30.66Q60.26 26.88 57.45 24.00L57.45 24.00L57.45 24.00Q54.64 21.12 50.61 19.47L50.61 19.47L50.61 19.47Q46.58 17.81 41.39 17.81L41.39 17.81L41.39 17.81Q35.49 17.81 30.70 19.97L30.70 19.97L30.70 19.97Q25.91 22.13 22.56 25.62L22.56 25.62L22.56 25.62Q19.22 29.12 17.42 33.26L17.42 33.26L17.42 33.26Q15.62 37.40 15.62 41.36L15.62 41.36L15.62 41.36Q15.62 45.89 16.80 48.81L16.80 48.81L16.80 48.81Q17.99 51.72 19.68 53.09L19.68 53.09L19.68 53.09Q21.38 54.46 23.03 54.46L23.03 54.46L23.03 54.46Q24.76 54.46 26.56 52.77L26.56 52.77L26.56 52.77Q28.36 51.08 30.23 47.30L30.23 47.30L30.23 47.30Q32.10 43.52 33.90 37.47L33.90 37.47L33.90 37.47Q35.49 32.28 36.60 26.45L36.60 26.45L36.60 26.45Q37.72 20.62 38.22 15.00L38.22 15.00Z" fill="#1A1A1C"></path></svg>