<svg width="70.328" height="70.328" viewBox="0 0 70.328 70.328" fill="none" xmlns="http://www.w3.org/2000/svg"><path d="M13.06 12.95L19.11 13.46L19.11 13.46Q18.89 14.10 18.68 14.90L18.68 14.90L18.68 14.90Q18.46 15.69 18.24 16.34L18.24 16.34L18.24 16.34Q17.96 17.78 17.60 19.94L17.60 19.94L17.60 19.94Q17.24 22.10 16.95 24.54L16.95 24.54L16.95 24.54Q16.66 26.99 16.52 29.30L16.52 29.30L16.52 29.30Q16.37 31.60 16.44 33.33L16.44 33.33L16.44 33.33Q18.60 28.22 22.42 24.58L22.42 24.58L22.42 24.58Q26.24 20.94 31.02 18.96L31.02 18.96L31.02 18.96Q35.81 16.98 40.78 16.98L40.78 16.98L40.78 16.98Q46.76 16.98 50.79 19.14L50.79 19.14L50.79 19.14Q54.82 21.30 56.87 24.94L56.87 24.94L56.87 24.94Q58.92 28.58 58.92 33.04L58.92 33.04L58.92 33.04Q58.92 37.86 56.91 41.97L56.91 41.97L56.91 41.97Q54.89 46.07 50.79 48.48L50.79 48.48L50.79 48.48Q46.68 50.90 40.20 50.90L40.20 50.90L40.20 50.90Q36.75 50.90 33.54 49.67L33.54 49.67L33.54 49.67Q30.34 48.45 27.71 46.07L27.71 46.07L27.71 46.07Q25.08 43.70 23.36 40.24L23.36 40.24L26.38 36.06L26.38 36.06Q28.47 40.46 31.89 43.05L31.89 43.05L31.89 43.05Q35.31 45.64 40.20 45.64L40.20 45.64L40.20 45.64Q44.81 45.64 47.80 44.02L47.80 44.02L47.80 44.02Q50.79 42.40 52.23 39.59L52.23 39.59L52.23 39.59Q53.67 36.78 53.67 33.18L53.67 33.18L53.67 33.18Q53.67 30.02 52.37 27.42L52.37 27.42L52.37 27.42Q51.08 24.83 48.20 23.28L48.20 23.28L48.20 23.28Q45.32 21.74 40.64 21.74L40.64 21.74L40.64 21.74Q35.88 21.74 32.00 23.36L32.00 23.36L32.00 23.36Q28.11 24.98 25.19 27.68L25.19 27.68L25.19 27.68Q22.28 30.38 20.40 33.62L20.40 33.62L20.40 33.62Q18.53 36.86 17.88 40.10L17.88 40.10L17.88 40.10Q17.74 40.82 17.60 41.75L17.60 41.75L17.60 41.75Q17.45 42.69 17.52 43.70L17.52 43.70L17.52 43.70Q17.52 44.34 17.67 45.46L17.67 45.46L17.67 45.46Q17.81 46.58 17.99 47.69L17.99 47.69L17.99 47.69Q18.17 48.81 18.32 49.53L18.32 49.53L13.49 50.25L13.49 50.25Q12.63 47.51 12.02 43.37L12.02 43.37L12.02 43.37Q11.40 39.23 11.40 34.91L11.40 34.91L11.40 34.91Q11.40 32.32 11.62 29.48L11.62 29.48L11.62 29.48Q11.84 26.63 12.09 24.00L12.09 24.00L12.09 24.00Q12.34 21.38 12.59 19.25L12.59 19.25L12.59 19.25Q12.84 17.13 13.06 15.90L13.06 15.90L13.06 15.90Q13.13 15.11 13.13 14.32L13.13 14.32L13.13 14.32Q13.13 13.53 13.06 12.95L13.06 12.95ZM34.37 10.14L39.99 10L39.99 10Q40.42 12.02 40.85 15.36L40.85 15.36L40.85 15.36Q41.28 18.71 41.61 22.82L41.61 22.82L41.61 22.82Q41.93 26.92 41.93 31.17L41.93 31.17L41.93 31.17Q41.93 37.43 40.85 42.90L40.85 42.90L40.85 42.90Q39.77 48.38 37.07 52.80L37.07 52.80L37.07 52.80Q34.37 57.23 29.62 60.33L29.62 60.33L24.72 57.30L24.72 57.30Q28.25 55.29 30.63 52.55L30.63 52.55L30.63 52.55Q33.00 49.82 34.37 46.43L34.37 46.43L34.37 46.43Q35.74 43.05 36.32 39.12L36.32 39.12L36.32 39.12Q36.89 35.20 36.89 30.88L36.89 30.88L36.89 30.88Q36.89 24.54 36.35 20.19L36.35 20.19L36.35 20.19Q35.81 15.83 35.38 13.46L35.38 13.46L35.38 13.46Q35.16 12.52 34.88 11.69L34.88 11.69L34.88 11.69Q34.59 10.86 34.37 10.14L34.37 10.14Z" fill="#1A1A1C"></path></svg>