<svg width="81.77600000000001" height="81.77600000000001" viewBox="0 0 81.77600000000001 81.77600000000001" fill="none" xmlns="http://www.w3.org/2000/svg"><path d="M32.14 39.59L36.03 35.63L36.03 35.63Q39.48 37.65 43.30 40.10L43.30 40.10L43.30 40.10Q47.12 42.54 50.90 45.17L50.90 45.17L50.90 45.17Q54.68 47.80 58.13 50.32L58.13 50.32L58.13 50.32Q61.59 52.84 64.25 55.07L64.25 55.07L60.00 60.04L60.00 60.04Q57.56 57.81 54.14 55.11L54.14 55.11L54.14 55.11Q50.72 52.41 46.90 49.64L46.90 49.64L46.90 49.64Q43.08 46.86 39.27 44.27L39.27 44.27L39.27 44.27Q35.45 41.68 32.14 39.59L32.14 39.59ZM64.25 19.58L69.00 22.46L69.00 22.46Q68.50 23.25 68.07 24.36L68.07 24.36L68.07 24.36Q67.64 25.48 67.28 26.34L67.28 26.34L67.28 26.34Q66.27 30.02 64.40 34.26L64.40 34.26L64.40 34.26Q62.52 38.51 60.00 42.80L60.00 42.80L60.00 42.80Q57.48 47.08 54.24 51.04L54.24 51.04L54.24 51.04Q49.42 57.02 42.18 62.52L42.18 62.52L42.18 62.52Q34.95 68.03 24.72 71.78L24.72 71.78L19.54 67.31L19.54 67.31Q26.24 65.22 31.74 62.16L31.74 62.16L31.74 62.16Q37.25 59.10 41.64 55.43L41.64 55.43L41.64 55.43Q46.04 51.76 49.28 47.87L49.28 47.87L49.28 47.87Q52.08 44.56 54.42 40.60L54.42 40.60L54.42 40.60Q56.76 36.64 58.49 32.72L58.49 32.72L58.49 32.72Q60.22 28.79 61.01 25.41L61.01 25.41L34.30 25.41L36.60 20.30L59.50 20.30L59.50 20.30Q60.94 20.30 62.16 20.12L62.16 20.12L62.16 20.12Q63.39 19.94 64.25 19.58L64.25 19.58ZM38.19 10L44.74 12.09L44.74 12.09Q43.80 13.53 42.94 15.11L42.94 15.11L42.94 15.11Q42.08 16.70 41.50 17.70L41.50 17.70L41.50 17.70Q39.34 21.66 35.92 26.38L35.92 26.38L35.92 26.38Q32.50 31.10 27.93 35.78L27.93 35.78L27.93 35.78Q23.36 40.46 17.60 44.49L17.60 44.49L12.77 40.74L12.77 40.74Q18.96 36.93 23.50 32.32L23.50 32.32L23.50 32.32Q28.04 27.71 31.13 23.32L31.13 23.32L31.13 23.32Q34.23 18.93 35.88 15.69L35.88 15.69L35.88 15.69Q36.46 14.75 37.18 13.06L37.18 13.06L37.18 13.06Q37.90 11.37 38.19 10L38.19 10Z" fill="#1A1A1C"></path></svg>