<svg width="84.224" height="84.224" viewBox="0 0 84.224 84.224" fill="none" xmlns="http://www.w3.org/2000/svg"><path d="M60.87 17.92L60.87 17.92L60.87 17.92Q60.87 19.86 62.20 21.20L62.20 21.20L62.20 21.20Q63.53 22.53 65.40 22.53L65.40 22.53L65.40 22.53Q67.35 22.53 68.72 21.20L68.72 21.20L68.72 21.20Q70.08 19.86 70.08 17.92L70.08 17.92L70.08 17.92Q70.08 15.98 68.72 14.64L68.72 14.64L68.72 14.64Q67.35 13.31 65.40 13.31L65.40 13.31L65.40 13.31Q63.53 13.31 62.20 14.64L62.20 14.64L62.20 14.64Q60.87 15.98 60.87 17.92ZM57.56 17.92L57.56 17.92L57.56 17.92Q57.56 15.76 58.64 13.96L58.64 13.96L58.64 13.96Q59.72 12.16 61.48 11.08L61.48 11.08L61.48 11.08Q63.24 10.00 65.40 10.00L65.40 10.00L65.40 10.00Q67.64 10.00 69.44 11.08L69.44 11.08L69.44 11.08Q71.24 12.16 72.28 13.96L72.28 13.96L72.28 13.96Q73.32 15.76 73.32 17.92L73.32 17.92L73.32 17.92Q73.32 20.08 72.28 21.88L72.28 21.88L72.28 21.88Q71.24 23.68 69.44 24.72L69.44 24.72L69.44 24.72Q67.64 25.77 65.40 25.77L65.40 25.77L65.40 25.77Q63.24 25.77 61.48 24.72L61.48 24.72L61.48 24.72Q59.72 23.68 58.64 21.88L58.64 21.88L58.64 21.88Q57.56 20.08 57.56 17.92ZM38.76 15.62L45.53 15.62L45.53 15.62Q45.46 16.12 45.35 17.06L45.35 17.06L45.35 17.06Q45.24 17.99 45.17 19.00L45.17 19.00L45.17 19.00Q45.10 20.01 45.10 20.80L45.10 20.80L45.10 20.80Q45.10 22.67 45.10 25.12L45.10 25.12L45.10 25.12Q45.10 27.57 45.10 29.94L45.10 29.94L45.10 29.94Q45.10 32.32 45.10 34.12L45.10 34.12L45.10 34.12Q45.10 35.56 45.10 38.30L45.10 38.30L45.10 38.30Q45.10 41.03 45.10 44.49L45.10 44.49L45.10 44.49Q45.10 47.94 45.10 51.58L45.10 51.58L45.10 51.58Q45.10 55.22 45.10 58.60L45.10 58.60L45.10 58.60Q45.10 61.98 45.10 64.58L45.10 64.58L45.10 64.58Q45.10 67.17 45.10 68.46L45.10 68.46L45.10 68.46Q45.10 71.34 43.66 72.78L43.66 72.78L43.66 72.78Q42.22 74.22 38.91 74.22L38.91 74.22L38.91 74.22Q37.40 74.22 35.56 74.15L35.56 74.15L35.56 74.15Q33.72 74.08 31.92 73.94L31.92 73.94L31.92 73.94Q30.12 73.79 28.68 73.72L28.68 73.72L28.18 67.96L28.18 67.96Q30.56 68.39 32.79 68.61L32.79 68.61L32.79 68.61Q35.02 68.82 36.46 68.82L36.46 68.82L36.46 68.82Q37.90 68.82 38.55 68.14L38.55 68.14L38.55 68.14Q39.20 67.46 39.27 66.09L39.27 66.09L39.27 66.09Q39.27 65.08 39.27 62.60L39.27 62.60L39.27 62.60Q39.27 60.11 39.27 56.84L39.27 56.84L39.27 56.84Q39.27 53.56 39.27 49.92L39.27 49.92L39.27 49.92Q39.27 46.29 39.27 43.01L39.27 43.01L39.27 43.01Q39.27 39.74 39.27 37.36L39.27 37.36L39.27 37.36Q39.27 34.98 39.27 34.12L39.27 34.12L39.27 34.12Q39.27 32.90 39.27 30.45L39.27 30.45L39.27 30.45Q39.27 28.00 39.27 25.30L39.27 25.30L39.27 25.30Q39.27 22.60 39.27 20.73L39.27 20.73L39.27 20.73Q39.27 19.58 39.09 17.99L39.09 17.99L39.09 17.99Q38.91 16.41 38.76 15.62L38.76 15.62ZM13.13 33.83L13.13 27.78L13.13 27.78Q14.64 27.93 16.08 28.04L16.08 28.04L16.08 28.04Q17.52 28.14 19.25 28.14L19.25 28.14L19.25 28.14Q20.12 28.14 22.78 28.14L22.78 28.14L22.78 28.14Q25.44 28.14 29.22 28.14L29.22 28.14L29.22 28.14Q33.00 28.14 37.32 28.14L37.32 28.14L37.32 28.14Q41.64 28.14 46.00 28.14L46.00 28.14L46.00 28.14Q50.36 28.14 54.14 28.14L54.14 28.14L54.14 28.14Q57.92 28.14 60.54 28.14L60.54 28.14L60.54 28.14Q63.17 28.14 64.11 28.14L64.11 28.14L64.11 28.14Q65.40 28.14 67.02 28.04L67.02 28.04L67.02 28.04Q68.64 27.93 70.01 27.78L70.01 27.78L70.01 33.76L70.01 33.76Q68.57 33.69 67.02 33.65L67.02 33.65L67.02 33.65Q65.48 33.62 64.18 33.62L64.18 33.62L64.18 33.62Q63.24 33.62 60.62 33.62L60.62 33.62L60.62 33.62Q57.99 33.62 54.21 33.62L54.21 33.62L54.21 33.62Q50.43 33.62 46.11 33.62L46.11 33.62L46.11 33.62Q41.79 33.62 37.47 33.62L37.47 33.62L37.47 33.62Q33.15 33.62 29.33 33.62L29.33 33.62L29.33 33.62Q25.52 33.62 22.89 33.62L22.89 33.62L22.89 33.62Q20.26 33.62 19.25 33.62L19.25 33.62L19.25 33.62Q17.67 33.62 16.12 33.65L16.12 33.65L16.12 33.65Q14.57 33.69 13.13 33.83L13.13 33.83ZM24.65 42.26L29.69 44.70L29.69 44.70Q28.54 47.01 26.85 49.74L26.85 49.74L26.85 49.74Q25.16 52.48 23.18 55.25L23.18 55.25L23.18 55.25Q21.20 58.02 19.29 60.40L19.29 60.40L19.29 60.40Q17.38 62.78 15.87 64.43L15.87 64.43L10.90 61.12L10.90 61.12Q12.70 59.46 14.64 57.12L14.64 57.12L14.64 57.12Q16.59 54.78 18.50 52.19L18.50 52.19L18.50 52.19Q20.40 49.60 21.99 47.04L21.99 47.04L21.99 47.04Q23.57 44.49 24.65 42.26L24.65 42.26ZM54.89 44.92L59.79 42.33L59.79 42.33Q61.23 44.06 62.92 46.43L62.92 46.43L62.92 46.43Q64.61 48.81 66.38 51.51L66.38 51.51L66.38 51.51Q68.14 54.21 69.65 56.69L69.65 56.69L69.65 56.69Q71.16 59.18 72.24 61.12L72.24 61.12L66.92 64.07L66.92 64.07Q65.91 61.91 64.43 59.32L64.43 59.32L64.43 59.32Q62.96 56.73 61.30 54.06L61.30 54.06L61.30 54.06Q59.64 51.40 57.95 49.02L57.95 49.02L57.95 49.02Q56.26 46.65 54.89 44.92L54.89 44.92Z" fill="#1A1A1C"></path></svg>