<svg width="84.152" height="84.152" viewBox="0 0 84.152 84.152" fill="none" xmlns="http://www.w3.org/2000/svg"><path d="M40.67 13.38L47.08 13.60L47.08 13.60Q46.79 14.90 46.61 16.55L46.61 16.55L46.61 16.55Q46.43 18.21 46.29 19.29L46.29 19.29L46.29 19.29Q45.86 23.10 45.28 27.24L45.28 27.24L45.28 27.24Q44.70 31.38 43.80 35.56L43.80 35.56L43.80 35.56Q42.90 39.74 41.54 43.77L41.54 43.77L41.54 43.77Q39.81 48.59 37.40 53.13L37.40 53.13L37.40 53.13Q34.98 57.66 32.10 61.26L32.10 61.26L32.10 61.26Q29.22 64.86 25.95 66.92L25.95 66.92L25.95 66.92Q22.67 68.97 19.14 68.97L19.14 68.97L19.14 68.97Q16.62 68.97 14.54 67.67L14.54 67.67L14.54 67.67Q12.45 66.38 11.22 63.86L11.22 63.86L11.22 63.86Q10 61.34 10 57.88L10 57.88L10 57.88Q10 52.26 11.69 47.66L11.69 47.66L11.69 47.66Q13.38 43.05 15.98 39.45L15.98 39.45L15.98 39.45Q17.99 36.50 20.94 33.65L20.94 33.65L20.94 33.65Q23.90 30.81 27.75 28.43L27.75 28.43L27.75 28.43Q31.60 26.06 36.32 24.65L36.32 24.65L36.32 24.65Q41.03 23.25 46.65 23.25L46.65 23.25L46.65 23.25Q51.04 23.25 54.93 24.69L54.93 24.69L54.93 24.69Q58.82 26.13 61.84 28.83L61.84 28.83L61.84 28.83Q64.86 31.53 66.59 35.45L66.59 35.45L66.59 35.45Q68.32 39.38 68.32 44.42L68.32 44.42L68.32 44.42Q68.32 50.10 67.31 54.93L67.31 54.93L67.31 54.93Q66.30 59.75 64.18 63.32L64.18 63.32L64.18 63.32Q62.06 66.88 58.78 68.82L58.78 68.82L58.78 68.82Q55.50 70.77 50.97 70.77L50.97 70.77L50.97 70.77Q45.86 70.77 42.83 68.32L42.83 68.32L42.83 68.32Q39.81 65.87 39.81 61.48L39.81 61.48L39.81 61.48Q39.81 58.96 41.21 56.76L41.21 56.76L41.21 56.76Q42.62 54.57 45.17 53.20L45.17 53.20L45.17 53.20Q47.73 51.83 51.04 51.83L51.04 51.83L51.04 51.83Q55.14 51.83 58.64 53.06L58.64 53.06L58.64 53.06Q62.13 54.28 65.04 56.19L65.04 56.19L65.04 56.19Q67.96 58.10 70.23 60.26L70.23 60.26L70.23 60.26Q72.50 62.42 74.15 64.36L74.15 64.36L70.62 68.75L70.62 68.75Q69.26 67.02 67.24 64.90L67.24 64.90L67.24 64.90Q65.22 62.78 62.78 60.80L62.78 60.80L62.78 60.80Q60.33 58.82 57.41 57.52L57.41 57.52L57.41 57.52Q54.50 56.22 51.18 56.22L51.18 56.22L51.18 56.22Q48.02 56.22 46.36 57.74L46.36 57.74L46.36 57.74Q44.70 59.25 44.70 60.98L44.70 60.98L44.70 60.98Q44.70 63.14 46.29 64.47L46.29 64.47L46.29 64.47Q47.87 65.80 50.75 65.80L50.75 65.80L50.75 65.80Q54.06 65.80 56.37 64.04L56.37 64.04L56.37 64.04Q58.67 62.27 60.08 59.21L60.08 59.21L60.08 59.21Q61.48 56.15 62.13 52.37L62.13 52.37L62.13 52.37Q62.78 48.59 62.78 44.63L62.78 44.63L62.78 44.63Q62.78 41.10 61.70 38.12L61.70 38.12L61.70 38.12Q60.62 35.13 58.49 32.82L58.49 32.82L58.49 32.82Q56.37 30.52 53.31 29.30L53.31 29.30L53.31 29.30Q50.25 28.07 46.29 28.07L46.29 28.07L46.29 28.07Q40.46 28.07 35.56 29.94L35.56 29.94L35.56 29.94Q30.66 31.82 26.85 34.98L26.85 34.98L26.85 34.98Q23.03 38.15 20.30 42.18L20.30 42.18L20.30 42.18Q18.71 44.56 17.56 47.04L17.56 47.04L17.56 47.04Q16.41 49.53 15.76 52.01L15.76 52.01L15.76 52.01Q15.11 54.50 15.11 57.02L15.11 57.02L15.11 57.02Q15.11 59.75 16.44 61.52L16.44 61.52L16.44 61.52Q17.78 63.28 19.36 63.28L19.36 63.28L19.36 63.28Q21.59 63.28 23.97 61.62L23.97 61.62L23.97 61.62Q26.34 59.97 28.61 57.02L28.61 57.02L28.61 57.02Q30.88 54.06 32.93 50.25L32.93 50.25L32.93 50.25Q34.98 46.43 36.57 42.04L36.57 42.04L36.57 42.04Q37.79 38.51 38.66 34.41L38.66 34.41L38.66 34.41Q39.52 30.30 40.02 26.34L40.02 26.34L40.02 26.34Q40.53 22.38 40.74 19.36L40.74 19.36L40.74 19.36Q40.89 17.49 40.85 16.23L40.85 16.23L40.85 16.23Q40.82 14.97 40.67 13.38L40.67 13.38ZM14.10 22.02L19.43 19.86L19.43 19.86Q20.08 22.96 21.12 26.34L21.12 26.34L21.12 26.34Q22.17 29.73 23.36 32.97L23.36 32.97L23.36 32.97Q24.54 36.21 25.70 38.94L25.70 38.94L25.70 38.94Q26.85 41.68 27.71 43.62L27.71 43.62L27.71 43.62Q29.30 46.86 31.06 49.82L31.06 49.82L31.06 49.82Q32.82 52.77 34.77 55.22L34.77 55.22L31.38 59.61L31.38 59.61Q30.23 58.24 28.90 56.40L28.90 56.40L28.90 56.40Q27.57 54.57 26.31 52.41L26.31 52.41L26.31 52.41Q25.05 50.25 23.90 47.94L23.90 47.94L23.90 47.94Q22.82 45.57 21.48 42.29L21.48 42.29L21.48 42.29Q20.15 39.02 18.89 35.60L18.89 35.60L18.89 35.60Q17.63 32.18 16.70 29.51L16.70 29.51L16.70 29.51Q16.34 28.22 15.98 27.06L15.98 27.06L15.98 27.06Q15.62 25.91 15.15 24.69L15.15 24.69L15.15 24.69Q14.68 23.46 14.10 22.02L14.10 22.02Z" fill="#1A1A1C"></path></svg>