<svg width="82.71200000000002" height="82.71200000000002" viewBox="0 0 82.71200000000002 82.71200000000002" fill="none" xmlns="http://www.w3.org/2000/svg"><path d="M23.46 17.92L23.25 12.88L23.25 12.88Q23.82 12.88 24.65 12.95L24.65 12.95L24.65 12.95Q25.48 13.02 26.42 13.06L26.42 13.06L26.42 13.06Q27.35 13.10 28.14 13.10L28.14 13.10L28.14 13.10Q28.72 13.10 30.74 13.06L30.74 13.06L30.74 13.06Q32.75 13.02 35.45 12.95L35.45 12.95L35.45 12.95Q38.15 12.88 41.00 12.81L41.00 12.81L41.00 12.81Q43.84 12.74 46.11 12.66L46.11 12.66L46.11 12.66Q48.38 12.59 49.46 12.52L49.46 12.52L49.46 12.52Q50.97 12.38 52.30 12.16L52.30 12.16L52.30 12.16Q53.63 11.94 54.28 11.73L54.28 11.73L57.52 15.83L57.52 15.83Q56.22 16.26 54.06 17.27L54.06 17.27L54.06 17.27Q51.90 18.28 49.38 19.58L49.38 19.58L49.38 19.58Q46.86 20.87 44.34 22.24L44.34 22.24L44.34 22.24Q41.82 23.61 39.81 24.83L39.81 24.83L39.81 24.83Q41.75 24.40 43.70 24.22L43.70 24.22L43.70 24.22Q45.64 24.04 47.44 24.04L47.44 24.04L47.44 24.04Q52.05 24.04 55.86 25.52L55.86 25.52L55.86 25.52Q59.68 26.99 61.91 29.73L61.91 29.73L61.91 29.73Q64.14 32.46 64.14 36.21L64.14 36.21L64.14 36.21Q64.14 39.74 62.45 42.36L62.45 42.36L62.45 42.36Q60.76 44.99 57.74 46.76L57.74 46.76L57.74 46.76Q54.71 48.52 50.86 49.38L50.86 49.38L50.86 49.38Q47.01 50.25 42.76 50.25L42.76 50.25L42.76 50.25Q37.86 50.25 34.34 49.20L34.34 49.20L34.34 49.20Q30.81 48.16 28.94 46.22L28.94 46.22L28.94 46.22Q27.06 44.27 27.06 41.61L27.06 41.61L27.06 41.61Q27.06 39.23 28.65 37.58L28.65 37.58L28.65 37.58Q30.23 35.92 32.72 35.02L32.72 35.02L32.72 35.02Q35.20 34.12 37.79 34.12L37.79 34.12L37.79 34.12Q42.33 34.12 45.06 35.96L45.06 35.96L45.06 35.96Q47.80 37.79 47.80 40.89L47.80 40.89L47.80 40.89Q47.80 42.98 46.18 44.74L46.18 44.74L46.18 44.74Q44.56 46.50 42.11 47.73L42.11 47.73L42.11 47.73Q41.82 47.80 41.03 47.84L41.03 47.84L41.03 47.84Q40.24 47.87 39.95 47.94L39.95 47.94L39.95 47.94Q38.58 48.74 36.64 50.14L36.64 50.14L36.64 50.14Q34.70 51.54 32.79 53.06L32.79 53.06L32.79 53.06Q30.88 54.57 29.44 55.72L29.44 55.72L29.44 55.72Q32.18 55.36 34.41 56.19L34.41 56.19L34.41 56.19Q36.64 57.02 38.30 58.78L38.30 58.78L38.30 58.78Q39.95 60.54 41.03 63.14L41.03 63.14L41.03 63.14Q42.54 60.47 44.70 58.42L44.70 58.42L44.70 58.42Q46.86 56.37 49.56 55.18L49.56 55.18L49.56 55.18Q52.26 53.99 55.07 53.99L55.07 53.99L55.07 53.99Q59.10 53.99 62.38 55.90L62.38 55.90L62.38 55.90Q65.66 57.81 68.28 61.12L68.28 61.12L68.28 61.12Q70.91 64.43 72.71 68.68L72.71 68.68L66.95 70.98L66.95 70.98Q64.79 64.86 61.62 61.80L61.62 61.80L61.62 61.80Q58.46 58.74 54.64 58.74L54.64 58.74L54.64 58.74Q52.48 58.74 50.46 59.86L50.46 59.86L50.46 59.86Q48.45 60.98 46.83 62.92L46.83 62.92L46.83 62.92Q45.21 64.86 44.27 67.31L44.27 67.31L44.27 67.31Q43.98 68.03 43.84 68.86L43.84 68.86L43.84 68.86Q43.70 69.69 43.62 70.34L43.62 70.34L37.94 70.34L37.94 70.34Q37.86 69.54 37.76 68.75L37.76 68.75L37.76 68.75Q37.65 67.96 37.43 67.24L37.43 67.24L37.43 67.24Q36.21 63.50 34.01 61.55L34.01 61.55L34.01 61.55Q31.82 59.61 28.72 59.61L28.72 59.61L28.72 59.61Q26.20 59.61 23.86 61.23L23.86 61.23L23.86 61.23Q21.52 62.85 19.29 65.44L19.29 65.44L19.29 65.44Q17.06 68.03 14.97 70.84L14.97 70.84L10 67.89L10 67.89Q12.59 65.08 15.72 61.98L15.72 61.98L15.72 61.98Q18.86 58.89 22.13 55.86L22.13 55.86L22.13 55.86Q25.41 52.84 28.43 50.32L28.43 50.32L28.43 50.32Q31.46 47.80 33.83 46.22L33.83 46.22L33.83 46.22Q34.05 46.14 34.70 46.14L34.70 46.14L34.70 46.14Q35.34 46.14 36.03 46.11L36.03 46.11L36.03 46.11Q36.71 46.07 36.93 46.07L36.93 46.07L36.93 46.07Q38.73 45.42 40.02 44.60L40.02 44.60L40.02 44.60Q41.32 43.77 42.04 42.83L42.04 42.83L42.04 42.83Q42.76 41.90 42.76 40.89L42.76 40.89L42.76 40.89Q42.76 39.30 41.21 38.48L41.21 38.48L41.21 38.48Q39.66 37.65 37.36 37.65L37.36 37.65L37.36 37.65Q36.14 37.65 34.80 38.01L34.80 38.01L34.80 38.01Q33.47 38.37 32.57 39.16L32.57 39.16L32.57 39.16Q31.67 39.95 31.67 41.18L31.67 41.18L31.67 41.18Q31.67 42.47 32.72 43.48L32.72 43.48L32.72 43.48Q33.76 44.49 36.21 45.06L36.21 45.06L36.21 45.06Q38.66 45.64 42.83 45.64L42.83 45.64L42.83 45.64Q46.94 45.64 50.54 44.49L50.54 44.49L50.54 44.49Q54.14 43.34 56.37 41.28L56.37 41.28L56.37 41.28Q58.60 39.23 58.60 36.35L58.60 36.35L58.60 36.35Q58.60 33.69 56.84 31.78L56.84 31.78L56.84 31.78Q55.07 29.87 52.12 28.83L52.12 28.83L52.12 28.83Q49.17 27.78 45.64 27.78L45.64 27.78L45.64 27.78Q42.69 27.78 39.09 28.40L39.09 28.40L39.09 28.40Q35.49 29.01 32.68 30.23L32.68 30.23L32.68 30.23Q29.73 31.53 26.13 33.90L26.13 33.90L26.13 33.90Q22.53 36.28 18.21 39.66L18.21 39.66L14.68 35.49L14.68 35.49Q17.42 33.54 21.38 31.10L21.38 31.10L21.38 31.10Q25.34 28.65 29.66 26.06L29.66 26.06L29.66 26.06Q33.98 23.46 38.08 21.09L38.08 21.09L38.08 21.09Q42.18 18.71 45.21 16.91L45.21 16.91L45.21 16.91Q44.42 16.98 42.40 17.06L42.40 17.06L42.40 17.06Q40.38 17.13 37.76 17.20L37.76 17.20L37.76 17.20Q35.13 17.27 32.36 17.38L32.36 17.38L32.36 17.38Q29.58 17.49 27.21 17.63L27.21 17.63L27.21 17.63Q24.83 17.78 23.46 17.92L23.46 17.92Z" fill="#1A1A1C"></path></svg>