<svg width="78.10400000000001" height="78.10400000000001" viewBox="0 0 78.10400000000001 78.10400000000001" fill="none" xmlns="http://www.w3.org/2000/svg"><path d="M19.14 17.06L18.78 11.22L18.78 11.22Q19.94 11.37 21.23 11.44L21.23 11.44L21.23 11.44Q22.53 11.51 23.46 11.44L23.46 11.44L23.46 11.44Q24.90 11.44 27.60 11.37L27.60 11.37L27.60 11.37Q30.30 11.30 33.29 11.19L33.29 11.19L33.29 11.19Q36.28 11.08 38.44 10.94L38.44 10.94L38.44 10.94Q39.66 10.79 40.67 10.54L40.67 10.54L40.67 10.54Q41.68 10.29 42.54 10.00L42.54 10.00L46.29 12.74L46.29 12.74Q45.86 13.53 45.32 14.50L45.32 14.50L45.32 14.50Q44.78 15.47 44.42 16.55L44.42 16.55L44.42 16.55Q43.70 19.00 42.40 23.14L42.40 23.14L42.40 23.14Q41.10 27.28 39.52 32.21L39.52 32.21L39.52 32.21Q37.94 37.14 36.21 42.04L36.21 42.04L36.21 42.04Q34.84 46.07 33.15 49.85L33.15 49.85L33.15 49.85Q31.46 53.63 29.69 56.66L29.69 56.66L29.69 56.66Q27.93 59.68 26.20 61.55L26.20 61.55L26.20 61.55Q24.62 63.35 22.71 64.18L22.71 64.18L22.71 64.18Q20.80 65.01 18.06 65.01L18.06 65.01L18.06 65.01Q16.12 65.01 14.32 64.00L14.32 64.00L14.32 64.00Q12.52 62.99 11.40 60.90L11.40 60.90L11.40 60.90Q10.29 58.82 10.29 55.72L10.29 55.72L10.29 55.72Q10.29 51.11 12.05 46.68L12.05 46.68L12.05 46.68Q13.82 42.26 17.02 38.30L17.02 38.30L17.02 38.30Q20.22 34.34 24.54 31.31L24.54 31.31L24.54 31.31Q28.86 28.29 34.01 26.56L34.01 26.56L34.01 26.56Q39.16 24.83 44.78 24.83L44.78 24.83L44.78 24.83Q51.90 24.83 57.09 27.75L57.09 27.75L57.09 27.75Q62.27 30.66 65.04 35.60L65.04 35.60L65.04 35.60Q67.82 40.53 67.82 46.79L67.82 46.79L67.82 46.79Q67.82 50.97 66.63 54.78L66.63 54.78L66.63 54.78Q65.44 58.60 62.88 61.59L62.88 61.59L62.88 61.59Q60.33 64.58 56.37 66.34L56.37 66.34L56.37 66.34Q52.41 68.10 46.79 68.10L46.79 68.10L46.79 68.10Q43.12 68.10 40.31 66.99L40.31 66.99L40.31 66.99Q37.50 65.87 35.96 63.75L35.96 63.75L35.96 63.75Q34.41 61.62 34.41 58.67L34.41 58.67L34.41 58.67Q34.41 56.01 35.78 53.96L35.78 53.96L35.78 53.96Q37.14 51.90 39.52 50.72L39.52 50.72L39.52 50.72Q41.90 49.53 44.70 49.53L44.70 49.53L44.70 49.53Q48.95 49.53 51.83 51.36L51.83 51.36L51.83 51.36Q54.71 53.20 56.33 56.08L56.33 56.08L56.33 56.08Q57.95 58.96 58.46 62.20L58.46 62.20L53.78 63.64L53.78 63.64Q53.06 59.03 50.72 56.40L50.72 56.40L50.72 56.40Q48.38 53.78 44.78 53.78L44.78 53.78L44.78 53.78Q42.47 53.78 40.85 55.00L40.85 55.00L40.85 55.00Q39.23 56.22 39.23 58.24L39.23 58.24L39.23 58.24Q39.23 60.54 41.28 61.91L41.28 61.91L41.28 61.91Q43.34 63.28 46.36 63.28L46.36 63.28L46.36 63.28Q51.47 63.28 55.04 61.08L55.04 61.08L55.04 61.08Q58.60 58.89 60.44 55.11L60.44 55.11L60.44 55.11Q62.27 51.33 62.27 46.72L62.27 46.72L62.27 46.72Q62.27 41.97 60.22 38.12L60.22 38.12L60.22 38.12Q58.17 34.26 54.21 31.96L54.21 31.96L54.21 31.96Q50.25 29.66 44.63 29.66L44.63 29.66L44.63 29.66Q39.30 29.66 34.80 31.35L34.80 31.35L34.80 31.35Q30.30 33.04 26.70 35.74L26.70 35.74L26.70 35.74Q23.10 38.44 20.58 41.75L20.58 41.75L20.58 41.75Q18.06 45.06 16.70 48.38L16.70 48.38L16.70 48.38Q15.33 51.69 15.33 54.42L15.33 54.42L15.33 54.42Q15.33 56.58 16.37 57.74L16.37 57.74L16.37 57.74Q17.42 58.89 18.64 58.89L18.64 58.89L18.64 58.89Q19.72 58.89 20.76 58.53L20.76 58.53L20.76 58.53Q21.81 58.17 22.96 56.94L22.96 56.94L22.96 56.94Q24.26 55.50 25.48 53.34L25.48 53.34L25.48 53.34Q26.70 51.18 27.89 48.66L27.89 48.66L27.89 48.66Q29.08 46.14 30.12 43.59L30.12 43.59L30.12 43.59Q31.17 41.03 31.96 38.80L31.96 38.80L31.96 38.80Q33.47 34.77 34.88 30.45L34.88 30.45L34.88 30.45Q36.28 26.13 37.40 22.24L37.40 22.24L37.40 22.24Q38.51 18.35 39.09 15.69L39.09 15.69L39.09 15.69Q37.58 15.69 35.09 15.87L35.09 15.87L35.09 15.87Q32.61 16.05 29.73 16.23L29.73 16.23L29.73 16.23Q26.85 16.41 24.08 16.62L24.08 16.62L24.08 16.62Q21.30 16.84 19.14 17.06L19.14 17.06Z" fill="#1A1A1C"></path></svg>