<svg width="86.67200000000001" height="86.67200000000001" viewBox="0 0 86.67200000000001 86.67200000000001" fill="none" xmlns="http://www.w3.org/2000/svg"><path d="M40.06 43.55L40.06 64.50L40.06 64.50Q40.06 66.16 39.70 67.28L39.70 67.28L39.70 67.28Q39.34 68.39 38.19 69.11L38.19 69.11L38.19 69.11Q37.04 69.76 35.31 69.94L35.31 69.94L35.31 69.94Q33.58 70.12 30.99 70.05L30.99 70.05L30.99 70.05Q30.92 69.04 30.48 67.64L30.48 67.64L30.48 67.64Q30.05 66.23 29.55 65.22L29.55 65.22L29.55 65.22Q31.42 65.30 32.86 65.30L32.86 65.30L32.86 65.30Q34.30 65.30 34.80 65.22L34.80 65.22L34.80 65.22Q35.67 65.22 35.67 64.36L35.67 64.36L35.67 43.55L40.06 43.55ZM26.96 15.47L26.96 15.47L26.96 15.47Q25.66 19.36 23.57 23.61L23.57 23.61L23.57 23.61Q21.48 27.86 18.78 31.82L18.78 31.82L18.78 31.82Q16.08 35.78 12.99 38.73L12.99 38.73L12.99 38.73Q12.56 37.72 11.80 36.46L11.80 36.46L11.80 36.46Q11.04 35.20 10.32 34.41L10.32 34.41L10.32 34.41Q12.63 32.39 14.75 29.51L14.75 29.51L14.75 29.51Q16.88 26.63 18.71 23.36L18.71 23.36L18.71 23.36Q20.55 20.08 21.99 16.66L21.99 16.66L21.99 16.66Q23.43 13.24 24.36 10.00L24.36 10.00L29.19 10.00L29.19 10.00Q30.92 14.39 33.22 18.71L33.22 18.71L33.22 18.71Q35.52 23.03 38.19 26.70L38.19 26.70L38.19 26.70Q40.85 30.38 43.59 32.75L43.59 32.75L43.59 32.75Q42.94 33.69 42.15 35.02L42.15 35.02L42.15 35.02Q41.36 36.35 40.78 37.43L40.78 37.43L40.78 37.43Q37.97 34.62 35.38 30.99L35.38 30.99L35.38 30.99Q32.79 27.35 30.63 23.32L30.63 23.32L30.63 23.32Q28.47 19.29 26.96 15.47ZM22.71 45.71L27.32 45.71L27.32 76.67L22.71 76.67L22.71 45.71ZM12.41 43.55L38.12 43.55L38.12 48.30L12.41 48.30L12.41 43.55ZM18.68 31.67L35.96 31.67L35.96 36.28L18.68 36.28L18.68 31.67ZM52.66 40.38L54.68 38.22L54.68 38.22Q55.11 38.94 56.08 40.67L56.08 40.67L56.08 40.67Q57.05 42.40 58.13 44.42L58.13 44.42L58.13 44.42Q59.21 46.43 60.11 48.20L60.11 48.20L60.11 48.20Q61.01 49.96 61.37 50.68L61.37 50.68L59.07 54.50L59.07 54.50Q58.64 53.20 57.74 51.22L57.74 51.22L57.74 51.22Q56.84 49.24 55.86 47.08L55.86 47.08L55.86 47.08Q54.89 44.92 53.99 43.12L53.99 43.12L53.99 43.12Q53.09 41.32 52.66 40.38L52.66 40.38ZM58.56 10.22L61.37 14.68L61.37 14.68Q59.07 16.05 56.08 17.13L56.08 17.13L56.08 17.13Q53.09 18.21 49.92 19.07L49.92 19.07L49.92 19.07Q46.76 19.94 43.80 20.66L43.80 20.66L43.80 20.66Q43.66 19.72 43.19 18.57L43.19 18.57L43.19 18.57Q42.72 17.42 42.22 16.41L42.22 16.41L42.22 16.41Q45.10 15.62 48.12 14.72L48.12 14.72L48.12 14.72Q51.15 13.82 53.88 12.63L53.88 12.63L53.88 12.63Q56.62 11.44 58.56 10.22L58.56 10.22ZM50.57 32.46L53.16 33.47L53.16 33.47Q52.59 37.22 51.65 41.39L51.65 41.39L51.65 41.39Q50.72 45.57 49.60 49.67L49.60 49.67L49.60 49.67Q48.48 53.78 47.19 57.38L47.19 57.38L47.19 57.38Q45.89 60.98 44.52 63.57L44.52 63.57L44.52 63.57Q44.16 62.63 43.44 61.34L43.44 61.34L43.44 61.34Q42.72 60.04 42.15 59.25L42.15 59.25L42.15 59.25Q43.44 57.02 44.70 53.85L44.70 53.85L44.70 53.85Q45.96 50.68 47.12 47.01L47.12 47.01L47.12 47.01Q48.27 43.34 49.17 39.59L49.17 39.59L49.17 39.59Q50.07 35.85 50.57 32.46L50.57 32.46ZM43.73 30.45L60.65 30.45L60.65 35.42L43.73 35.42L43.73 30.45ZM50.72 15.98L55.04 15.98L55.04 76.60L50.72 76.60L50.72 15.98ZM62.09 15.98L76.35 15.98L76.35 73.86L72.39 73.86L72.39 20.94L65.91 20.94L65.91 74.44L62.09 74.44L62.09 15.98ZM64.61 62.70L74.26 62.70L74.26 67.74L64.61 67.74L64.61 62.70Z" fill="#1A1A1C"></path></svg>