<svg width="87.10400000000001" height="87.10400000000001" viewBox="0 0 87.10400000000001 87.10400000000001" fill="none" xmlns="http://www.w3.org/2000/svg"><path d="M43.55 77.10L43.55 77.10L43.55 77.10Q36.64 77.10 30.56 74.51L30.56 74.51L30.56 74.51Q24.47 71.92 19.83 67.28L19.83 67.28L19.83 67.28Q15.18 62.63 12.59 56.55L12.59 56.55L12.59 56.55Q10 50.46 10 43.55L10 43.55L10 43.55Q10 36.64 12.59 30.56L12.59 30.56L12.59 30.56Q15.18 24.47 19.83 19.83L19.83 19.83L19.83 19.83Q24.47 15.18 30.56 12.59L30.56 12.59L30.56 12.59Q36.64 10 43.55 10L43.55 10L43.55 10Q50.46 10 56.55 12.59L56.55 12.59L56.55 12.59Q62.63 15.18 67.28 19.83L67.28 19.83L67.28 19.83Q71.92 24.47 74.51 30.56L74.51 30.56L74.51 30.56Q77.10 36.64 77.10 43.55L77.10 43.55L77.10 43.55Q77.10 50.54 74.48 56.62L74.48 56.62L74.48 56.62Q71.85 62.70 67.20 67.31L67.20 67.31L67.20 67.31Q62.56 71.92 56.51 74.51L56.51 74.51L56.51 74.51Q50.46 77.10 43.55 77.10ZM43.55 74.80L43.55 74.80L43.55 74.80Q50.03 74.80 55.68 72.39L55.68 72.39L55.68 72.39Q61.34 69.98 65.66 65.66L65.66 65.66L65.66 65.66Q69.98 61.34 72.39 55.68L72.39 55.68L72.39 55.68Q74.80 50.03 74.80 43.55L74.80 43.55L74.80 43.55Q74.80 37.07 72.39 31.42L72.39 31.42L72.39 31.42Q69.98 25.77 65.66 21.45L65.66 21.45L65.66 21.45Q61.34 17.13 55.68 14.72L55.68 14.72L55.68 14.72Q50.03 12.30 43.55 12.30L43.55 12.30L43.55 12.30Q37 12.30 31.35 14.75L31.35 14.75L31.35 14.75Q25.70 17.20 21.41 21.52L21.41 21.52L21.41 21.52Q17.13 25.84 14.72 31.49L14.72 31.49L14.72 31.49Q12.30 37.14 12.30 43.55L12.30 43.55L12.30 43.55Q12.30 50.03 14.72 55.68L14.72 55.68L14.72 55.68Q17.13 61.34 21.45 65.66L21.45 65.66L21.45 65.66Q25.77 69.98 31.42 72.39L31.42 72.39L31.42 72.39Q37.07 74.80 43.55 74.80ZM30.88 62.63L30.88 62.63L30.88 62.63Q27.21 62.63 24.51 61.16L24.51 61.16L24.51 61.16Q21.81 59.68 20.15 57.59L20.15 57.59L23.03 53.99L23.03 53.99Q24.54 55.50 26.34 56.69L26.34 56.69L26.34 56.69Q28.14 57.88 30.59 57.88L30.59 57.88L30.59 57.88Q33.18 57.88 34.84 56.15L34.84 56.15L34.84 56.15Q36.50 54.42 36.50 51.54L36.50 51.54L36.50 51.54Q36.50 48.38 34.48 46.50L34.48 46.50L34.48 46.50Q32.46 44.63 26.92 44.63L26.92 44.63L26.92 40.24L26.92 40.24Q31.67 40.24 33.54 38.44L33.54 38.44L33.54 38.44Q35.42 36.64 35.42 33.83L35.42 33.83L35.42 33.83Q35.42 31.24 34.01 29.76L34.01 29.76L34.01 29.76Q32.61 28.29 30.30 28.29L30.30 28.29L30.30 28.29Q28.72 28.29 27.21 29.12L27.21 29.12L27.21 29.12Q25.70 29.94 24.33 31.53L24.33 31.53L21.23 28.07L21.23 28.07Q23.25 25.98 25.59 24.80L25.59 24.80L25.59 24.80Q27.93 23.61 30.74 23.61L30.74 23.61L30.74 23.61Q35.34 23.61 38.15 26.16L38.15 26.16L38.15 26.16Q40.96 28.72 40.96 33.47L40.96 33.47L40.96 33.47Q40.96 36.71 39.38 38.84L39.38 38.84L39.38 38.84Q37.79 40.96 35.20 42.11L35.20 42.11L35.20 42.33L35.20 42.33Q38.08 43.19 40.13 45.60L40.13 45.60L40.13 45.60Q42.18 48.02 42.18 51.83L42.18 51.83L42.18 51.83Q42.18 55.22 40.64 57.63L40.64 57.63L40.64 57.63Q39.09 60.04 36.53 61.34L36.53 61.34L36.53 61.34Q33.98 62.63 30.88 62.63ZM56.30 62.63L56.30 62.63L56.30 62.63Q53.06 62.63 50.50 61.30L50.50 61.30L50.50 61.30Q47.94 59.97 46.47 57.66L46.47 57.66L46.47 57.66Q44.99 55.36 44.99 52.48L44.99 52.48L44.99 52.48Q44.99 48.74 46.90 46.29L46.90 46.29L46.90 46.29Q48.81 43.84 51.18 42.47L51.18 42.47L51.18 42.18L51.18 42.18Q49.24 40.74 47.84 38.55L47.84 38.55L47.84 38.55Q46.43 36.35 46.43 33.47L46.43 33.47L46.43 33.47Q46.43 28.86 49.28 26.24L49.28 26.24L49.28 26.24Q52.12 23.61 56.30 23.61L56.30 23.61L56.30 23.61Q60.90 23.61 63.57 26.34L63.57 26.34L63.57 26.34Q66.23 29.08 66.23 33.54L66.23 33.54L66.23 33.54Q66.23 36.57 64.79 38.91L64.79 38.91L64.79 38.91Q63.35 41.25 61.77 42.54L61.77 42.54L61.77 42.76L61.77 42.76Q64 44.27 65.80 46.43L65.80 46.43L65.80 46.43Q67.60 48.59 67.60 52.41L67.60 52.41L67.60 52.41Q67.60 55.29 66.20 57.63L66.20 57.63L66.20 57.63Q64.79 59.97 62.24 61.30L62.24 61.30L62.24 61.30Q59.68 62.63 56.30 62.63ZM58.38 41.18L58.38 41.18L58.38 41.18Q59.90 39.59 60.69 37.76L60.69 37.76L60.69 37.76Q61.48 35.92 61.48 34.05L61.48 34.05L61.48 34.05Q61.48 31.31 60.08 29.58L60.08 29.58L60.08 29.58Q58.67 27.86 56.22 27.86L56.22 27.86L56.22 27.86Q54.06 27.86 52.73 29.30L52.73 29.30L52.73 29.30Q51.40 30.74 51.40 33.47L51.40 33.47L51.40 33.47Q51.40 35.49 52.34 36.93L52.34 36.93L52.34 36.93Q53.27 38.37 54.89 39.34L54.89 39.34L54.89 39.34Q56.51 40.31 58.38 41.18ZM56.51 58.31L56.51 58.31L56.51 58.31Q59.18 58.31 60.80 56.69L60.80 56.69L60.80 56.69Q62.42 55.07 62.42 52.26L62.42 52.26L62.42 52.26Q62.42 50.03 61.34 48.59L61.34 48.59L61.34 48.59Q60.26 47.15 58.42 46.11L58.42 46.11L58.42 46.11Q56.58 45.06 54.28 43.98L54.28 43.98L54.28 43.98Q52.55 45.28 51.29 47.22L51.29 47.22L51.29 47.22Q50.03 49.17 50.03 51.69L50.03 51.69L50.03 51.69Q50.03 54.57 51.90 56.44L51.90 56.44L51.90 56.44Q53.78 58.31 56.51 58.31Z" fill="#1A1A1C"></path></svg>