<svg width="83.072" height="83.072" viewBox="0 0 83.072 83.072" fill="none" xmlns="http://www.w3.org/2000/svg"><path d="M22.10 13.67L22.10 13.67L22.10 13.67Q22.02 12.88 21.77 12.09L21.77 12.09L21.77 12.09Q21.52 11.30 21.30 10.72L21.30 10.72L25.70 10.00L25.70 10.00Q25.70 10.50 25.80 11.40L25.80 11.40L25.80 11.40Q25.91 12.30 25.98 12.95L25.98 12.95L25.98 12.95Q26.13 13.31 26.42 15.11L26.42 15.11L26.42 15.11Q26.70 16.91 27.10 19.47L27.10 19.47L27.10 19.47Q27.50 22.02 28 24.90L28 24.90L28 24.90Q28.50 27.78 28.97 30.45L28.97 30.45L28.97 30.45Q29.44 33.11 29.76 35.02L29.76 35.02L29.76 35.02Q30.09 36.93 30.23 37.58L30.23 37.58L30.23 37.58Q30.38 38.37 30.63 39.48L30.63 39.48L30.63 39.48Q30.88 40.60 31.17 41.46L31.17 41.46L26.70 42.26L26.70 42.26Q26.63 41.18 26.49 40.17L26.49 40.17L26.49 40.17Q26.34 39.16 26.20 38.30L26.20 38.30L26.20 38.30Q26.13 37.65 25.80 35.78L25.80 35.78L25.80 35.78Q25.48 33.90 25.05 31.31L25.05 31.31L25.05 31.31Q24.62 28.72 24.18 25.84L24.18 25.84L24.18 25.84Q23.75 22.96 23.28 20.37L23.28 20.37L23.28 20.37Q22.82 17.78 22.53 15.98L22.53 15.98L22.53 15.98Q22.24 14.18 22.10 13.67ZM11.73 22.67L11.73 22.67L10.94 18.42L10.94 18.42Q11.73 18.35 12.63 18.28L12.63 18.28L12.63 18.28Q13.53 18.21 14.46 18.14L14.46 18.14L14.46 18.14Q15.54 17.99 17.56 17.74L17.56 17.74L17.56 17.74Q19.58 17.49 22.06 17.09L22.06 17.09L22.06 17.09Q24.54 16.70 27.03 16.30L27.03 16.30L27.03 16.30Q29.51 15.90 31.56 15.54L31.56 15.54L31.56 15.54Q33.62 15.18 34.77 15.04L34.77 15.04L34.77 15.04Q35.63 14.90 36.46 14.64L36.46 14.64L36.46 14.64Q37.29 14.39 37.79 14.25L37.79 14.25L38.51 18.35L38.51 18.35Q37.94 18.42 37.11 18.50L37.11 18.50L37.11 18.50Q36.28 18.57 35.49 18.71L35.49 18.71L35.49 18.71Q33.90 18.93 31.06 19.40L31.06 19.40L31.06 19.40Q28.22 19.86 25.01 20.37L25.01 20.37L25.01 20.37Q21.81 20.87 19.11 21.30L19.11 21.30L19.11 21.30Q16.41 21.74 15.11 21.95L15.11 21.95L15.11 21.95Q14.10 22.10 13.24 22.31L13.24 22.31L13.24 22.31Q12.38 22.53 11.73 22.67ZM11.44 33.26L10.65 29.08L10.65 29.08Q11.44 29.08 12.45 28.94L12.45 28.94L12.45 28.94Q13.46 28.79 14.39 28.72L14.39 28.72L14.39 28.72Q15.98 28.50 19 28.04L19 28.04L19 28.04Q22.02 27.57 25.52 26.96L25.52 26.96L25.52 26.96Q29.01 26.34 32.32 25.80L32.32 25.80L32.32 25.80Q35.63 25.26 37.72 24.90L37.72 24.90L37.72 24.90Q38.80 24.69 39.81 24.47L39.81 24.47L39.81 24.47Q40.82 24.26 41.39 24.11L41.39 24.11L42.18 28.14L42.18 28.14Q41.54 28.22 40.53 28.36L40.53 28.36L40.53 28.36Q39.52 28.50 38.37 28.65L38.37 28.65L38.37 28.65Q36.42 28.94 33.18 29.48L33.18 29.48L33.18 29.48Q29.94 30.02 26.38 30.59L26.38 30.59L26.38 30.59Q22.82 31.17 19.79 31.71L19.79 31.71L19.79 31.71Q16.77 32.25 15.18 32.46L15.18 32.46L15.18 32.46Q13.96 32.75 13.17 32.86L13.17 32.86L13.17 32.86Q12.38 32.97 11.44 33.26L11.44 33.26ZM46.36 48.45L46.36 48.45L46.36 48.45Q47.44 48.52 48.38 48.52L48.38 48.52L48.38 48.52Q49.31 48.52 49.89 48.52L49.89 48.52L49.89 48.52Q50.46 48.52 52.41 48.52L52.41 48.52L52.41 48.52Q54.35 48.52 56.91 48.52L56.91 48.52L56.91 48.52Q59.46 48.52 61.98 48.52L61.98 48.52L61.98 48.52Q64.50 48.52 66.41 48.52L66.41 48.52L66.41 48.52Q68.32 48.52 68.82 48.52L68.82 48.52L68.82 48.52Q69.47 48.52 70.52 48.52L70.52 48.52L70.52 48.52Q71.56 48.52 72.35 48.45L72.35 48.45L72.35 48.45Q72.28 49.17 72.28 50.03L72.28 50.03L72.28 50.03Q72.28 50.90 72.28 51.62L72.28 51.62L72.28 51.62Q72.28 52.12 72.28 53.78L72.28 53.78L72.28 53.78Q72.28 55.43 72.28 57.66L72.28 57.66L72.28 57.66Q72.28 59.90 72.28 62.09L72.28 62.09L72.28 62.09Q72.28 64.29 72.28 65.87L72.28 65.87L72.28 65.87Q72.28 67.46 72.28 67.89L72.28 67.89L72.28 67.89Q72.28 68.68 72.32 69.76L72.32 69.76L72.32 69.76Q72.35 70.84 72.35 71.78L72.35 71.78L72.35 71.78Q72.35 72.71 72.42 73.07L72.42 73.07L68.10 73.07L68.10 73.07Q68.18 72.86 68.18 72.03L68.18 72.03L68.18 72.03Q68.18 71.20 68.21 70.05L68.21 70.05L68.21 70.05Q68.25 68.90 68.25 67.89L68.25 67.89L68.25 67.89Q68.25 67.53 68.25 65.84L68.25 65.84L68.25 65.84Q68.25 64.14 68.25 61.91L68.25 61.91L68.25 61.91Q68.25 59.68 68.25 57.52L68.25 57.52L68.25 57.52Q68.25 55.36 68.25 53.92L68.25 53.92L68.25 53.92Q68.25 52.48 68.25 52.48L68.25 52.48L50.46 52.48L50.46 52.48Q50.46 52.48 50.46 53.92L50.46 53.92L50.46 53.92Q50.46 55.36 50.46 57.48L50.46 57.48L50.46 57.48Q50.46 59.61 50.46 61.88L50.46 61.88L50.46 61.88Q50.46 64.14 50.46 65.84L50.46 65.84L50.46 65.84Q50.46 67.53 50.46 67.96L50.46 67.96L50.46 67.96Q50.46 68.75 50.50 69.87L50.50 69.87L50.50 69.87Q50.54 70.98 50.54 71.88L50.54 71.88L50.54 71.88Q50.54 72.78 50.54 73.07L50.54 73.07L46.29 73.07L46.29 73.07Q46.36 72.78 46.36 71.92L46.36 71.92L46.36 71.92Q46.36 71.06 46.40 69.94L46.40 69.94L46.40 69.94Q46.43 68.82 46.43 67.96L46.43 67.96L46.43 67.96Q46.43 67.53 46.43 65.87L46.43 65.87L46.43 65.87Q46.43 64.22 46.43 61.98L46.43 61.98L46.43 61.98Q46.43 59.75 46.43 57.56L46.43 57.56L46.43 57.56Q46.43 55.36 46.43 53.70L46.43 53.70L46.43 53.70Q46.43 52.05 46.43 51.62L46.43 51.62L46.43 51.62Q46.43 50.97 46.43 50.03L46.43 50.03L46.43 50.03Q46.43 49.10 46.36 48.45ZM48.23 71.06L48.23 67.02L70.19 67.02L70.19 71.06L48.23 71.06Z" fill="#1A1A1C"></path></svg>