<svg width="88.688" height="88.688" viewBox="0 0 88.688 88.688" fill="none" xmlns="http://www.w3.org/2000/svg"><path d="M36.96 12.74L39.56 11.58L39.56 11.58Q40.42 12.74 41.39 14.36L41.39 14.36L41.39 14.36Q42.36 15.98 43.01 17.27L43.01 17.27L40.35 18.42L40.35 18.42Q39.63 17.06 38.73 15.47L38.73 15.47L38.73 15.47Q37.83 13.89 36.96 12.74L36.96 12.74ZM41.21 11.15L43.88 10.00L43.88 10.00Q44.74 11.22 45.71 12.81L45.71 12.81L45.71 12.81Q46.68 14.39 47.40 15.69L47.40 15.69L44.74 16.84L44.74 16.84Q44.02 15.47 43.12 13.92L43.12 13.92L43.12 13.92Q42.22 12.38 41.21 11.15L41.21 11.15ZM38.69 17.63L41.36 19.29L41.36 19.29Q41.14 19.72 40.82 20.44L40.82 20.44L40.82 20.44Q40.49 21.16 40.28 21.66L40.28 21.66L40.28 21.66Q39.27 25.05 37.50 28.36L37.50 28.36L37.50 28.36Q35.74 31.67 33.29 34.62L33.29 34.62L33.29 34.62Q30.41 38.22 26.81 40.85L26.81 40.85L26.81 40.85Q23.21 43.48 19.11 45.06L19.11 45.06L15.36 41.82L15.36 41.82Q19.61 40.46 23.10 38.19L23.10 38.19L23.10 38.19Q26.60 35.92 29.76 32.32L29.76 32.32L29.76 32.32Q32.07 29.66 33.54 26.88L33.54 26.88L33.54 26.88Q35.02 24.11 35.60 21.88L35.60 21.88L22.28 21.88L23.93 18.14L23.93 18.14Q24.58 18.14 26.34 18.14L26.34 18.14L26.34 18.14Q28.11 18.14 30.20 18.14L30.20 18.14L30.20 18.14Q32.28 18.14 33.98 18.14L33.98 18.14L33.98 18.14Q35.67 18.14 36.17 18.14L36.17 18.14L36.17 18.14Q36.96 18.14 37.58 18.03L37.58 18.03L37.58 18.03Q38.19 17.92 38.69 17.63L38.69 17.63ZM24.65 12.09L24.65 12.09L29.26 13.53L29.26 13.53Q28.90 14.25 28.36 15.18L28.36 15.18L28.36 15.18Q27.82 16.12 27.60 16.62L27.60 16.62L27.60 16.62Q25.95 19.94 23.00 23.75L23.00 23.75L23.00 23.75Q20.04 27.57 15.44 30.74L15.44 30.74L12.20 28.00L12.20 28.00Q17.24 24.76 19.76 21.27L19.76 21.27L19.76 21.27Q22.28 17.78 23.57 15.18L23.57 15.18L23.57 15.18Q23.79 14.68 24.15 13.78L24.15 13.78L24.15 13.78Q24.51 12.88 24.65 12.09ZM24.65 48.38L24.65 48.38L29.55 49.46L29.55 49.46Q29.12 50.39 28.76 51.26L28.76 51.26L28.76 51.26Q28.40 52.12 28.04 53.34L28.04 53.34L28.04 53.34Q27.68 54.50 26.99 56.55L26.99 56.55L26.99 56.55Q26.31 58.60 25.41 61.12L25.41 61.12L25.41 61.12Q24.51 63.64 23.64 66.09L23.64 66.09L23.64 66.09Q22.78 68.54 22.02 70.55L22.02 70.55L22.02 70.55Q21.27 72.57 20.76 73.79L20.76 73.79L16.37 73.65L16.37 73.65Q16.95 72.35 17.78 70.19L17.78 70.19L17.78 70.19Q18.60 68.03 19.50 65.48L19.50 65.48L19.50 65.48Q20.40 62.92 21.30 60.36L21.30 60.36L21.30 60.36Q22.20 57.81 22.89 55.72L22.89 55.72L22.89 55.72Q23.57 53.63 23.93 52.41L23.93 52.41L23.93 52.41Q24.29 51.04 24.44 50.25L24.44 50.25L24.44 50.25Q24.58 49.46 24.65 48.38ZM32.50 62.78L32.50 62.78L36.17 61.12L36.17 61.12Q37.68 63.06 39.30 65.98L39.30 65.98L39.30 65.98Q40.92 68.90 42.40 71.81L42.40 71.81L42.40 71.81Q43.88 74.73 44.74 76.82L44.74 76.82L40.71 78.69L40.71 78.69Q39.92 76.46 38.55 73.47L38.55 73.47L38.55 73.47Q37.18 70.48 35.60 67.56L35.60 67.56L35.60 67.56Q34.01 64.65 32.50 62.78ZM15.29 72.06L15.29 72.06L15.29 72.06Q17.38 71.99 20.58 71.74L20.58 71.74L20.58 71.74Q23.79 71.49 27.32 71.16L27.32 71.16L27.32 71.16Q30.84 70.84 33.94 70.52L33.94 70.52L33.94 70.52Q37.04 70.19 38.91 69.90L38.91 69.90L40.13 73.72L40.13 73.72Q38.04 74.01 34.73 74.37L34.73 74.37L34.73 74.37Q31.42 74.73 27.78 75.05L27.78 75.05L27.78 75.05Q24.15 75.38 20.87 75.66L20.87 75.66L20.87 75.66Q17.60 75.95 15.51 76.17L15.51 76.17L15.51 76.17Q14.79 76.24 14.00 76.35L14.00 76.35L14.00 76.35Q13.20 76.46 12.12 76.67L12.12 76.67L11.69 72.06L11.69 72.06Q12.77 72.14 13.64 72.14L13.64 72.14L13.64 72.14Q14.50 72.14 15.29 72.06ZM52.30 17.42L52.30 13.31L52.30 13.31Q53.09 13.38 54.10 13.46L54.10 13.46L54.10 13.46Q55.11 13.53 55.97 13.53L55.97 13.53L55.97 13.53Q56.76 13.53 58.78 13.53L58.78 13.53L58.78 13.53Q60.80 13.53 63.24 13.53L63.24 13.53L63.24 13.53Q65.69 13.53 67.74 13.53L67.74 13.53L67.74 13.53Q69.80 13.53 70.59 13.53L70.59 13.53L70.59 13.53Q71.52 13.53 72.64 13.46L72.64 13.46L72.64 13.46Q73.76 13.38 74.48 13.31L74.48 13.31L74.48 17.42L74.48 17.42Q73.76 17.34 72.64 17.31L72.64 17.31L72.64 17.31Q71.52 17.27 70.52 17.27L70.52 17.27L70.52 17.27Q69.72 17.27 67.71 17.27L67.71 17.27L67.71 17.27Q65.69 17.27 63.28 17.27L63.28 17.27L63.28 17.27Q60.87 17.27 58.85 17.27L58.85 17.27L58.85 17.27Q56.84 17.27 55.97 17.27L55.97 17.27L55.97 17.27Q55.18 17.27 54.14 17.27L54.14 17.27L54.14 17.27Q53.09 17.27 52.30 17.42L52.30 17.42ZM74.40 22.31L77.00 23.97L77.00 23.97Q76.85 24.26 76.71 24.62L76.71 24.62L76.71 24.62Q76.56 24.98 76.42 25.26L76.42 25.26L76.42 25.26Q75.63 27.93 74.19 30.84L74.19 30.84L74.19 30.84Q72.75 33.76 70.52 36.14L70.52 36.14L70.52 36.14Q68.57 38.37 66.12 39.88L66.12 39.88L66.12 39.88Q63.68 41.39 61.30 42.33L61.30 42.33L61.30 42.33Q58.92 43.26 57.05 43.91L57.05 43.91L54.17 40.53L54.17 40.53Q57.56 39.74 61.12 38.08L61.12 38.08L61.12 38.08Q64.68 36.42 67.28 33.90L67.28 33.90L67.28 33.90Q69.00 32.03 70.01 30.20L70.01 30.20L70.01 30.20Q71.02 28.36 71.67 26.42L71.67 26.42L71.67 26.42Q71.09 26.42 69.29 26.42L69.29 26.42L69.29 26.42Q67.49 26.42 65.12 26.42L65.12 26.42L65.12 26.42Q62.74 26.42 60.33 26.42L60.33 26.42L60.33 26.42Q57.92 26.42 56.04 26.42L56.04 26.42L56.04 26.42Q54.17 26.42 53.45 26.42L53.45 26.42L53.45 26.42Q52.80 26.42 51.58 26.45L51.58 26.45L51.58 26.45Q50.36 26.49 49.35 26.56L49.35 26.56L49.35 22.38L49.35 22.38Q50.43 22.46 51.58 22.56L51.58 22.56L51.58 22.56Q52.73 22.67 53.45 22.67L53.45 22.67L53.45 22.67Q54.10 22.67 55.97 22.67L55.97 22.67L55.97 22.67Q57.84 22.67 60.33 22.67L60.33 22.67L60.33 22.67Q62.81 22.67 65.33 22.67L65.33 22.67L65.33 22.67Q67.85 22.67 69.72 22.67L69.72 22.67L69.72 22.67Q71.60 22.67 72.17 22.67L72.17 22.67L72.17 22.67Q72.82 22.67 73.47 22.56L73.47 22.56L73.47 22.56Q74.12 22.46 74.40 22.31L74.40 22.31Z" fill="#1A1A1C"></path></svg>