<svg width="87.39200000000001" height="87.39200000000001" viewBox="0 0 87.39200000000001 87.39200000000001" fill="none" xmlns="http://www.w3.org/2000/svg"><path d="M32.68 10.00L37.07 11.66L37.07 11.66Q36.71 12.30 36.39 13.06L36.39 13.06L36.39 13.06Q36.06 13.82 35.85 14.46L35.85 14.46L35.85 14.46Q35.27 15.90 34.23 18.17L34.23 18.17L34.23 18.17Q33.18 20.44 31.85 22.82L31.85 22.82L31.85 22.82Q30.52 25.19 29.01 27.28L29.01 27.28L29.01 27.28Q27.35 29.51 25.30 31.85L25.30 31.85L25.30 31.85Q23.25 34.19 20.66 36.46L20.66 36.46L20.66 36.46Q18.06 38.73 14.61 40.67L14.61 40.67L11.30 37.50L11.30 37.50Q15.98 35.13 19.43 31.92L19.43 31.92L19.43 31.92Q22.89 28.72 25.70 25.05L25.70 25.05L25.70 25.05Q27.06 23.18 28.32 21.02L28.32 21.02L28.32 21.02Q29.58 18.86 30.56 16.73L30.56 16.73L30.56 16.73Q31.53 14.61 32.03 13.02L32.03 13.02L32.03 13.02Q32.18 12.38 32.39 11.58L32.39 11.58L32.39 11.58Q32.61 10.79 32.68 10.00L32.68 10.00ZM14.68 19.58L17.20 16.41L17.20 16.41Q18.78 17.20 20.94 18.53L20.94 18.53L20.94 18.53Q23.10 19.86 25.30 21.34L25.30 21.34L25.30 21.34Q27.50 22.82 29.01 23.82L29.01 23.82L29.01 23.82Q30.66 24.98 32.86 26.70L32.86 26.70L32.86 26.70Q35.06 28.43 37.11 30.09L37.11 30.09L37.11 30.09Q39.16 31.74 40.31 32.82L40.31 32.82L37.50 36.35L37.50 36.35Q36.28 35.06 34.41 33.44L34.41 33.44L34.41 33.44Q32.54 31.82 30.48 30.12L30.48 30.12L30.48 30.12Q28.43 28.43 26.49 27.06L26.49 27.06L26.49 27.06Q25.12 25.98 22.96 24.58L22.96 24.58L22.96 24.58Q20.80 23.18 18.64 21.81L18.64 21.81L18.64 21.81Q16.48 20.44 14.68 19.58L14.68 19.58ZM46.43 27.35L46.43 22.82L46.43 22.82Q47.30 22.89 48.70 23.00L48.70 23.00L48.70 23.00Q50.10 23.10 51.62 23.10L51.62 23.10L51.62 23.10Q52.48 23.10 54.50 23.10L54.50 23.10L54.50 23.10Q56.51 23.10 59.14 23.10L59.14 23.10L59.14 23.10Q61.77 23.10 64.40 23.10L64.40 23.10L64.40 23.10Q67.02 23.10 69.08 23.10L69.08 23.10L69.08 23.10Q71.13 23.10 71.92 23.10L71.92 23.10L71.92 23.10Q73.36 23.10 74.30 23.00L74.30 23.00L74.30 23.00Q75.23 22.89 75.88 22.82L75.88 22.82L75.88 27.35L75.88 27.35Q75.30 27.35 74.26 27.24L74.26 27.24L74.26 27.24Q73.22 27.14 71.99 27.14L71.99 27.14L71.99 27.14Q71.13 27.14 69.08 27.14L69.08 27.14L69.08 27.14Q67.02 27.14 64.40 27.14L64.40 27.14L64.40 27.14Q61.77 27.14 59.14 27.14L59.14 27.14L59.14 27.14Q56.51 27.14 54.50 27.14L54.50 27.14L54.50 27.14Q52.48 27.14 51.62 27.14L51.62 27.14L51.62 27.14Q50.10 27.14 48.74 27.21L48.74 27.21L48.74 27.21Q47.37 27.28 46.43 27.35L46.43 27.35ZM62.20 76.38L62.20 76.38L59.90 74.44L59.90 74.44Q60.18 73.58 60.18 72.42L60.18 72.42L60.18 72.42Q60.18 71.85 60.18 69.80L60.18 69.80L60.18 69.80Q60.18 67.74 60.18 64.90L60.18 64.90L60.18 64.90Q60.18 62.06 60.18 59.21L60.18 59.21L60.18 59.21Q60.18 56.37 60.18 54.17L60.18 54.17L60.18 54.17Q60.18 51.98 60.18 51.33L60.18 51.33L60.18 51.33Q60.18 50.32 60.04 49.46L60.04 49.46L60.04 49.46Q59.90 48.59 59.90 48.38L59.90 48.38L64.36 48.38L64.36 48.38Q64.29 48.59 64.22 49.46L64.22 49.46L64.22 49.46Q64.14 50.32 64.14 51.33L64.14 51.33L64.14 51.33Q64.14 51.90 64.14 53.42L64.14 53.42L64.14 53.42Q64.14 54.93 64.14 57.02L64.14 57.02L64.14 57.02Q64.14 59.10 64.14 61.34L64.14 61.34L64.14 61.34Q64.14 63.57 64.14 65.51L64.14 65.51L64.14 65.51Q64.14 67.46 64.14 68.79L64.14 68.79L64.14 68.79Q64.14 70.12 64.14 70.41L64.14 70.41L64.14 70.41Q66.38 69.18 69.04 66.99L69.04 66.99L69.04 66.99Q71.70 64.79 73.79 61.62L73.79 61.62L76.10 64.94L76.10 64.94Q74.51 67.17 72.39 69.15L72.39 69.15L72.39 69.15Q70.26 71.13 67.92 72.75L67.92 72.75L67.92 72.75Q65.58 74.37 63.57 75.38L63.57 75.38L63.57 75.38Q63.06 75.66 62.78 75.92L62.78 75.92L62.78 75.92Q62.49 76.17 62.20 76.38ZM46.50 76.46L43.05 73.79L43.05 73.79Q45.42 71.92 46.97 69.87L46.97 69.87L46.97 69.87Q48.52 67.82 49.31 65.15L49.31 65.15L49.31 65.15Q49.89 63.50 50.10 61.01L50.10 61.01L50.10 61.01Q50.32 58.53 50.39 55.90L50.39 55.90L50.39 55.90Q50.46 53.27 50.46 51.33L50.46 51.33L50.46 51.33Q50.46 50.54 50.36 49.71L50.36 49.71L50.36 49.71Q50.25 48.88 50.18 48.30L50.18 48.30L54.64 48.30L54.64 48.30Q54.57 48.59 54.46 49.53L54.46 49.53L54.46 49.53Q54.35 50.46 54.35 51.26L54.35 51.26L54.35 51.26Q54.35 53.27 54.28 56.04L54.28 56.04L54.28 56.04Q54.21 58.82 53.99 61.55L53.99 61.55L53.99 61.55Q53.78 64.29 53.20 66.16L53.20 66.16L53.20 66.16Q52.41 69.11 50.68 71.78L50.68 71.78L50.68 71.78Q48.95 74.44 46.50 76.46L46.50 76.46ZM19.65 72.42L19.65 72.42L19.65 72.42Q19.65 71.78 19.65 69.65L19.65 69.65L19.65 69.65Q19.65 67.53 19.65 64.65L19.65 64.65L19.65 64.65Q19.65 61.77 19.65 58.82L19.65 58.82L19.65 58.82Q19.65 55.86 19.65 53.52L19.65 53.52L19.65 53.52Q19.65 51.18 19.65 50.18L19.65 50.18L19.65 50.18Q19.65 49.31 19.58 48.02L19.58 48.02L19.58 48.02Q19.50 46.72 19.29 45.78L19.29 45.78L24.04 45.78L24.04 45.78Q23.97 46.72 23.86 48.02L23.86 48.02L23.86 48.02Q23.75 49.31 23.75 50.18L23.75 50.18L23.75 50.18Q23.75 52.05 23.75 54.68L23.75 54.68L23.75 54.68Q23.75 57.30 23.75 60.15L23.75 60.15L23.75 60.15Q23.75 62.99 23.75 65.58L23.75 65.58L23.75 65.58Q23.75 68.18 23.75 70.05L23.75 70.05L23.75 70.05Q23.75 71.92 23.75 72.42L23.75 72.42L23.75 72.42Q23.75 73.36 23.82 74.87L23.82 74.87L23.82 74.87Q23.90 76.38 24.04 77.39L24.04 77.39L19.36 77.39L19.36 77.39Q19.50 76.38 19.58 74.94L19.58 74.94L19.58 74.94Q19.65 73.50 19.65 72.42ZM22.31 60.40L22.67 56.08L22.67 56.08Q25.26 56.87 28.14 57.88L28.14 57.88L28.14 57.88Q31.02 58.89 33.80 60.08L33.80 60.08L33.80 60.08Q36.57 61.26 38.87 62.42L38.87 62.42L37 66.38L37 66.38Q34.62 65.08 31.96 63.96L31.96 63.96L31.96 63.96Q29.30 62.85 26.81 61.91L26.81 61.91L26.81 61.91Q24.33 60.98 22.31 60.40L22.31 60.40Z" fill="#1A1A1C"></path></svg>