<svg width="80.98400000000001" height="80.98400000000001" viewBox="0 0 80.98400000000001 80.98400000000001" fill="none" xmlns="http://www.w3.org/2000/svg"><path d="M70.98 15.54L10 15.54L10 10L70.98 10L70.98 15.54ZM32.46 26.63L10 26.63L10 21.09L32.46 21.09L32.46 26.63ZM70.98 26.63L48.52 26.63L48.52 21.09L70.98 21.09L70.98 26.63ZM70.98 37.72L10 37.72L10 32.18L70.98 32.18L70.98 37.72ZM70.98 48.81L10 48.81L10 43.26L70.98 43.26L70.98 48.81ZM70.98 59.90L10 59.90L10 54.35L70.98 54.35L70.98 59.90ZM32.46 70.98L10 70.98L10 65.44L32.46 65.44L32.46 70.98ZM70.98 70.98L48.52 70.98L48.52 65.44L70.98 65.44L70.98 70.98Z" fill="#1A1A1C"></path></svg>