<svg width="84.08000000000001" height="84.08000000000001" viewBox="0 0 84.08000000000001 84.08000000000001" fill="none" xmlns="http://www.w3.org/2000/svg"><path d="M14.61 19.72L14.61 14.39L68.97 14.39L68.97 19.72L14.61 19.72ZM10 69.69L10 64.36L74.08 64.36L74.08 69.69L10 69.69ZM35.63 16.26L35.63 16.26L41.68 16.26L41.68 16.26Q40.60 22.46 39.30 29.44L39.30 29.44L39.30 29.44Q38.01 36.42 36.64 43.41L36.64 43.41L36.64 43.41Q35.27 50.39 33.90 56.66L33.90 56.66L33.90 56.66Q32.54 62.92 31.38 67.60L31.38 67.60L25.34 67.60L25.34 67.60Q26.63 62.78 28.04 56.44L28.04 56.44L28.04 56.44Q29.44 50.10 30.84 43.12L30.84 43.12L30.84 43.12Q32.25 36.14 33.51 29.22L33.51 29.22L33.51 29.22Q34.77 22.31 35.63 16.26ZM17.42 40.89L17.42 35.63L62.13 35.63L62.13 66.81L56.58 66.81L56.58 40.89L17.42 40.89Z" fill="#1A1A1C"></path></svg>