<svg width="87.75200000000001" height="87.75200000000001" viewBox="0 0 87.75200000000001 87.75200000000001" fill="none" xmlns="http://www.w3.org/2000/svg"><path d="M30.30 73.97L30.30 68.93L77.75 68.93L77.75 73.97L30.30 73.97ZM65.80 40.13L41.97 40.13L41.97 54.60L65.80 54.60L65.80 40.13ZM65.80 20.91L41.97 20.91L41.97 35.09L65.80 35.09L65.80 20.91ZM36.42 59.64L36.42 15.80L71.63 15.80L71.63 59.64L36.42 59.64ZM28.14 10.97L28.14 10.97L33.40 12.56L33.40 12.56Q31.02 18.68 27.82 24.65L27.82 24.65L27.82 24.65Q24.62 30.63 20.87 35.88L20.87 35.88L20.87 35.88Q17.13 41.14 13.17 45.17L13.17 45.17L13.17 45.17Q12.95 44.52 12.38 43.48L12.38 43.48L12.38 43.48Q11.80 42.44 11.19 41.36L11.19 41.36L11.19 41.36Q10.58 40.28 10 39.63L10 39.63L10 39.63Q13.67 36.17 17.02 31.56L17.02 31.56L17.02 31.56Q20.37 26.96 23.25 21.66L23.25 21.66L23.25 21.66Q26.13 16.37 28.14 10.97ZM20.51 76.78L20.51 29.48L25.77 24.22L25.84 24.29L25.84 76.78L20.51 76.78Z" fill="#1A1A1C"></path></svg>