<svg width="86.31200000000001" height="86.31200000000001" viewBox="0 0 86.31200000000001 86.31200000000001" fill="none" xmlns="http://www.w3.org/2000/svg"><path d="M12.92 28.72L12.92 23.46L75.84 23.46L75.84 28.72L12.92 28.72ZM30.77 72.28L30.77 67.02L67.06 67.02L67.06 72.28L30.77 72.28ZM27.53 76.31L27.53 42.69L70.59 42.69L70.59 75.95L64.97 75.95L64.97 47.94L32.93 47.94L32.93 76.31L27.53 76.31ZM37.90 10.00L37.90 10.00L43.52 11.08L43.52 11.08Q41.79 18.42 39.30 25.62L39.30 25.62L39.30 25.62Q36.82 32.82 33.29 39.52L33.29 39.52L33.29 39.52Q29.76 46.22 25.05 51.94L25.05 51.94L25.05 51.94Q20.33 57.66 14.14 62.06L14.14 62.06L14.14 62.06Q13.71 61.41 13.06 60.62L13.06 60.62L13.06 60.62Q12.41 59.82 11.76 59.07L11.76 59.07L11.76 59.07Q11.12 58.31 10.47 57.74L10.47 57.74L10.47 57.74Q16.37 53.70 20.84 48.34L20.84 48.34L20.84 48.34Q25.30 42.98 28.61 36.68L28.61 36.68L28.61 36.68Q31.92 30.38 34.19 23.61L34.19 23.61L34.19 23.61Q36.46 16.84 37.90 10.00Z" fill="#1A1A1C"></path></svg>