<svg width="85.52000000000001" height="85.52000000000001" viewBox="0 0 85.52000000000001 85.52000000000001" fill="none" xmlns="http://www.w3.org/2000/svg"><path d="M40.89 36.64L40.89 31.74L64.36 31.74L64.36 36.64L40.89 36.64ZM34.05 49.67L34.05 44.56L66.30 44.56L66.30 49.67L34.05 49.67ZM52.48 15.40L52.48 15.40L52.48 15.40Q50.54 19.07 47.58 22.96L47.58 22.96L47.58 22.96Q44.63 26.85 41.00 30.38L41.00 30.38L41.00 30.38Q37.36 33.90 33.33 36.64L33.33 36.64L33.33 36.64Q32.90 35.56 32.07 34.26L32.07 34.26L32.07 34.26Q31.24 32.97 30.52 32.10L30.52 32.10L30.52 32.10Q34.55 29.58 38.22 25.91L38.22 25.91L38.22 25.91Q41.90 22.24 44.88 18.10L44.88 18.10L44.88 18.10Q47.87 13.96 49.60 10.00L49.60 10.00L54.86 10.00L54.86 10.00Q57.23 14.32 60.51 18.39L60.51 18.39L60.51 18.39Q63.78 22.46 67.53 25.88L67.53 25.88L67.53 25.88Q71.27 29.30 75.02 31.46L75.02 31.46L75.02 31.46Q74.22 32.39 73.40 33.76L73.40 33.76L73.40 33.76Q72.57 35.13 71.99 36.28L71.99 36.28L71.99 36.28Q68.25 33.76 64.58 30.34L64.58 30.34L64.58 30.34Q60.90 26.92 57.77 23.03L57.77 23.03L57.77 23.03Q54.64 19.14 52.48 15.40ZM64.86 45.28L64.86 44.56L65.58 44.56L66.52 44.27L70.55 45.28L70.55 45.28Q69.54 48.45 68.25 52.19L68.25 52.19L68.25 52.19Q66.95 55.94 65.48 59.97L65.48 59.97L65.48 59.97Q64.00 64.00 62.45 67.96L62.45 67.96L62.45 67.96Q60.90 71.92 59.54 75.52L59.54 75.52L54.06 74.37L54.06 74.37Q55.50 70.84 57.05 66.84L57.05 66.84L57.05 66.84Q58.60 62.85 60.08 58.82L60.08 58.82L60.08 58.82Q61.55 54.78 62.81 51.26L62.81 51.26L62.81 51.26Q64.07 47.73 64.86 45.28L64.86 45.28ZM13.74 21.74L13.74 16.70L31.17 16.70L31.17 56.30L13.74 56.30L13.74 51.18L25.98 51.18L25.98 21.74L13.74 21.74ZM10.50 62.63L10.50 16.70L15.47 16.70L15.47 62.63L10.50 62.63Z" fill="#1A1A1C"></path></svg>