<svg width="83.072" height="83.072" viewBox="0 0 83.072 83.072" fill="none" xmlns="http://www.w3.org/2000/svg"><path d="M19.90 34.70L19.90 10.22L25.44 10.22L25.44 34.70L25.44 34.70Q25.44 39.88 25.12 44.99L25.12 44.99L25.12 44.99Q24.80 50.10 23.72 55.04L23.72 55.04L23.72 55.04Q22.64 59.97 20.58 64.50L20.58 64.50L20.58 64.50Q18.53 69.04 14.93 73.07L14.93 73.07L14.93 73.07Q14.50 72.42 13.67 71.74L13.67 71.74L13.67 71.74Q12.84 71.06 11.98 70.37L11.98 70.37L11.98 70.37Q11.12 69.69 10.47 69.33L10.47 69.33L10.47 69.33Q14.72 64.36 16.73 58.74L16.73 58.74L16.73 58.74Q18.75 53.13 19.32 47.01L19.32 47.01L19.32 47.01Q19.90 40.89 19.90 34.70L19.90 34.70ZM42.80 66.16L42.80 13.17L48.27 13.17L48.27 66.16L42.80 66.16ZM66.99 72.42L66.99 10L72.60 10L72.60 72.42L66.99 72.42Z" fill="#1A1A1C"></path></svg>