<svg width="86.096" height="86.096" viewBox="0 0 86.096 86.096" fill="none" xmlns="http://www.w3.org/2000/svg"><path d="M34.12 16.05L34.12 11.51L75.16 11.51L75.16 16.05L34.12 16.05ZM64.72 34.26L64.72 13.17L69.90 13.17L69.90 34.41L69.90 34.41Q69.90 36.35 69.44 37.36L69.44 37.36L69.44 37.36Q68.97 38.37 67.53 38.94L67.53 38.94L67.53 38.94Q66.16 39.52 63.89 39.63L63.89 39.63L63.89 39.63Q61.62 39.74 58.24 39.74L58.24 39.74L58.24 39.74Q58.10 38.73 57.59 37.50L57.59 37.50L57.59 37.50Q57.09 36.28 56.58 35.34L56.58 35.34L56.58 35.34Q59.10 35.42 61.05 35.42L61.05 35.42L61.05 35.42Q62.99 35.42 63.57 35.42L63.57 35.42L63.57 35.42Q64.29 35.34 64.50 35.09L64.50 35.09L64.50 35.09Q64.72 34.84 64.72 34.26L64.72 34.26ZM33.62 46.29L33.62 41.61L76.10 41.61L76.10 46.29L33.62 46.29ZM64.86 68.54L64.86 43.55L70.05 43.55L70.05 68.61L70.05 68.61Q70.05 70.77 69.51 71.96L69.51 71.96L69.51 71.96Q68.97 73.14 67.38 73.79L67.38 73.79L67.38 73.79Q65.80 74.44 63.17 74.55L63.17 74.55L63.17 74.55Q60.54 74.66 56.51 74.66L56.51 74.66L56.51 74.66Q56.37 73.65 55.79 72.21L55.79 72.21L55.79 72.21Q55.22 70.77 54.64 69.76L54.64 69.76L54.64 69.76Q57.81 69.83 60.26 69.83L60.26 69.83L60.26 69.83Q62.70 69.83 63.50 69.83L63.50 69.83L63.50 69.83Q64.36 69.76 64.61 69.51L64.61 69.51L64.61 69.51Q64.86 69.26 64.86 68.54L64.86 68.54ZM39.88 54.64L39.88 50.68L58.31 50.68L58.31 66.30L39.88 66.30L39.88 62.27L53.78 62.27L53.78 54.64L39.88 54.64ZM37.72 69.76L37.72 50.68L42.33 50.68L42.33 69.76L37.72 69.76ZM53.27 23.68L42.54 23.68L42.54 30.95L53.27 30.95L53.27 23.68ZM38.22 34.77L38.22 19.94L57.88 19.94L57.88 34.77L38.22 34.77ZM26.34 43.41L26.34 42.54L31.38 42.54L31.38 42.54Q31.38 42.54 31.38 42.98L31.38 42.98L31.38 42.98Q31.38 43.41 31.38 43.95L31.38 43.95L31.38 43.95Q31.38 44.49 31.31 44.92L31.31 44.92L31.31 44.92Q30.88 53.99 30.41 59.64L30.41 59.64L30.41 59.64Q29.94 65.30 29.26 68.21L29.26 68.21L29.26 68.21Q28.58 71.13 27.57 72.35L27.57 72.35L27.57 72.35Q26.63 73.50 25.55 73.94L25.55 73.94L25.55 73.94Q24.47 74.37 22.82 74.51L22.82 74.51L22.82 74.51Q21.45 74.66 19.04 74.66L19.04 74.66L19.04 74.66Q16.62 74.66 13.96 74.51L13.96 74.51L13.96 74.51Q13.82 73.29 13.42 71.81L13.42 71.81L13.42 71.81Q13.02 70.34 12.30 69.26L12.30 69.26L12.30 69.26Q15.04 69.47 17.38 69.51L17.38 69.51L17.38 69.51Q19.72 69.54 20.66 69.54L20.66 69.54L20.66 69.54Q21.59 69.62 22.17 69.44L22.17 69.44L22.17 69.44Q22.74 69.26 23.18 68.75L23.18 68.75L23.18 68.75Q23.97 67.96 24.54 65.30L24.54 65.30L24.54 65.30Q25.12 62.63 25.55 57.34L25.55 57.34L25.55 57.34Q25.98 52.05 26.34 43.41L26.34 43.41ZM12.30 27.78L12.30 27.78L17.20 27.78L17.20 27.78Q16.91 31.46 16.48 35.63L16.48 35.63L16.48 35.63Q16.05 39.81 15.65 43.73L15.65 43.73L15.65 43.73Q15.26 47.66 14.82 50.61L14.82 50.61L10 49.82L10 49.82Q10.50 46.94 10.94 43.12L10.94 43.12L10.94 43.12Q11.37 39.30 11.76 35.27L11.76 35.27L11.76 35.27Q12.16 31.24 12.30 27.78ZM12.74 47.30L13.31 42.54L28.36 42.54L28.36 47.30L12.74 47.30ZM13.74 32.68L13.74 27.78L26.13 27.78L26.13 16.34L11.01 16.34L11.01 11.44L31.31 11.44L31.31 32.68L13.74 32.68Z" fill="#1A1A1C"></path></svg>