<svg width="87.536" height="87.536" viewBox="0 0 87.536 87.536" fill="none" xmlns="http://www.w3.org/2000/svg"><path d="M21.66 53.02L21.66 48.27L75.09 48.27L75.09 53.02L21.66 53.02ZM45.78 51.80L50.75 50.93L50.75 50.93Q53.49 59.21 60.11 63.82L60.11 63.82L60.11 63.82Q66.74 68.43 77.54 70.01L77.54 70.01L77.54 70.01Q76.96 70.59 76.31 71.42L76.31 71.42L76.31 71.42Q75.66 72.24 75.16 73.18L75.16 73.18L75.16 73.18Q74.66 74.12 74.22 74.84L74.22 74.84L74.22 74.84Q66.59 73.40 61.01 70.52L61.01 70.52L61.01 70.52Q55.43 67.64 51.69 63.03L51.69 63.03L51.69 63.03Q47.94 58.42 45.78 51.80L45.78 51.80ZM44.78 39.05L44.78 39.05L50.32 39.05L50.32 39.05Q49.89 44.81 49.10 49.67L49.10 49.67L49.10 49.67Q48.30 54.53 46.58 58.49L46.58 58.49L46.58 58.49Q44.85 62.45 41.86 65.58L41.86 65.58L41.86 65.58Q38.87 68.72 34.19 71.02L34.19 71.02L34.19 71.02Q29.51 73.32 22.60 74.98L22.60 74.98L22.60 74.98Q22.38 74.26 21.88 73.47L21.88 73.47L21.88 73.47Q21.38 72.68 20.80 71.85L20.80 71.85L20.80 71.85Q20.22 71.02 19.72 70.52L19.72 70.52L19.72 70.52Q27.64 68.86 32.46 66.12L32.46 66.12L32.46 66.12Q37.29 63.39 39.81 59.54L39.81 59.54L39.81 59.54Q42.33 55.68 43.37 50.57L43.37 50.57L43.37 50.57Q44.42 45.46 44.78 39.05ZM18.71 37.40L18.71 22.71L24.11 22.71L24.11 37.47L24.11 37.47Q24.11 41.50 23.75 46.14L23.75 46.14L23.75 46.14Q23.39 50.79 22.42 55.65L22.42 55.65L22.42 55.65Q21.45 60.51 19.61 65.12L19.61 65.12L19.61 65.12Q17.78 69.72 14.75 73.54L14.75 73.54L14.75 73.54Q14.32 73.11 13.46 72.50L13.46 72.50L13.46 72.50Q12.59 71.88 11.66 71.34L11.66 71.34L11.66 71.34Q10.72 70.80 10 70.59L10 70.59L10 70.59Q12.95 66.92 14.72 62.70L14.72 62.70L14.72 62.70Q16.48 58.49 17.34 54.03L17.34 54.03L17.34 54.03Q18.21 49.56 18.46 45.32L18.46 45.32L18.46 45.32Q18.71 41.07 18.71 37.40L18.71 37.40ZM21.45 27.03L21.45 22.71L70.77 22.71L70.77 39.77L21.45 39.77L21.45 35.38L65.44 35.38L65.44 27.03L21.45 27.03ZM13.74 17.45L13.74 12.56L74.58 12.56L74.58 17.45L13.74 17.45Z" fill="#1A1A1C"></path></svg>