<svg width="85.664" height="85.664" viewBox="0 0 85.664 85.664" fill="none" xmlns="http://www.w3.org/2000/svg"><path d="M48.38 74.40L48.38 35.16L53.63 35.16L53.63 74.40L48.38 74.40ZM12.16 44.74L12.16 40.64L34.19 40.64L34.19 44.74L12.16 44.74ZM14.61 54.03L14.61 49.92L34.12 49.92L34.12 54.03L14.61 54.03ZM51.11 54.03L51.11 49.92L71.13 49.92L71.13 54.03L51.11 54.03ZM50.97 63.89L50.97 59.64L75.66 59.64L75.66 63.89L50.97 63.89ZM51.18 44.74L51.18 40.64L73.65 40.64L73.65 44.74L51.18 44.74ZM10.50 64.76L10 60.29L10 60.29Q14.32 60.00 20.22 59.54L20.22 59.54L20.22 59.54Q26.13 59.07 32.32 58.56L32.32 58.56L32.32 62.52L32.32 62.52Q26.42 63.17 20.76 63.71L20.76 63.71L20.76 63.71Q15.11 64.25 10.50 64.76L10.50 64.76ZM61.84 25.23L23.75 25.23L23.75 31.49L61.84 31.49L61.84 25.23ZM61.84 15.00L23.75 15.00L23.75 21.20L61.84 21.20L61.84 15.00ZM18.50 35.74L18.50 10.83L67.31 10.83L67.31 35.74L18.50 35.74ZM31.74 53.16L31.74 35.16L37 35.16L37 53.24L37 53.24Q37 56.48 36.21 59.64L36.21 59.64L36.21 59.64Q35.42 62.81 33.33 65.62L33.33 65.62L33.33 65.62Q31.24 68.43 27.32 70.80L27.32 70.80L27.32 70.80Q23.39 73.18 17.06 74.84L17.06 74.84L17.06 74.84Q16.77 74.26 16.23 73.50L16.23 73.50L16.23 73.50Q15.69 72.75 15.11 71.96L15.11 71.96L15.11 71.96Q14.54 71.16 13.96 70.73L13.96 70.73L13.96 70.73Q19.94 69.44 23.50 67.53L23.50 67.53L23.50 67.53Q27.06 65.62 28.86 63.32L28.86 63.32L28.86 63.32Q30.66 61.01 31.20 58.42L31.20 58.42L31.20 58.42Q31.74 55.83 31.74 53.16L31.74 53.16Z" fill="#1A1A1C"></path></svg>