<svg width="86.60000000000001" height="86.60000000000001" viewBox="0 0 86.60000000000001 86.60000000000001" fill="none" xmlns="http://www.w3.org/2000/svg"><path d="M65.80 10.58L65.80 10.58L71.06 12.81L71.06 12.81Q67.96 16.62 63.82 20.22L63.82 20.22L63.82 20.22Q59.68 23.82 55.11 26.88L55.11 26.88L55.11 26.88Q50.54 29.94 46.00 32.18L46.00 32.18L46.00 32.18Q45.35 31.31 44.27 30.16L44.27 30.16L44.27 30.16Q43.19 29.01 42.11 28.22L42.11 28.22L42.11 28.22Q46.43 26.27 50.86 23.46L50.86 23.46L50.86 23.46Q55.29 20.66 59.25 17.34L59.25 17.34L59.25 17.34Q63.21 14.03 65.80 10.58ZM68.39 29.73L68.39 29.73L73.72 31.96L73.72 31.96Q70.48 36.28 66.12 40.13L66.12 40.13L66.12 40.13Q61.77 43.98 56.80 47.26L56.80 47.26L56.80 47.26Q51.83 50.54 46.65 52.91L46.65 52.91L46.65 52.91Q46.00 51.98 44.92 50.79L44.92 50.79L44.92 50.79Q43.84 49.60 42.76 48.81L42.76 48.81L42.76 48.81Q47.66 46.72 52.52 43.73L52.52 43.73L52.52 43.73Q57.38 40.74 61.52 37.14L61.52 37.14L61.52 37.14Q65.66 33.54 68.39 29.73ZM71.27 49.82L71.27 49.82L76.60 52.05L76.60 52.05Q73 57.45 67.74 62.06L67.74 62.06L67.74 62.06Q62.49 66.66 56.15 70.34L56.15 70.34L56.15 70.34Q49.82 74.01 42.76 76.53L42.76 76.53L42.76 76.53Q42.18 75.52 41.14 74.26L41.14 74.26L41.14 74.26Q40.10 73 39.16 72.21L39.16 72.21L39.16 72.21Q45.86 69.98 51.98 66.63L51.98 66.63L51.98 66.63Q58.10 63.28 63.10 59.00L63.10 59.00L63.10 59.00Q68.10 54.71 71.27 49.82ZM11.73 30.66L11.73 25.48L41.18 25.48L41.18 30.66L11.73 30.66ZM24.47 76.24L24.47 10.07L29.73 10.07L29.73 76.24L24.47 76.24ZM24.18 28.72L24.18 28.72L27.86 30.02L27.86 30.02Q26.78 34.41 25.19 39.05L25.19 39.05L25.19 39.05Q23.61 43.70 21.66 48.16L21.66 48.16L21.66 48.16Q19.72 52.62 17.52 56.44L17.52 56.44L17.52 56.44Q15.33 60.26 13.02 62.99L13.02 62.99L13.02 62.99Q12.52 61.84 11.62 60.40L11.62 60.40L11.62 60.40Q10.72 58.96 10 57.95L10 57.95L10 57.95Q12.23 55.50 14.36 52.16L14.36 52.16L14.36 52.16Q16.48 48.81 18.35 44.85L18.35 44.85L18.35 44.85Q20.22 40.89 21.74 36.78L21.74 36.78L21.74 36.78Q23.25 32.68 24.18 28.72ZM26.56 35.92L29.44 33.26L29.44 33.26Q30.23 33.98 31.89 35.70L31.89 35.70L31.89 35.70Q33.54 37.43 35.42 39.41L35.42 39.41L35.42 39.41Q37.29 41.39 38.87 43.08L38.87 43.08L38.87 43.08Q40.46 44.78 41.18 45.57L41.18 45.57L37.65 50.18L37.65 50.18Q36.86 48.81 35.42 46.90L35.42 46.90L35.42 46.90Q33.98 44.99 32.25 42.83L32.25 42.83L32.25 42.83Q30.52 40.67 29.01 38.87L29.01 38.87L29.01 38.87Q27.50 37.07 26.56 35.92L26.56 35.92Z" fill="#1A1A1C"></path></svg>