<svg width="85.44800000000001" height="85.44800000000001" viewBox="0 0 85.44800000000001 85.44800000000001" fill="none" xmlns="http://www.w3.org/2000/svg"><path d="M31.17 75.45L31.17 12.59L74.58 12.59L74.58 74.87L69.33 74.87L69.33 17.42L36.14 17.42L36.14 75.45L31.17 75.45ZM38.87 33.26L38.87 28.65L66.30 28.65L66.30 33.26L38.87 33.26ZM33.40 71.42L33.40 66.52L71.27 66.52L71.27 71.42L33.40 71.42ZM50.10 44.20L50.10 19.86L54.93 19.86L54.93 44.20L50.10 44.20ZM59.25 46.00L45.71 46.00L45.71 56.37L59.25 56.37L59.25 46.00ZM41.39 60.54L41.39 41.90L63.78 41.90L63.78 60.54L41.39 60.54ZM14.32 13.67L14.32 13.67L17.49 10.00L17.49 10.00Q19.65 11.15 22.10 12.63L22.10 12.63L22.10 12.63Q24.54 14.10 26.81 15.58L26.81 15.58L26.81 15.58Q29.08 17.06 30.52 18.28L30.52 18.28L27.21 22.53L27.21 22.53Q25.77 21.30 23.57 19.72L23.57 19.72L23.57 19.72Q21.38 18.14 18.93 16.55L18.93 16.55L18.93 16.55Q16.48 14.97 14.32 13.67ZM10.86 33.76L10.86 33.76L13.82 29.80L13.82 29.80Q15.83 30.66 18.14 31.89L18.14 31.89L18.14 31.89Q20.44 33.11 22.60 34.37L22.60 34.37L22.60 34.37Q24.76 35.63 26.13 36.57L26.13 36.57L23.10 41.03L23.10 41.03Q21.81 39.95 19.68 38.69L19.68 38.69L19.68 38.69Q17.56 37.43 15.26 36.10L15.26 36.10L15.26 36.10Q12.95 34.77 10.86 33.76ZM17.56 74.22L13.02 70.77L13.02 70.77Q14.75 68.18 16.80 64.54L16.80 64.54L16.80 64.54Q18.86 60.90 20.98 56.87L20.98 56.87L20.98 56.87Q23.10 52.84 24.90 49.02L24.90 49.02L28.94 52.34L28.94 52.34Q27.28 55.94 25.37 59.79L25.37 59.79L25.37 59.79Q23.46 63.64 21.45 67.35L21.45 67.35L21.45 67.35Q19.43 71.06 17.56 74.22L17.56 74.22Z" fill="#1A1A1C"></path></svg>