<svg width="85.66400000000002" height="85.66400000000002" viewBox="0 0 85.66400000000002 85.66400000000002" fill="none" xmlns="http://www.w3.org/2000/svg"><path d="M45.21 51.33L45.21 47.08L63.28 47.08L63.28 64.36L45.21 64.36L45.21 60.18L58.74 60.18L58.74 51.33L45.21 51.33ZM42.90 67.96L42.90 47.08L47.37 47.08L47.37 67.96L42.90 67.96ZM31.24 75.66L31.24 37.22L72.78 37.22L72.78 41.90L36.35 41.90L36.35 75.66L31.24 75.66ZM69.69 69.62L69.69 37.22L74.87 37.22L74.87 69.62L74.87 69.62Q74.87 71.78 74.30 73.00L74.30 73.00L74.30 73.00Q73.72 74.22 72.06 74.80L72.06 74.80L72.06 74.80Q70.48 75.38 67.74 75.52L67.74 75.52L67.74 75.52Q65.01 75.66 60.76 75.66L60.76 75.66L60.76 75.66Q60.62 74.58 60.15 73.25L60.15 73.25L60.15 73.25Q59.68 71.92 59.10 70.84L59.10 70.84L59.10 70.84Q61.19 70.91 63.06 70.95L63.06 70.95L63.06 70.95Q64.94 70.98 66.30 70.95L66.30 70.95L66.30 70.95Q67.67 70.91 68.18 70.91L68.18 70.91L68.18 70.91Q69.04 70.91 69.36 70.62L69.36 70.62L69.36 70.62Q69.69 70.34 69.69 69.62L69.69 69.62ZM37.86 39.66L37.86 12.02L68.97 12.02L68.97 39.66L63.86 39.66L63.86 16.70L42.76 16.70L42.76 39.66L37.86 39.66ZM49.67 39.45L49.67 23.39L66.38 23.39L66.38 27.57L54.21 27.57L54.21 39.45L49.67 39.45ZM14.39 13.96L14.39 13.96L17.42 10.00L17.42 10.00Q19.65 10.94 22.10 12.23L22.10 12.23L22.10 12.23Q24.54 13.53 26.70 14.93L26.70 14.93L26.70 14.93Q28.86 16.34 30.16 17.56L30.16 17.56L27.06 22.02L27.06 22.02Q25.70 20.73 23.57 19.25L23.57 19.25L23.57 19.25Q21.45 17.78 19.07 16.37L19.07 16.37L19.07 16.37Q16.70 14.97 14.39 13.96ZM10.79 33.47L10.79 33.47L13.74 29.37L13.74 29.37Q15.98 30.23 18.46 31.46L18.46 31.46L18.46 31.46Q20.94 32.68 23.14 33.98L23.14 33.98L23.14 33.98Q25.34 35.27 26.70 36.42L26.70 36.42L23.54 40.96L23.54 40.96Q22.24 39.74 20.08 38.37L20.08 38.37L20.08 38.37Q17.92 37.00 15.51 35.70L15.51 35.70L15.51 35.70Q13.10 34.41 10.79 33.47ZM17.56 74.73L12.81 71.42L12.81 71.42Q14.54 68.54 16.70 64.65L16.70 64.65L16.70 64.65Q18.86 60.76 21.05 56.44L21.05 56.44L21.05 56.44Q23.25 52.12 25.12 47.94L25.12 47.94L29.30 51.18L29.30 51.18Q27.64 55.00 25.62 59.18L25.62 59.18L25.62 59.18Q23.61 63.35 21.52 67.35L21.52 67.35L21.52 67.35Q19.43 71.34 17.56 74.73L17.56 74.73Z" fill="#1A1A1C"></path></svg>