<svg width="86.67200000000001" height="86.67200000000001" viewBox="0 0 86.67200000000001 86.67200000000001" fill="none" xmlns="http://www.w3.org/2000/svg"><path d="M40.96 33.76L46.14 32.54L46.14 32.54Q48.45 41.61 52.52 49.31L52.52 49.31L52.52 49.31Q56.58 57.02 62.56 62.67L62.56 62.67L62.56 62.67Q68.54 68.32 76.67 71.34L76.67 71.34L76.67 71.34Q76.02 71.92 75.23 72.78L75.23 72.78L75.23 72.78Q74.44 73.65 73.76 74.62L73.76 74.62L73.76 74.62Q73.07 75.59 72.64 76.38L72.64 76.38L72.64 76.38Q64.22 72.78 58.10 66.66L58.10 66.66L58.10 66.66Q51.98 60.54 47.80 52.23L47.80 52.23L47.80 52.23Q43.62 43.91 40.96 33.76L40.96 33.76ZM10.94 36.86L10.94 31.38L75.23 31.38L75.23 36.86L10.94 36.86ZM40.17 10.29L40.17 10.29L46.00 10.29L46.00 10.29Q46.00 15.69 45.75 21.74L45.75 21.74L45.75 21.74Q45.50 27.78 44.63 34.05L44.63 34.05L44.63 34.05Q43.77 40.31 41.82 46.36L41.82 46.36L41.82 46.36Q39.88 52.41 36.42 57.99L36.42 57.99L36.42 57.99Q32.97 63.57 27.53 68.25L27.53 68.25L27.53 68.25Q22.10 72.93 14.18 76.31L14.18 76.31L14.18 76.31Q13.53 75.16 12.34 73.83L12.34 73.83L12.34 73.83Q11.15 72.50 10 71.63L10 71.63L10 71.63Q17.70 68.54 22.92 64.22L22.92 64.22L22.92 64.22Q28.14 59.90 31.46 54.68L31.46 54.68L31.46 54.68Q34.77 49.46 36.57 43.80L36.57 43.80L36.57 43.80Q38.37 38.15 39.12 32.32L39.12 32.32L39.12 32.32Q39.88 26.49 40.02 20.87L40.02 20.87L40.02 20.87Q40.17 15.26 40.17 10.29ZM52.19 15.40L52.19 15.40L55.86 12.16L55.86 12.16Q58.46 13.74 61.23 15.83L61.23 15.83L61.23 15.83Q64 17.92 66.45 20.04L66.45 20.04L66.45 20.04Q68.90 22.17 70.41 23.97L70.41 23.97L66.38 27.57L66.38 27.57Q64.94 25.77 62.60 23.61L62.60 23.61L62.60 23.61Q60.26 21.45 57.52 19.29L57.52 19.29L57.52 19.29Q54.78 17.13 52.19 15.40Z" fill="#1A1A1C"></path></svg>