<svg width="87.968" height="87.968" viewBox="0 0 87.968 87.968" fill="none" xmlns="http://www.w3.org/2000/svg"><path d="M11.30 17.78L11.30 12.74L36.06 12.74L36.06 17.78L11.30 17.78ZM12.16 38.15L12.16 33.18L35.42 33.18L35.42 38.15L12.16 38.15ZM11.37 64.00L10 58.82L10 58.82Q13.31 57.95 17.63 56.80L17.63 56.80L17.63 56.80Q21.95 55.65 26.81 54.28L26.81 54.28L26.81 54.28Q31.67 52.91 36.50 51.54L36.50 51.54L37.22 56.37L37.22 56.37Q30.45 58.38 23.57 60.40L23.57 60.40L23.57 60.40Q16.70 62.42 11.37 64.00L11.37 64.00ZM68.03 28.36L44.49 28.36L44.49 35.63L68.03 35.63L68.03 28.36ZM68.03 39.95L44.49 39.95L44.49 47.30L68.03 47.30L68.03 39.95ZM68.03 16.77L44.49 16.77L44.49 23.97L68.03 23.97L68.03 16.77ZM39.45 51.90L39.45 12.23L73.29 12.23L73.29 51.90L39.45 51.90ZM58.31 68.03L58.31 49.67L63.50 49.67L63.50 68.03L63.50 68.03Q63.50 69.33 63.86 69.72L63.86 69.72L63.86 69.72Q64.22 70.12 65.51 70.12L65.51 70.12L65.51 70.12Q65.94 70.12 67.10 70.12L67.10 70.12L67.10 70.12Q68.25 70.12 69.47 70.12L69.47 70.12L69.47 70.12Q70.70 70.12 71.20 70.12L71.20 70.12L71.20 70.12Q71.99 70.12 72.42 69.54L72.42 69.54L72.42 69.54Q72.86 68.97 73.04 67.13L73.04 67.13L73.04 67.13Q73.22 65.30 73.29 61.62L73.29 61.62L73.29 61.62Q73.86 61.98 74.69 62.42L74.69 62.42L74.69 62.42Q75.52 62.85 76.38 63.14L76.38 63.14L76.38 63.14Q77.25 63.42 77.97 63.64L77.97 63.64L77.97 63.64Q77.75 68.03 77.10 70.48L77.10 70.48L77.10 70.48Q76.46 72.93 75.20 73.86L75.20 73.86L75.20 73.86Q73.94 74.80 71.78 74.80L71.78 74.80L71.78 74.80Q71.42 74.80 70.41 74.80L70.41 74.80L70.41 74.80Q69.40 74.80 68.25 74.80L68.25 74.80L68.25 74.80Q67.10 74.80 66.12 74.80L66.12 74.80L66.12 74.80Q65.15 74.80 64.72 74.80L64.72 74.80L64.72 74.80Q62.13 74.80 60.72 74.22L60.72 74.22L60.72 74.22Q59.32 73.65 58.82 72.14L58.82 72.14L58.82 72.14Q58.31 70.62 58.31 68.03L58.31 68.03ZM46.00 50.75L46.00 50.75L51.33 50.75L51.33 50.75Q50.82 55.36 49.74 59.21L49.74 59.21L49.74 59.21Q48.66 63.06 46.50 66.16L46.50 66.16L46.50 66.16Q44.34 69.26 40.78 71.67L40.78 71.67L40.78 71.67Q37.22 74.08 31.74 75.74L31.74 75.74L31.74 75.74Q31.46 75.09 30.95 74.26L30.95 74.26L30.95 74.26Q30.45 73.43 29.84 72.60L29.84 72.60L29.84 72.60Q29.22 71.78 28.65 71.34L28.65 71.34L28.65 71.34Q33.62 69.98 36.82 68.00L36.82 68.00L36.82 68.00Q40.02 66.02 41.90 63.42L41.90 63.42L41.90 63.42Q43.77 60.83 44.67 57.66L44.67 57.66L44.67 57.66Q45.57 54.50 46.00 50.75ZM21.30 58.10L21.30 14.75L26.56 14.75L26.56 57.16L21.30 58.10Z" fill="#1A1A1C"></path></svg>