<svg width="84.584" height="84.584" viewBox="0 0 84.584 84.584" fill="none" xmlns="http://www.w3.org/2000/svg"><path d="M13.53 18.28L13.53 12.95L71.06 12.95L71.06 18.28L13.53 18.28ZM10 71.63L10 66.38L74.58 66.38L74.58 71.63L10 71.63ZM38.94 69.69L38.94 14.97L44.70 14.97L44.70 69.69L38.94 69.69ZM51.26 49.74L51.26 49.74L55.14 46.72L55.14 46.72Q57.38 48.74 59.93 51.11L59.93 51.11L59.93 51.11Q62.49 53.49 64.79 55.76L64.79 55.76L64.79 55.76Q67.10 58.02 68.61 59.75L68.61 59.75L64.50 63.35L64.50 63.35Q63.06 61.55 60.80 59.18L60.80 59.18L60.80 59.18Q58.53 56.80 56.01 54.32L56.01 54.32L56.01 54.32Q53.49 51.83 51.26 49.74ZM16.62 43.26L16.62 38.01L68.32 38.01L68.32 43.26L16.62 43.26Z" fill="#1A1A1C"></path></svg>