<svg width="84.584" height="84.584" viewBox="0 0 84.584 84.584" fill="none" xmlns="http://www.w3.org/2000/svg"><path d="M12.45 30.27L12.45 24.94L72.57 24.94L72.57 30.27L12.45 30.27ZM10 73.83L10 68.50L74.58 68.50L74.58 73.83L10 73.83ZM39.30 27.89L39.30 10.76L44.92 10.76L44.92 27.89L39.30 27.89ZM56.44 33.58L56.44 33.58L62.63 34.73L62.63 34.73Q61.48 39.12 60.11 43.98L60.11 43.98L60.11 43.98Q58.74 48.84 57.30 53.63L57.30 53.63L57.30 53.63Q55.86 58.42 54.39 62.74L54.39 62.74L54.39 62.74Q52.91 67.06 51.54 70.52L51.54 70.52L46.36 69.22L46.36 69.22Q47.73 65.76 49.17 61.34L49.17 61.34L49.17 61.34Q50.61 56.91 51.94 52.05L51.94 52.05L51.94 52.05Q53.27 47.19 54.46 42.44L54.46 42.44L54.46 42.44Q55.65 37.68 56.44 33.58ZM22.10 35.31L22.10 35.31L27.21 34.01L27.21 34.01Q29.15 38.76 30.63 44.09L30.63 44.09L30.63 44.09Q32.10 49.42 33.08 54.46L33.08 54.46L33.08 54.46Q34.05 59.50 34.34 63.53L34.34 63.53L28.79 64.90L28.79 64.90Q28.65 60.94 27.71 55.83L27.71 55.83L27.71 55.83Q26.78 50.72 25.34 45.35L25.34 45.35L25.34 45.35Q23.90 39.99 22.10 35.31Z" fill="#1A1A1C"></path></svg>