<svg width="86.888" height="86.888" viewBox="0 0 86.888 86.888" fill="none" xmlns="http://www.w3.org/2000/svg"><path d="M19.90 48.88L19.90 43.70L66.63 43.70L66.63 48.88L19.90 48.88ZM40.20 68.97L40.20 10L45.82 10L45.82 68.97L40.20 68.97ZM11.76 73L10.90 67.31L10.90 67.31Q16.16 67.17 22.92 67.02L22.92 67.02L22.92 67.02Q29.69 66.88 37.32 66.66L37.32 66.66L37.32 66.66Q44.96 66.45 52.98 66.16L52.98 66.16L52.98 66.16Q61.01 65.87 68.86 65.58L68.86 65.58L68.57 70.62L68.57 70.62Q58.49 71.13 48.16 71.60L48.16 71.60L48.16 71.60Q37.83 72.06 28.47 72.42L28.47 72.42L28.47 72.42Q19.11 72.78 11.76 73L11.76 73ZM56.48 56.22L56.48 56.22L61.52 54.14L61.52 54.14Q64.25 57.16 67.10 60.80L67.10 60.80L67.10 60.80Q69.94 64.43 72.32 68.00L72.32 68.00L72.32 68.00Q74.69 71.56 75.99 74.44L75.99 74.44L70.66 76.89L70.66 76.89Q69.36 74.08 67.10 70.48L67.10 70.48L67.10 70.48Q64.83 66.88 62.06 63.14L62.06 63.14L62.06 63.14Q59.28 59.39 56.48 56.22ZM16.66 52.34L16.66 21.52L70.08 21.52L70.08 51.62L64.47 51.62L64.47 26.70L22.06 26.70L22.06 52.34L16.66 52.34Z" fill="#1A1A1C"></path></svg>