<svg width="86.24" height="86.24" viewBox="0 0 86.24 86.24" fill="none" xmlns="http://www.w3.org/2000/svg"><path d="M42.83 52.59L42.83 47.48L70.34 47.48L70.34 52.59L42.83 52.59ZM22.24 52.37L26.70 50.57L26.70 50.57Q28.65 56.12 31.74 59.61L31.74 59.61L31.74 59.61Q34.84 63.10 38.91 65.01L38.91 65.01L38.91 65.01Q42.98 66.92 47.94 67.60L47.94 67.60L47.94 67.60Q52.91 68.28 58.53 68.28L58.53 68.28L58.53 68.28Q59.25 68.28 60.94 68.28L60.94 68.28L60.94 68.28Q62.63 68.28 64.83 68.28L64.83 68.28L64.83 68.28Q67.02 68.28 69.29 68.28L69.29 68.28L69.29 68.28Q71.56 68.28 73.43 68.28L73.43 68.28L73.43 68.28Q75.30 68.28 76.24 68.21L76.24 68.21L76.24 68.21Q75.81 68.86 75.41 69.83L75.41 69.83L75.41 69.83Q75.02 70.80 74.69 71.78L74.69 71.78L74.69 71.78Q74.37 72.75 74.22 73.54L74.22 73.54L70.77 73.54L58.31 73.54L58.31 73.54Q51.76 73.54 46.22 72.64L46.22 72.64L46.22 72.64Q40.67 71.74 36.17 69.47L36.17 69.47L36.17 69.47Q31.67 67.20 28.18 63.06L28.18 63.06L28.18 63.06Q24.69 58.92 22.24 52.37L22.24 52.37ZM40.46 68.79L40.46 34.73L46.00 34.73L46.00 70.59L40.46 68.79ZM62.70 16.95L24.33 16.95L24.33 31.13L62.70 31.13L62.70 16.95ZM19 36.24L19 11.76L68.32 11.76L68.32 36.24L19 36.24ZM23.10 41.64L23.10 41.64L28.79 42.36L28.79 42.36Q28.00 48.20 26.24 54.28L26.24 54.28L26.24 54.28Q24.47 60.36 21.48 65.62L21.48 65.62L21.48 65.62Q18.50 70.88 13.82 74.48L13.82 74.48L13.82 74.48Q13.38 73.97 12.70 73.25L12.70 73.25L12.70 73.25Q12.02 72.53 11.30 71.88L11.30 71.88L11.30 71.88Q10.58 71.24 10 70.80L10 70.80L10 70.80Q14.32 67.56 16.98 62.70L16.98 62.70L16.98 62.70Q19.65 57.84 21.12 52.34L21.12 52.34L21.12 52.34Q22.60 46.83 23.10 41.64Z" fill="#1A1A1C"></path></svg>