<svg width="86.31200000000001" height="86.31200000000001" viewBox="0 0 86.31200000000001 86.31200000000001" fill="none" xmlns="http://www.w3.org/2000/svg"><path d="M15.18 21.45L15.18 16.55L71.70 16.55L71.70 21.45L15.18 21.45ZM11.08 38.37L11.08 33.47L75.23 33.47L75.23 38.37L11.08 38.37ZM24.33 61.12L24.33 56.80L62.42 56.80L62.42 61.12L24.33 61.12ZM24.40 73.58L24.40 68.97L62.49 68.97L62.49 73.58L24.40 73.58ZM40.17 19.29L40.17 10.00L45.78 10.00L45.78 19.29L40.17 19.29ZM21.66 76.31L21.66 44.63L65.58 44.63L65.58 76.10L59.97 76.10L59.97 49.24L26.99 49.24L26.99 76.31L21.66 76.31ZM56.44 21.23L56.44 21.23L62.27 22.67L62.27 22.67Q60.83 25.55 59.28 28.61L59.28 28.61L59.28 28.61Q57.74 31.67 56.37 33.83L56.37 33.83L51.40 32.46L51.40 32.46Q52.26 30.95 53.20 28.97L53.20 28.97L53.20 28.97Q54.14 26.99 55 24.94L55 24.94L55 24.94Q55.86 22.89 56.44 21.23ZM25.12 22.67L25.12 22.67L30.23 21.52L30.23 21.52Q31.96 24.04 33.26 27.10L33.26 27.10L33.26 27.10Q34.55 30.16 34.98 32.39L34.98 32.39L29.44 33.83L29.44 33.83Q29.01 31.46 27.82 28.32L27.82 28.32L27.82 28.32Q26.63 25.19 25.12 22.67Z" fill="#1A1A1C"></path></svg>