<svg width="86.31200000000001" height="86.31200000000001" viewBox="0 0 86.31200000000001 86.31200000000001" fill="none" xmlns="http://www.w3.org/2000/svg"><path d="M11.87 21.66L11.87 16.91L74.44 16.91L74.44 21.66L11.87 21.66ZM40.02 19.22L40.02 10.00L45.57 10.00L45.57 19.22L40.02 19.22ZM15.11 76.31L15.11 45.06L68.61 45.06L68.61 49.67L20.37 49.67L20.37 76.31L15.11 76.31ZM66.38 69.76L66.38 45.06L71.78 45.06L71.78 69.83L71.78 69.83Q71.78 72.06 71.16 73.36L71.16 73.36L71.16 73.36Q70.55 74.66 68.82 75.30L68.82 75.30L68.82 75.30Q67.10 75.95 64.11 76.06L64.11 76.06L64.11 76.06Q61.12 76.17 56.58 76.17L56.58 76.17L56.58 76.17Q56.44 75.02 55.94 73.58L55.94 73.58L55.94 73.58Q55.43 72.14 54.86 71.06L54.86 71.06L54.86 71.06Q58.38 71.13 61.16 71.16L61.16 71.16L61.16 71.16Q63.93 71.20 64.79 71.13L64.79 71.13L64.79 71.13Q65.73 71.06 66.05 70.77L66.05 70.77L66.05 70.77Q66.38 70.48 66.38 69.76L66.38 69.76ZM29.51 73.29L29.51 54.35L34.26 54.35L34.26 73.29L29.51 73.29ZM32.03 58.31L32.03 54.35L56.94 54.35L56.94 69.62L32.03 69.62L32.03 65.66L52.12 65.66L52.12 58.31L32.03 58.31ZM57.23 29.66L29.01 29.66L29.01 36.57L57.23 36.57L57.23 29.66ZM23.82 40.60L23.82 25.70L62.63 25.70L62.63 40.60L23.82 40.60Z" fill="#1A1A1C"></path></svg>