<svg width="74" height="74" viewBox="0 0 74 74" fill="none" xmlns="http://www.w3.org/2000/svg"><path d="M64 58.64L63.64 63.53L63.64 63.53Q55.50 63.53 50.03 60.33L50.03 60.33L50.03 60.33Q44.56 57.12 41.82 51.22L41.82 51.22L41.82 51.22Q39.09 45.32 39.09 37.18L39.09 37.18L39.09 37.18Q39.09 29.19 42.11 23.18L42.11 23.18L42.11 23.18Q45.14 17.16 50.68 13.82L50.68 13.82L50.68 13.82Q56.22 10.47 63.64 10.47L63.64 10.47L64 15.36L64 15.36Q58.17 15.36 53.85 18.10L53.85 18.10L53.85 18.10Q49.53 20.84 47.12 25.77L47.12 25.77L47.12 25.77Q44.70 30.70 44.70 37.18L44.70 37.18L44.70 37.18Q44.70 47.12 49.60 52.88L49.60 52.88L49.60 52.88Q54.50 58.64 64 58.64L64 58.64ZM10.36 63.53L10.36 63.53L10 58.64L10 58.64Q19.50 58.64 24.40 52.88L24.40 52.88L24.40 52.88Q29.30 47.12 29.30 37.18L29.30 37.18L29.30 37.18Q29.30 30.70 26.88 25.77L26.88 25.77L26.88 25.77Q24.47 20.84 20.15 18.10L20.15 18.10L20.15 18.10Q15.83 15.36 10 15.36L10 15.36L10.36 10.47L10.36 10.47Q17.85 10.47 23.36 13.82L23.36 13.82L23.36 13.82Q28.86 17.16 31.89 23.18L31.89 23.18L31.89 23.18Q34.91 29.19 34.91 37.18L34.91 37.18L34.91 37.18Q34.91 45.32 32.18 51.22L32.18 51.22L32.18 51.22Q29.44 57.12 23.97 60.33L23.97 60.33L23.97 60.33Q18.50 63.53 10.36 63.53ZM18.21 40.92L18.21 40.92L18.21 40.92Q16.62 40.92 15.62 39.99L15.62 39.99L15.62 39.99Q14.61 39.05 14.61 37.32L14.61 37.32L14.61 37.32Q14.61 35.67 15.62 34.70L15.62 34.70L15.62 34.70Q16.62 33.72 18.21 33.72L18.21 33.72L18.21 33.72Q19.79 33.72 20.80 34.70L20.80 34.70L20.80 34.70Q21.81 35.67 21.81 37.32L21.81 37.32L21.81 37.32Q21.81 40.92 18.21 40.92ZM55.79 40.92L55.79 40.92L55.79 40.92Q52.19 40.92 52.19 37.32L52.19 37.32L52.19 37.32Q52.19 35.67 53.20 34.70L53.20 34.70L53.20 34.70Q54.21 33.72 55.79 33.72L55.79 33.72L55.79 33.72Q57.38 33.72 58.38 34.70L58.38 34.70L58.38 34.70Q59.39 35.67 59.39 37.32L59.39 37.32L59.39 37.32Q59.39 39.05 58.42 39.99L58.42 39.99L58.42 39.99Q57.45 40.92 55.79 40.92Z" fill="#1A1A1C"></path></svg>