<svg width="72.416" height="72.416" viewBox="0 0 72.416 72.416" fill="none" xmlns="http://www.w3.org/2000/svg"><path d="M62.13 62.42L56.51 62.42L56.51 56.37L14.82 56.37L14.82 56.37Q17.13 50.82 18.60 44.06L18.60 44.06L18.60 44.06Q20.08 37.29 20.22 30.81L20.22 30.81L20.22 30.81Q14.82 28.94 12.56 25.55L12.56 25.55L12.56 25.55Q10.29 22.17 10.29 17.99L10.29 17.99L10.29 17.99Q10.29 14.75 11.30 13.02L11.30 13.02L11.30 13.02Q12.30 11.30 13.92 10.65L13.92 10.65L13.92 10.65Q15.54 10 17.34 10L17.34 10L17.34 10Q22.24 10 24.00 14.39L24.00 14.39L24.00 14.39Q25.77 18.78 25.91 27.14L25.91 27.14L25.91 27.14Q27.28 27.35 28.90 27.42L28.90 27.42L28.90 27.42Q30.52 27.50 32.32 27.50L32.32 27.50L32.32 27.50Q36.42 27.50 39.45 27.06L39.45 27.06L39.45 27.06Q39.59 18.86 41.39 14.43L41.39 14.43L41.39 14.43Q43.19 10 48.02 10L48.02 10L48.02 10Q49.89 10 51.47 10.65L51.47 10.65L51.47 10.65Q53.06 11.30 54.06 13.02L54.06 13.02L54.06 13.02Q55.07 14.75 55.07 17.99L55.07 17.99L55.07 17.99Q55.07 22.10 52.70 25.41L52.70 25.41L52.70 25.41Q50.32 28.72 45.06 30.59L45.06 30.59L45.06 30.59Q45.21 35.85 46.22 41.21L46.22 41.21L46.22 41.21Q47.22 46.58 48.81 51.47L48.81 51.47L56.51 51.47L56.51 44.99L62.13 44.99L62.13 62.42ZM20.44 25.98L20.44 25.98L20.44 25.98Q20.37 20.44 19.65 17.67L19.65 17.67L19.65 17.67Q18.93 14.90 17.34 14.90L17.34 14.90L17.34 14.90Q16.41 14.90 15.80 15.58L15.80 15.58L15.80 15.58Q15.18 16.26 15.18 18.14L15.18 18.14L15.18 18.14Q15.18 20.30 16.30 22.46L16.30 22.46L16.30 22.46Q17.42 24.62 20.44 25.98ZM44.85 25.98L44.85 25.98L44.85 25.98Q47.80 24.69 48.99 22.53L48.99 22.53L48.99 22.53Q50.18 20.37 50.18 18.14L50.18 18.14L50.18 18.14Q50.18 16.26 49.60 15.58L49.60 15.58L49.60 15.58Q49.02 14.90 48.02 14.90L48.02 14.90L48.02 14.90Q45.06 14.90 44.85 25.98ZM22.46 51.47L22.46 51.47L42.76 51.47L42.76 51.47Q41.39 46.79 40.56 41.72L40.56 41.72L40.56 41.72Q39.74 36.64 39.52 31.89L39.52 31.89L39.52 31.89Q37.94 32.18 36.14 32.28L36.14 32.28L36.14 32.28Q34.34 32.39 32.32 32.39L32.32 32.39L32.32 32.39Q30.52 32.39 28.90 32.28L28.90 32.28L28.90 32.28Q27.28 32.18 25.84 32.03L25.84 32.03L25.84 32.03Q25.62 36.71 24.76 41.75L24.76 41.75L24.76 41.75Q23.90 46.79 22.46 51.47Z" fill="#1A1A1C"></path></svg>