<svg width="101.57600000000001" height="101.57600000000001" viewBox="0 0 101.57600000000001 101.57600000000001" fill="none" xmlns="http://www.w3.org/2000/svg"><path d="M52.16 17.20L57.20 25.19L55.04 25.19L51.00 18.57L46.90 25.19L44.88 25.19L49.92 17.27L45.24 10L47.33 10L51.08 15.98L54.82 10L56.84 10L52.16 17.20ZM28.68 24.26L33.72 32.25L31.56 32.25L27.53 25.62L23.43 32.25L21.41 32.25L26.45 24.33L21.77 17.06L23.86 17.06L27.60 23.03L31.35 17.06L33.36 17.06L28.68 24.26ZM74.84 24.26L79.88 32.25L77.72 32.25L73.68 25.62L69.58 32.25L67.56 32.25L72.60 24.33L67.92 17.06L70.01 17.06L73.76 23.03L77.50 17.06L79.52 17.06L74.84 24.26ZM18.53 49.60L23.57 57.59L21.41 57.59L17.38 50.97L13.28 57.59L11.26 57.59L16.30 49.67L11.62 42.40L13.71 42.40L17.45 48.38L21.20 42.40L23.21 42.40L18.53 49.60ZM85.28 49.60L90.32 57.59L88.16 57.59L84.12 50.97L80.02 57.59L78.00 57.59L83.04 49.67L78.36 42.40L80.45 42.40L84.20 48.38L87.94 42.40L89.96 42.40L85.28 49.60ZM28.68 75.66L33.72 83.66L31.56 83.66L27.53 77.03L23.43 83.66L21.41 83.66L26.45 75.74L21.77 68.46L23.86 68.46L27.60 74.44L31.35 68.46L33.36 68.46L28.68 75.66ZM74.84 75.66L79.88 83.66L77.72 83.66L73.68 77.03L69.58 83.66L67.56 83.66L72.60 75.74L67.92 68.46L70.01 68.46L73.76 74.44L77.50 68.46L79.52 68.46L74.84 75.66ZM52.16 83.58L57.20 91.58L55.04 91.58L51.00 84.95L46.90 91.58L44.88 91.58L49.92 83.66L45.24 76.38L47.33 76.38L51.08 82.36L54.82 76.38L56.84 76.38L52.16 83.58Z" fill="#1A1A1C"></path></svg>