<svg width="73.71200000000002" height="73.71200000000002" viewBox="0 0 73.71200000000002 73.71200000000002" fill="none" xmlns="http://www.w3.org/2000/svg"><path d="M26.85 25.84L22.67 29.37L22.67 29.37Q19.00 25.91 19.00 21.16L19.00 21.16L19.00 21.16Q19.00 16.05 22.31 13.02L22.31 13.02L22.31 13.02Q25.62 10 30.88 10L30.88 10L30.88 10Q34.84 10 37.54 11.66L37.54 11.66L37.54 11.66Q40.24 13.31 41.64 16.05L41.64 16.05L41.64 16.05Q43.05 18.78 43.05 22.10L43.05 22.10L43.05 22.10Q43.05 28.36 38.37 33.18L38.37 33.18L38.37 33.18Q40.67 34.84 41.86 37.54L41.86 37.54L41.86 37.54Q43.05 40.24 43.05 43.55L43.05 43.55L43.05 43.55Q43.05 48.23 40.64 52.91L40.64 52.91L40.64 52.91Q38.22 57.59 32.75 63.71L32.75 63.71L25.84 63.71L25.84 63.71Q29.44 59.61 31.74 56.69L31.74 56.69L31.74 56.69Q34.05 53.78 35.27 51.58L35.27 51.58L35.27 51.58Q36.50 49.38 36.96 47.62L36.96 47.62L36.96 47.62Q37.43 45.86 37.43 44.13L37.43 44.13L37.43 44.13Q37.43 40.46 35.74 38.58L35.74 38.58L35.74 38.58Q34.05 36.71 30.88 36.71L30.88 36.71L30.88 36.71Q28.00 36.71 26.31 38.19L26.31 38.19L26.31 38.19Q24.62 39.66 24.62 42.33L24.62 42.33L24.62 42.33Q24.62 44.27 25.66 45.60L25.66 45.60L25.66 45.60Q26.70 46.94 29.08 48.09L29.08 48.09L26.20 52.98L26.20 52.98Q19.00 49.82 19.00 42.33L19.00 42.33L19.00 42.33Q19.00 37.00 22.31 33.98L22.31 33.98L22.31 33.98Q25.62 30.95 30.88 30.95L30.88 30.95L30.88 30.95Q31.46 30.95 32.07 30.99L32.07 30.99L32.07 30.99Q32.68 31.02 33.18 31.10L33.18 31.10L33.18 31.10Q35.27 29.44 36.35 27.35L36.35 27.35L36.35 27.35Q37.43 25.26 37.43 22.67L37.43 22.67L37.43 22.67Q37.43 19.43 35.74 17.60L35.74 17.60L35.74 17.60Q34.05 15.76 30.88 15.76L30.88 15.76L30.88 15.76Q28.00 15.76 26.31 17.24L26.31 17.24L26.31 17.24Q24.62 18.71 24.62 21.30L24.62 21.30L24.62 21.30Q24.62 22.67 25.19 23.75L25.19 23.75L25.19 23.75Q25.77 24.83 26.85 25.84L26.85 25.84ZM47.01 61.34L40.96 61.34L40.96 61.34Q44.78 57.52 46.94 53.34L46.94 53.34L46.94 53.34Q49.10 49.17 49.10 44.06L49.10 44.06L49.10 44.06Q49.10 40.53 47.80 37.90L47.80 37.90L47.80 37.90Q46.50 35.27 43.84 33.18L43.84 33.18L43.84 33.18Q46.50 31.02 47.80 28.47L47.80 28.47L47.80 28.47Q49.10 25.91 49.10 22.60L49.10 22.60L49.10 22.60Q49.10 16.19 43.84 12.23L43.84 12.23L49.89 12.23L49.89 12.23Q52.05 14.03 53.38 16.62L53.38 16.62L53.38 16.62Q54.71 19.22 54.71 22.60L54.71 22.60L54.71 22.60Q54.71 25.98 53.38 28.54L53.38 28.54L53.38 28.54Q52.05 31.10 49.89 33.18L49.89 33.18L49.89 33.18Q52.05 34.98 53.38 37.72L53.38 37.72L53.38 37.72Q54.71 40.46 54.71 44.06L54.71 44.06L54.71 44.06Q54.71 49.38 52.59 53.56L52.59 53.56L52.59 53.56Q50.46 57.74 47.01 61.34L47.01 61.34Z" fill="#1A1A1C"></path></svg>