<svg width="122.38400000000001" height="122.38400000000001" viewBox="0 0 122.38400000000001 122.38400000000001" fill="none" xmlns="http://www.w3.org/2000/svg"><path d="M105.18 74.44L105.18 74.44L105.18 74.44Q102.16 74.44 100.65 72.75L100.65 72.75L100.65 72.75Q99.14 71.06 99.14 67.60L99.14 67.60L99.14 67.60Q99.14 65.73 100.61 64.07L100.61 64.07L100.61 64.07Q102.09 62.42 104.75 61.41L104.75 61.41L104.75 61.41Q102.52 57.59 95.25 55.61L95.25 55.61L95.25 55.61Q87.98 53.63 75.59 53.63L75.59 53.63L75.59 53.63Q63.57 53.63 51.51 55.22L51.51 55.22L51.51 55.22Q39.45 56.80 27.42 59.97L27.42 59.97L27.42 59.97Q27.21 58.02 26.34 56.30L26.34 56.30L26.34 56.30Q39.95 52.48 52.41 50.39L52.41 50.39L52.41 50.39Q64.86 48.30 76.17 48.30L76.17 48.30L76.17 48.30Q85.82 48.30 92.73 49.53L92.73 49.53L92.73 49.53Q99.64 50.75 103.89 53.20L103.89 53.20L103.89 53.20Q108.14 55.65 110.26 58.82L110.26 58.82L110.26 58.82Q112.38 61.98 112.38 65.80L112.38 65.80L112.38 65.80Q112.38 69.54 110.58 71.99L110.58 71.99L110.58 71.99Q108.78 74.44 105.18 74.44ZM33.47 105.33L33.47 105.33L33.47 105.33Q30.59 105.33 29.33 103.89L29.33 103.89L29.33 103.89Q28.07 102.45 28.07 100.36L28.07 100.36L28.07 100.36Q28.07 98.42 29.40 97.34L29.40 97.34L29.40 97.34Q30.74 96.26 32.64 96.29L32.64 96.29L32.64 96.29Q34.55 96.33 36.28 97.62L36.28 97.62L36.28 97.62Q37.14 93.45 36.14 90.17L36.14 90.17L36.14 90.17Q35.13 86.90 32.64 84.16L32.64 84.16L32.64 84.16Q30.16 81.42 26.63 78.94L26.63 78.94L26.63 78.94Q23.10 76.46 19 73.94L19 73.94L19 73.94Q20.08 73.58 21.05 73.07L21.05 73.07L21.05 73.07Q22.02 72.57 22.89 71.85L22.89 71.85L22.89 71.85Q26.92 74.01 30.38 76.42L30.38 76.42L30.38 76.42Q33.83 78.83 36.46 81.53L36.46 81.53L36.46 81.53Q39.09 84.23 40.53 87.36L40.53 87.36L40.53 87.36Q41.97 90.50 41.97 94.24L41.97 94.24L41.97 94.24Q41.97 99.14 39.74 102.23L39.74 102.23L39.74 102.23Q37.50 105.33 33.47 105.33ZM15.26 67.31L15.26 67.31L15.26 67.31Q13.10 67.31 11.55 65.76L11.55 65.76L11.55 65.76Q10 64.22 10 61.98L10 61.98L10 61.98Q10 59.75 11.51 58.24L11.51 58.24L11.51 58.24Q13.02 56.73 15.26 56.73L15.26 56.73L15.26 56.73Q17.49 56.73 19 58.20L19 58.20L19 58.20Q20.51 59.68 20.51 61.98L20.51 61.98L20.51 61.98Q20.51 64.36 18.93 65.84L18.93 65.84L18.93 65.84Q17.34 67.31 15.26 67.31ZM67.38 100L67.38 100L67.38 100Q64.72 100 63.14 98.49L63.14 98.49L63.14 98.49Q61.55 96.98 61.55 94.46L61.55 94.46L61.55 94.46Q61.55 91.72 63.50 90.28L63.50 90.28L63.50 90.28Q65.44 88.84 69.26 88.70L69.26 88.70L69.26 88.70Q67.53 73.29 25.98 68.25L25.98 68.25L25.98 68.25Q26.56 67.31 26.92 66.34L26.92 66.34L26.92 66.34Q27.28 65.37 27.50 64.22L27.50 64.22L27.50 64.22Q34.34 65.01 41.21 66.20L41.21 66.20L41.21 66.20Q48.09 67.38 54.24 69.29L54.24 69.29L54.24 69.29Q60.40 71.20 65.22 74.04L65.22 74.04L65.22 74.04Q70.05 76.89 72.82 80.92L72.82 80.92L72.82 80.92Q75.59 84.95 75.59 90.35L75.59 90.35L75.59 90.35Q75.59 94.53 73.32 97.26L73.32 97.26L73.32 97.26Q71.06 100 67.38 100ZM11.94 49.74L11.94 49.74L11.94 49.74Q11.87 48.66 11.84 47.51L11.84 47.51L11.84 47.51Q11.80 46.36 11.80 45.21L11.80 45.21L11.80 45.21Q11.80 38.58 12.84 33.40L12.84 33.40L12.84 33.40Q13.89 28.22 15.98 24.54L15.98 24.54L15.98 24.54Q18.06 20.80 21.16 18.93L21.16 18.93L21.16 18.93Q24.26 17.06 28.22 17.06L28.22 17.06L28.22 17.06Q32.54 17.06 34.88 19.25L34.88 19.25L34.88 19.25Q37.22 21.45 37.22 24.54L37.22 24.54L37.22 24.54Q37.22 26.99 35.60 28.36L35.60 28.36L35.60 28.36Q33.98 29.73 31.89 29.73L31.89 29.73L31.89 29.73Q29.66 29.73 28.22 28.36L28.22 28.36L28.22 28.36Q26.78 26.99 26.78 24.54L26.78 24.54L26.78 24.54Q26.78 23.90 26.88 23.21L26.88 23.21L26.88 23.21Q26.99 22.53 27.21 21.81L27.21 21.81L27.21 21.81Q24.62 21.88 22.74 23.36L22.74 23.36L22.74 23.36Q20.87 24.83 19.61 27.28L19.61 27.28L19.61 27.28Q18.35 29.73 17.56 32.86L17.56 32.86L17.56 32.86Q16.77 35.99 16.44 39.45L16.44 39.45L16.44 39.45Q16.12 42.90 16.12 46.36L16.12 46.36L16.12 46.36Q16.12 47.15 16.12 48.02L16.12 48.02L16.12 48.02Q16.12 48.88 16.19 49.67L16.19 49.67L16.19 49.67Q15.76 49.60 15.33 49.56L15.33 49.56L15.33 49.56Q14.90 49.53 14.39 49.53L14.39 49.53L14.39 49.53Q13.24 49.53 11.94 49.74ZM23.46 52.62L23.46 52.62L23.46 52.62Q22.74 51.98 21.99 51.44L21.99 51.44L21.99 51.44Q21.23 50.90 20.44 50.61L20.44 50.61L20.44 50.61Q26.49 43.62 32.97 38.08L32.97 38.08L32.97 38.08Q39.45 32.54 46.43 29.33L46.43 29.33L46.43 29.33Q53.42 26.13 60.98 26.13L60.98 26.13L60.98 26.13Q65.22 26.13 68.54 27.64L68.54 27.64L68.54 27.64Q71.85 29.15 73.79 31.85L73.79 31.85L73.79 31.85Q75.74 34.55 75.74 38.22L75.74 38.22L75.74 38.22Q75.74 41.25 73.94 42.98L73.94 42.98L73.94 42.98Q72.14 44.70 69.62 44.70L69.62 44.70L69.62 44.70Q67.38 44.70 65.66 43.34L65.66 43.34L65.66 43.34Q63.93 41.97 63.93 39.45L63.93 39.45L63.93 39.45Q63.93 37.29 64.86 36.03L64.86 36.03L64.86 36.03Q65.80 34.77 67.89 34.26L67.89 34.26L67.89 34.26Q66.23 31.17 60.98 31.17L60.98 31.17L60.98 31.17Q54.42 31.17 47.94 34.16L47.94 34.16L47.94 34.16Q41.46 37.14 35.31 42.04L35.31 42.04L35.31 42.04Q29.15 46.94 23.46 52.62Z" fill="#1A1A1C"></path></svg>