<svg width="84.44" height="84.44" viewBox="0 0 84.44 84.44" fill="none" xmlns="http://www.w3.org/2000/svg"><path d="M18.82 28.94C18.82 22.89 23.43 18.71 29.91 18.71C36.32 18.71 41.00 22.89 41.00 28.94C41.00 34.98 36.32 39.23 29.91 39.23C23.43 39.23 18.82 34.98 18.82 28.94ZM46.76 28.94C46.76 20.01 39.63 13.82 29.91 13.82C20.12 13.82 13.06 20.01 13.06 28.94C13.06 37.94 20.12 44.20 29.91 44.20C39.63 44.20 46.76 37.94 46.76 28.94ZM41.43 69.76C31.85 69.76 26.02 66.95 26.02 62.34C26.02 57.66 31.85 54.93 41.43 54.93C50.93 54.93 56.76 57.66 56.76 62.34C56.76 66.95 50.93 69.76 41.43 69.76ZM41.43 50.25C28.32 50.25 20.12 54.64 20.12 62.34C20.12 69.98 28.32 74.44 41.43 74.44C54.46 74.44 62.67 69.98 62.67 62.34C62.67 54.64 54.46 50.25 41.43 50.25ZM71.38 24.40L71.38 19.58L62.02 19.58L62.02 10.00L56.12 10.00L56.12 48.23L62.02 48.23L62.02 38.22L71.38 38.22L71.38 33.33L62.02 33.33L62.02 24.40Z" fill="#1A1A1C"></path></svg>