<svg width="84.512" height="84.512" viewBox="0 0 84.512 84.512" fill="none" xmlns="http://www.w3.org/2000/svg"><path d="M31.20 55.22C25.37 55.22 21.12 51.04 21.12 45.28C21.12 39.45 25.37 35.27 31.20 35.27C37.11 35.27 41.36 39.45 41.36 45.28C41.36 51.04 37.11 55.22 31.20 55.22ZM31.20 30.38C22.13 30.38 15.58 36.57 15.58 45.28C15.58 54.06 22.13 60.11 31.20 60.11C40.42 60.11 46.97 54.06 46.97 45.28C46.97 36.57 40.42 30.38 31.20 30.38ZM34.08 10.72L28.18 10.72L28.18 20.30L11.91 20.30L11.91 25.05L50.00 25.05L50.00 20.30L34.08 20.30ZM72.60 36.50L62.02 36.50L62.02 10.00L56.12 10.00L56.12 74.51L62.02 74.51L62.02 41.46L72.60 41.46Z" fill="#1A1A1C"></path></svg>